<?xml version="1.0" encoding="utf-8"?>
<!-- Generator: Adobe Illustrator 19.0.0, SVG Export Plug-In . SVG Version: 6.00 Build 0)  -->
<svg version="1.1" id="Capa_1" xmlns="http://www.w3.org/2000/svg" xmlns:xlink="http://www.w3.org/1999/xlink" x="0px" y="0px"
	 viewBox="-375 347 648 108" style="enable-background:new -375 347 648 108;" xml:space="preserve">
<style type="text/css">
	.st0{fill:#262626;stroke:#262626;stroke-width:1.5;stroke-linejoin:round;}
	.st1{fill:#262626;}
	.st2{fill:none;stroke:#262626;stroke-width:1.25;}
</style>
<g id="matplotlib.axis_2">
</g>
<g>
	<g>
		<path id="mea781dd9b9" class="st0" d="M-343.9,417.5v-6.3"/>
	</g>
	<g>
		<path id="ArialMT-30" class="st1" d="M-346.9,425.8c0-1.1,0.1-1.9,0.3-2.6c0.2-0.7,0.5-1.2,1-1.5c0.4-0.4,1-0.5,1.6-0.5
			c0.5,0,0.9,0.1,1.3,0.3c0.4,0.2,0.7,0.5,0.9,0.8c0.2,0.4,0.4,0.8,0.6,1.4c0.1,0.5,0.2,1.2,0.2,2.1c0,1.1-0.1,1.9-0.3,2.6
			c-0.2,0.7-0.5,1.2-1,1.5c-0.4,0.4-1,0.5-1.7,0.5c-0.9,0-1.6-0.3-2.1-0.9C-346.6,428.7-346.9,427.5-346.9,425.8z M-345.8,425.8
			c0,1.5,0.2,2.5,0.5,3c0.3,0.5,0.8,0.7,1.3,0.7c0.5,0,0.9-0.2,1.3-0.7c0.3-0.5,0.5-1.5,0.5-3c0-1.5-0.2-2.5-0.5-3
			c-0.3-0.5-0.8-0.7-1.3-0.7c-0.5,0-0.9,0.2-1.2,0.7C-345.6,423.2-345.8,424.3-345.8,425.8z"/>
	</g>
	<g>
		<path id="mea781dd9b9_1_" class="st0" d="M-252.5,417.5v-6.3"/>
	</g>
	<g>
		<path id="ArialMT-32" class="st1" d="M-249.6,429.2v1.1h-6c0-0.3,0-0.5,0.1-0.8c0.2-0.4,0.4-0.8,0.7-1.2c0.3-0.4,0.8-0.9,1.5-1.4
			c1-0.8,1.7-1.5,2-1.9c0.3-0.5,0.5-0.9,0.5-1.3c0-0.4-0.2-0.8-0.5-1.1c-0.3-0.3-0.7-0.5-1.2-0.5c-0.5,0-1,0.2-1.3,0.5
			c-0.3,0.3-0.5,0.8-0.5,1.3l-1.1-0.1c0.1-0.9,0.4-1.5,0.9-2c0.5-0.4,1.2-0.7,2.1-0.7c0.9,0,1.6,0.2,2.1,0.7
			c0.5,0.5,0.8,1.1,0.8,1.8c0,0.4-0.1,0.7-0.2,1.1c-0.1,0.4-0.4,0.7-0.7,1.1s-0.9,0.9-1.7,1.6c-0.7,0.6-1.1,0.9-1.3,1.1
			c-0.2,0.2-0.3,0.4-0.5,0.6H-249.6z"/>
	</g>
	<g>
		<path id="mea781dd9b9_2_" class="st0" d="M-161.1,417.5v-6.3"/>
	</g>
	<g>
		<path id="ArialMT-34" class="st1" d="M-160.5,430.2v-2.2h-3.9v-1l4.1-5.9h0.9v5.9h1.2v1h-1.2v2.2H-160.5z M-160.5,427V423
			l-2.8,4.1H-160.5z"/>
	</g>
	<g>
		<path id="mea781dd9b9_3_" class="st0" d="M-69.7,417.5v-6.3"/>
	</g>
	<g>
		<path id="ArialMT-36" class="st1" d="M-66.9,423.4l-1.1,0.1c-0.1-0.4-0.2-0.8-0.4-1c-0.3-0.3-0.7-0.5-1.1-0.5
			c-0.4,0-0.7,0.1-0.9,0.3c-0.4,0.3-0.6,0.6-0.8,1.1c-0.2,0.5-0.3,1.2-0.3,2.1c0.3-0.4,0.6-0.7,1-0.9c0.4-0.2,0.8-0.3,1.2-0.3
			c0.7,0,1.4,0.3,1.9,0.8c0.5,0.5,0.8,1.3,0.8,2.1c0,0.6-0.1,1.1-0.4,1.6s-0.6,0.9-1,1.1c-0.4,0.3-0.9,0.4-1.5,0.4
			c-0.9,0-1.7-0.3-2.3-1c-0.6-0.7-0.9-1.8-0.9-3.4c0-1.8,0.3-3,1-3.8c0.6-0.7,1.3-1,2.3-1c0.7,0,1.3,0.2,1.8,0.6
			C-67.3,422.1-67,422.7-66.9,423.4z M-71.5,427.3c0,0.4,0.1,0.8,0.2,1.1c0.2,0.4,0.4,0.6,0.7,0.8c0.3,0.2,0.6,0.3,0.9,0.3
			c0.5,0,0.9-0.2,1.2-0.6c0.3-0.4,0.5-0.9,0.5-1.6c0-0.6-0.2-1.1-0.5-1.5c-0.3-0.4-0.8-0.5-1.3-0.5c-0.5,0-0.9,0.2-1.3,0.5
			C-71.3,426.2-71.5,426.7-71.5,427.3z"/>
	</g>
	<g>
		<path id="mea781dd9b9_4_" class="st0" d="M21.7,417.5v-6.3"/>
	</g>
	<g>
		<path id="ArialMT-38" class="st1" d="M20.4,425.3c-0.5-0.2-0.8-0.4-1-0.7c-0.2-0.3-0.3-0.7-0.3-1.1c0-0.7,0.2-1.2,0.7-1.7
			c0.5-0.5,1.1-0.7,1.9-0.7c0.8,0,1.4,0.2,1.9,0.7c0.5,0.5,0.7,1,0.7,1.7c0,0.4-0.1,0.8-0.3,1.1c-0.2,0.3-0.6,0.6-1,0.7
			c0.6,0.2,1,0.5,1.3,0.9c0.3,0.4,0.4,0.9,0.4,1.4c0,0.8-0.3,1.4-0.8,2c-0.5,0.5-1.3,0.8-2.2,0.8s-1.6-0.3-2.2-0.8
			c-0.6-0.5-0.8-1.2-0.8-2c0-0.6,0.2-1.1,0.5-1.5C19.4,425.7,19.8,425.5,20.4,425.3z M20.2,423.4c0,0.4,0.1,0.8,0.4,1.1
			c0.3,0.3,0.6,0.4,1.1,0.4c0.4,0,0.8-0.1,1.1-0.4c0.3-0.3,0.4-0.6,0.4-1c0-0.4-0.1-0.8-0.4-1c-0.3-0.3-0.6-0.4-1.1-0.4
			c-0.4,0-0.8,0.1-1.1,0.4C20.3,422.7,20.2,423,20.2,423.4z M19.8,427.6c0,0.3,0.1,0.6,0.2,0.9c0.2,0.3,0.4,0.5,0.7,0.7
			c0.3,0.2,0.6,0.2,1,0.2c0.5,0,1-0.2,1.3-0.5c0.3-0.3,0.5-0.8,0.5-1.3c0-0.5-0.2-1-0.5-1.3c-0.4-0.4-0.8-0.5-1.3-0.5
			c-0.5,0-1,0.2-1.3,0.5C20,426.7,19.8,427.1,19.8,427.6z"/>
	</g>
	<g>
		<path id="mea781dd9b9_5_" class="st0" d="M113.1,417.5v-6.3"/>
	</g>
	<g>
		<path id="ArialMT-31" class="st1" d="M110.7,430.2h-1.1v-7.1c-0.3,0.3-0.6,0.5-1.1,0.8c-0.4,0.3-0.8,0.4-1.2,0.6v-1.1
			c0.6-0.3,1.2-0.6,1.6-1.1c0.5-0.4,0.8-0.8,1-1.2h0.7V430.2z"/>
	</g>
	<g>
		<path id="ArialMT-30_1_" class="st1" d="M113.6,425.8c0-1.1,0.1-1.9,0.3-2.6c0.2-0.7,0.5-1.2,1-1.5c0.4-0.4,1-0.5,1.6-0.5
			c0.5,0,0.9,0.1,1.3,0.3c0.4,0.2,0.7,0.5,0.9,0.8c0.2,0.4,0.4,0.8,0.6,1.4c0.1,0.5,0.2,1.2,0.2,2.1c0,1.1-0.1,1.9-0.3,2.6
			c-0.2,0.7-0.5,1.2-1,1.5c-0.4,0.4-1,0.5-1.7,0.5c-0.9,0-1.6-0.3-2.1-0.9C113.9,428.7,113.6,427.5,113.6,425.8z M114.7,425.8
			c0,1.5,0.2,2.5,0.5,3c0.3,0.5,0.8,0.7,1.3,0.7c0.5,0,0.9-0.2,1.3-0.7c0.3-0.5,0.5-1.5,0.5-3c0-1.5-0.2-2.5-0.5-3
			c-0.3-0.5-0.8-0.7-1.3-0.7c-0.5,0-0.9,0.2-1.2,0.7C114.9,423.2,114.7,424.3,114.7,425.8z"/>
	</g>
	<g>
		<path id="mea781dd9b9_6_" class="st0" d="M204.5,417.5v-6.3"/>
	</g>
	<g>
		<path id="ArialMT-31_1_" class="st1" d="M202.1,430.2H201v-7.1c-0.3,0.3-0.6,0.5-1.1,0.8c-0.4,0.3-0.8,0.4-1.2,0.6v-1.1
			c0.6-0.3,1.2-0.6,1.6-1.1c0.5-0.4,0.8-0.8,1-1.2h0.7V430.2z"/>
	</g>
	<g>
		<path id="ArialMT-32_1_" class="st1" d="M210.8,429.2v1.1h-6c0-0.3,0-0.5,0.1-0.8c0.2-0.4,0.4-0.8,0.7-1.2
			c0.3-0.4,0.8-0.9,1.5-1.4c1-0.8,1.7-1.5,2-1.9c0.3-0.5,0.5-0.9,0.5-1.3c0-0.4-0.2-0.8-0.5-1.1c-0.3-0.3-0.7-0.5-1.2-0.5
			c-0.5,0-1,0.2-1.3,0.5c-0.3,0.3-0.5,0.8-0.5,1.3l-1.1-0.1c0.1-0.9,0.4-1.5,0.9-2c0.5-0.4,1.2-0.7,2.1-0.7c0.9,0,1.6,0.2,2.1,0.7
			c0.5,0.5,0.8,1.1,0.8,1.8c0,0.4-0.1,0.7-0.2,1.1c-0.1,0.4-0.4,0.7-0.7,1.1s-0.9,0.9-1.7,1.6c-0.7,0.6-1.1,0.9-1.3,1.1
			c-0.2,0.2-0.3,0.4-0.5,0.6H210.8z"/>
	</g>
	
		<image style="overflow:visible;enable-background:new    ;" width="6480" height="360" id="image9924b5c21c" xlink:href="21B1D57A.png"  transform="matrix(9.520089e-002 0 0 -9.520089e-002 -343.9018 417.4573)">
	</image>
	<g id="patch_3">
		<path class="st2" d="M-343.9,417.5h2.4h612.1h2.4v-34.3h-2.4h-612.1h-2.4V417.5z"/>
	</g>
</g>
</svg>
