<?xml version="1.0" encoding="utf-8"?>
<!-- Generator: Adobe Illustrator 19.0.0, SVG Export Plug-In . SVG Version: 6.00 Build 0)  -->
<svg version="1.1" id="Capa_1" xmlns="http://www.w3.org/2000/svg" xmlns:xlink="http://www.w3.org/1999/xlink" x="0px" y="0px"
	 viewBox="54 13 1008 576" style="enable-background:new 54 13 1008 576;" xml:space="preserve">
<style type="text/css">
	.st0{opacity:0.75;clip-path:url(#SVGID_2_);fill:#FDE725;stroke:#FFFFFF;enable-background:new    ;}
	.st1{opacity:0.75;clip-path:url(#SVGID_4_);fill:#440154;stroke:#FFFFFF;enable-background:new    ;}
	.st2{opacity:0.75;clip-path:url(#SVGID_6_);fill:#FDE725;stroke:#FFFFFF;enable-background:new    ;}
	.st3{opacity:0.75;clip-path:url(#SVGID_8_);fill:#FDE725;stroke:#FFFFFF;enable-background:new    ;}
	.st4{opacity:0.75;clip-path:url(#SVGID_10_);fill:#FDE725;stroke:#FFFFFF;enable-background:new    ;}
	.st5{opacity:0.75;clip-path:url(#SVGID_12_);fill:#FDE725;stroke:#FFFFFF;enable-background:new    ;}
	.st6{opacity:0.75;clip-path:url(#SVGID_14_);fill:#440154;stroke:#FFFFFF;enable-background:new    ;}
	.st7{opacity:0.75;clip-path:url(#SVGID_16_);fill:#FDE725;stroke:#FFFFFF;enable-background:new    ;}
	.st8{fill:#262626;}
</style>
<g id="figure_1">
	<g id="axes_1">
		<g id="patch_2">
			<g>
				<defs>
					<rect id="SVGID_1_" x="61" y="24" width="994" height="553.3"/>
				</defs>
				<clipPath id="SVGID_2_">
					<use xlink:href="#SVGID_1_"  style="overflow:visible;"/>
				</clipPath>
				<path class="st0" d="M61,577.3h397.6V439H61V577.3z"/>
			</g>
		</g>
		<g id="patch_3">
			<g>
				<defs>
					<rect id="SVGID_3_" x="61" y="24" width="994" height="553.3"/>
				</defs>
				<clipPath id="SVGID_4_">
					<use xlink:href="#SVGID_3_"  style="overflow:visible;"/>
				</clipPath>
				<path class="st1" d="M61,439h397.6V162.3H61V439z"/>
			</g>
		</g>
		<g id="patch_4">
			<g>
				<defs>
					<rect id="SVGID_5_" x="61" y="24" width="994" height="553.3"/>
				</defs>
				<clipPath id="SVGID_6_">
					<use xlink:href="#SVGID_5_"  style="overflow:visible;"/>
				</clipPath>
				<path class="st2" d="M61,162.3h397.6V24H61V162.3z"/>
			</g>
		</g>
		<g id="patch_5">
			<g>
				<defs>
					<rect id="SVGID_7_" x="61" y="24" width="994" height="553.3"/>
				</defs>
				<clipPath id="SVGID_8_">
					<use xlink:href="#SVGID_7_"  style="overflow:visible;"/>
				</clipPath>
				<path class="st3" d="M458.6,577.3h298.2V392.9H458.6V577.3z"/>
			</g>
		</g>
		<g id="patch_6">
			<g>
				<defs>
					<rect id="SVGID_9_" x="61" y="24" width="994" height="553.3"/>
				</defs>
				<clipPath id="SVGID_10_">
					<use xlink:href="#SVGID_9_"  style="overflow:visible;"/>
				</clipPath>
				<path class="st4" d="M756.8,577.3H1055V392.9H756.8V577.3z"/>
			</g>
		</g>
		<g id="patch_7">
			<g>
				<defs>
					<rect id="SVGID_11_" x="61" y="24" width="994" height="553.3"/>
				</defs>
				<clipPath id="SVGID_12_">
					<use xlink:href="#SVGID_11_"  style="overflow:visible;"/>
				</clipPath>
				<path class="st5" d="M458.6,392.9h198.8V116.2H458.6V392.9z"/>
			</g>
		</g>
		<g id="patch_8">
			<g>
				<defs>
					<rect id="SVGID_13_" x="61" y="24" width="994" height="553.3"/>
				</defs>
				<clipPath id="SVGID_14_">
					<use xlink:href="#SVGID_13_"  style="overflow:visible;"/>
				</clipPath>
				<path class="st6" d="M657.4,392.9H1055V116.2H657.4V392.9z"/>
			</g>
		</g>
		<g id="patch_9">
			<g>
				<defs>
					<rect id="SVGID_15_" x="61" y="24" width="994" height="553.3"/>
				</defs>
				<clipPath id="SVGID_16_">
					<use xlink:href="#SVGID_15_"  style="overflow:visible;"/>
				</clipPath>
				<path class="st7" d="M458.6,116.2H1055V24H458.6V116.2z"/>
			</g>
		</g>
		<g id="text_1">
			<g transform="translate(256.115781 446.746406)scale(0.1 -0.1)">
				<g>
					<path id="ArialMT-41" class="st8" d="M-295.7-577.5l35,91.1h13l37.3-91.1h-13.7l-10.6,27.6h-38.1l-10-27.6H-295.7z
						 M-269.5-540.1h30.9l-9.5,25.2c-2.9,7.7-5.1,14-6.5,18.9c-1.2-5.8-2.8-11.6-4.9-17.4L-269.5-540.1z"/>
				</g>
				<g>
					<path id="ArialMT-67" class="st8" d="M-204.4-582.9l10.9-1.6c0.5-3.4,1.7-5.8,3.8-7.3c2.8-2.1,6.6-3.1,11.4-3.1
						c5.2,0,9.2,1,12,3.1c2.8,2.1,4.7,5,5.7,8.7c0.6,2.3,0.8,7.1,0.8,14.4c-4.9-5.8-11-8.6-18.3-8.6c-9.1,0-16.1,3.3-21.1,9.8
						c-5,6.5-7.5,14.4-7.5,23.5c0,6.3,1.1,12.1,3.4,17.4c2.3,5.3,5.6,9.4,9.9,12.3c4.3,2.9,9.4,4.4,15.3,4.4
						c7.8,0,14.2-3.1,19.3-9.4v8h10.3v-57c0-10.3-1-17.5-3.1-21.8c-2.1-4.3-5.4-7.7-9.9-10.2c-4.5-2.5-10.1-3.7-16.7-3.7
						c-7.9,0-14.2,1.8-19.1,5.3C-202.2-595.4-204.5-590.1-204.4-582.9z M-195.1-543.3c0-8.7,1.7-15,5.1-18.9c3.4-4,7.8-6,12.9-6
						c5.1,0,9.4,2,12.9,5.9c3.5,4,5.2,10.2,5.2,18.6c0,8.1-1.8,14.2-5.4,18.3c-3.6,4.1-7.9,6.2-13,6.2c-5,0-9.2-2-12.7-6.1
						C-193.4-529.3-195.1-535.3-195.1-543.3z"/>
				</g>
				<g>
					<path id="ArialMT-75" class="st8" d="M-88.3-577.5v9.7c-5.1-7.5-12.1-11.2-20.9-11.2c-3.9,0-7.5,0.7-10.9,2.2
						c-3.4,1.5-5.9,3.4-7.5,5.6c-1.6,2.3-2.8,5-3.4,8.3c-0.5,2.2-0.7,5.7-0.7,10.4v40.9h11.2v-36.6c0-5.8,0.2-9.8,0.7-11.8
						c0.7-2.9,2.2-5.2,4.5-6.9c2.3-1.7,5.1-2.5,8.4-2.5c3.4,0,6.5,0.9,9.4,2.6c2.9,1.7,5,4.1,6.2,7c1.2,3,1.8,7.3,1.8,12.9v35.3
						h11.2v-66H-88.3z"/>
				</g>
				<g>
					<path id="ArialMT-61" class="st8" d="M-17.7-569.3c-4.1-3.5-8.1-6-12-7.5c-3.8-1.4-7.9-2.2-12.3-2.2c-7.3,0-12.8,1.8-16.7,5.3
						s-5.8,8.1-5.8,13.6c0,3.2,0.7,6.2,2.2,8.8c1.5,2.7,3.4,4.8,5.8,6.4s5.1,2.8,8.1,3.7c2.2,0.6,5.5,1.1,9.9,1.7
						c9,1.1,15.7,2.4,19.9,3.8c0,1.5,0.1,2.5,0.1,2.9c0,4.6-1.1,7.8-3.2,9.6c-2.8,2.5-7.1,3.8-12.7,3.8c-5.3,0-9.1-0.9-11.7-2.8
						s-4.4-5.1-5.6-9.8l-10.9,1.5c1,4.7,2.6,8.5,4.9,11.3s5.6,5.1,9.9,6.6c4.3,1.6,9.3,2.3,15,2.3c5.6,0,10.2-0.7,13.7-2
						c3.5-1.3,6.1-3,7.8-5c1.7-2,2.8-4.5,3.5-7.6c0.4-1.9,0.6-5.3,0.6-10.3v-14.9c0-10.4,0.2-17,0.7-19.7c0.5-2.7,1.4-5.4,2.8-7.9
						h-11.7C-16.6-575.1-17.4-572.4-17.7-569.3z M-18.6-544.3c-4.1-1.7-10.2-3.1-18.3-4.2c-4.6-0.7-7.9-1.4-9.8-2.2
						c-1.9-0.8-3.4-2-4.4-3.6c-1-1.6-1.6-3.4-1.6-5.3c0-3,1.1-5.5,3.4-7.5c2.3-2,5.6-3,9.9-3c4.3,0,8.1,0.9,11.5,2.8
						s5.8,4.5,7.4,7.7c1.2,2.5,1.8,6.3,1.8,11.2V-544.3z"/>
				</g>
				<g>
					<path id="ArialMT-20" class="st8" d="M1.6-577.5"/>
				</g>
				<g>
					<path id="ArialMT-6c" class="st8" d="M45.1-577.5v91.1h11.2v-91.1H45.1z"/>
				</g>
				<g>
					<path id="ArialMT-69" class="st8" d="M73.7-499.2v12.9h11.2v-12.9H73.7z M73.7-577.5v66h11.2v-66H73.7z"/>
				</g>
				<g>
					<path id="ArialMT-6d" class="st8" d="M101.9-577.5v66h10v-9.3c2.1,3.2,4.8,5.8,8.3,7.8c3.4,2,7.4,3,11.7,3c4.9,0,8.9-1,12-3
						c3.1-2,5.3-4.9,6.6-8.5c5.2,7.7,12,11.6,20.4,11.6c6.5,0,11.6-1.8,15.1-5.4c3.5-3.6,5.3-9.2,5.3-16.7v-45.3h-11.1v41.6
						c0,4.5-0.4,7.7-1.1,9.6c-0.7,2-2,3.6-3.9,4.8c-1.9,1.2-4.1,1.8-6.7,1.8c-4.6,0-8.5-1.5-11.6-4.6c-3.1-3.1-4.6-8-4.6-14.8v-38.3
						h-11.2v42.9c0,5-0.9,8.7-2.7,11.2c-1.8,2.5-4.8,3.7-8.9,3.7c-3.1,0-6.1-0.8-8.7-2.5c-2.7-1.7-4.6-4.1-5.8-7.3
						c-1.2-3.2-1.8-7.8-1.8-13.8v-34.2H101.9z"/>
				</g>
				<g>
					<path id="ArialMT-70" class="st8" d="M207.9-602.7v91.3h10.2v-8.6c2.4,3.4,5.1,5.9,8.2,7.5c3,1.7,6.7,2.5,11,2.5
						c5.6,0,10.6-1.5,14.9-4.4c4.3-2.9,7.6-7,9.7-12.3c2.2-5.3,3.3-11.1,3.3-17.4c0-6.7-1.2-12.8-3.6-18.2
						c-2.4-5.4-5.9-9.5-10.6-12.4c-4.6-2.9-9.5-4.3-14.6-4.3c-3.7,0-7.1,0.8-10,2.4c-3,1.6-5.4,3.6-7.3,6v-32.1H207.9z M218-544.8
						c0-8.5,1.7-14.8,5.1-18.8c3.4-4.1,7.6-6.1,12.5-6.1c5,0,9.2,2.1,12.8,6.3c3.5,4.2,5.3,10.7,5.3,19.5c0,8.4-1.7,14.7-5.2,18.9
						c-3.5,4.2-7.6,6.3-12.4,6.3c-4.8,0-9-2.2-12.7-6.7C219.8-529.9,218-536.4,218-544.8z"/>
				</g>
				<g>
					<path id="ArialMT-69_1_" class="st8" d="M278.7-499.2v12.9h11.2v-12.9H278.7z M278.7-577.5v66h11.2v-66H278.7z"/>
				</g>
				<g>
					<path id="ArialMT-61_1_" class="st8" d="M350-569.3c-4.1-3.5-8.1-6-12-7.5c-3.8-1.4-7.9-2.2-12.3-2.2c-7.3,0-12.8,1.8-16.7,5.3
						s-5.8,8.1-5.8,13.6c0,3.2,0.7,6.2,2.2,8.8c1.5,2.7,3.4,4.8,5.8,6.4c2.4,1.6,5.1,2.8,8.1,3.7c2.2,0.6,5.5,1.1,9.9,1.7
						c9,1.1,15.7,2.4,19.9,3.8c0,1.5,0.1,2.5,0.1,2.9c0,4.6-1.1,7.8-3.2,9.6c-2.8,2.5-7.1,3.8-12.7,3.8c-5.3,0-9.1-0.9-11.7-2.8
						s-4.4-5.1-5.6-9.8l-10.9,1.5c1,4.7,2.6,8.5,4.9,11.3s5.6,5.1,9.9,6.6c4.3,1.6,9.3,2.3,15,2.3c5.6,0,10.2-0.7,13.7-2
						c3.5-1.3,6.1-3,7.8-5c1.7-2,2.8-4.5,3.5-7.6c0.4-1.9,0.6-5.3,0.6-10.3v-14.9c0-10.4,0.2-17,0.7-19.7c0.5-2.7,1.4-5.4,2.8-7.9
						h-11.7C351-575.1,350.3-572.4,350-569.3z M349-544.3c-4.1-1.7-10.2-3.1-18.3-4.2c-4.6-0.7-7.9-1.4-9.8-2.2
						c-1.9-0.8-3.4-2-4.4-3.6c-1-1.6-1.6-3.4-1.6-5.3c0-3,1.1-5.5,3.4-7.5c2.3-2,5.6-3,9.9-3c4.3,0,8.1,0.9,11.5,2.8
						s5.8,4.5,7.4,7.7c1.2,2.5,1.8,6.3,1.8,11.2V-544.3z"/>
				</g>
			</g>
			<g transform="translate(263.344688 457.586719)scale(0.1 -0.1)">
				<g>
					<path id="ArialMT-20_1_" d="M-275.9-607"/>
				</g>
				<g>
					<path id="ArialMT-28" class="st8" d="M-210.8-633.8c-6.2,7.8-11.4,16.9-15.7,27.3c-4.3,10.4-6.4,21.3-6.4,32.4
						c0,9.9,1.6,19.3,4.8,28.3c3.7,10.5,9.5,20.9,17.3,31.3h8c-5-8.6-8.3-14.8-9.9-18.4c-2.5-5.7-4.5-11.7-6-17.9
						c-1.8-7.7-2.7-15.5-2.7-23.4c0-19.9,6.2-39.8,18.6-59.7H-210.8z"/>
				</g>
				<g>
					<path id="ArialMT-31" class="st8" d="M-150.8-607h-11.2v71.3c-2.7-2.6-6.2-5.1-10.6-7.7s-8.3-4.5-11.8-5.8v10.8
						c6.3,2.9,11.7,6.5,16.4,10.7c4.7,4.2,8,8.3,9.9,12.2h7.2V-607z"/>
				</g>
				<g>
					<path id="ArialMT-30" class="st8" d="M-122.1-562.1c0,10.8,1.1,19.4,3.3,26c2.2,6.6,5.5,11.6,9.9,15.2
						c4.4,3.6,9.9,5.3,16.5,5.3c4.9,0,9.2-1,12.9-3c3.7-2,6.7-4.8,9.1-8.5c2.4-3.7,4.3-8.2,5.7-13.5c1.4-5.3,2-12.5,2-21.5
						c0-10.7-1.1-19.3-3.3-25.9c-2.2-6.6-5.5-11.6-9.8-15.2c-4.4-3.6-9.9-5.4-16.6-5.4c-8.8,0-15.7,3.1-20.7,9.4
						C-119.1-591.5-122.1-579.2-122.1-562.1z M-110.6-562.1c0-15,1.7-24.9,5.2-29.9c3.5-4.9,7.8-7.4,12.9-7.4c5.1,0,9.5,2.5,13,7.5
						c3.5,5,5.2,14.9,5.2,29.8c0,15-1.7,25-5.2,29.9c-3.5,4.9-7.9,7.4-13.1,7.4c-5.1,0-9.2-2.2-12.3-6.5
						C-108.7-536.9-110.6-547.1-110.6-562.1z"/>
				</g>
				<g>
					<path id="ArialMT-2e" class="st8" d="M-45.1-607v12.7h12.7V-607H-45.1z"/>
				</g>
				<g>
					<path id="ArialMT-30_1_" class="st8" d="M-16-562.1c0,10.8,1.1,19.4,3.3,26c2.2,6.6,5.5,11.6,9.9,15.2
						c4.4,3.6,9.9,5.3,16.5,5.3c4.9,0,9.2-1,12.9-3c3.7-2,6.7-4.8,9.1-8.5c2.4-3.7,4.3-8.2,5.7-13.5c1.4-5.3,2-12.5,2-21.5
						c0-10.7-1.1-19.3-3.3-25.9c-2.2-6.6-5.5-11.6-9.8-15.2c-4.4-3.6-9.9-5.4-16.6-5.4c-8.8,0-15.7,3.1-20.7,9.4
						C-13-591.5-16-579.2-16-562.1z M-4.5-562.1c0-15,1.7-24.9,5.2-29.9c3.5-4.9,7.8-7.4,12.9-7.4c5.1,0,9.5,2.5,13,7.5
						c3.5,5,5.2,14.9,5.2,29.8c0,15-1.7,25-5.2,29.9c-3.5,4.9-7.9,7.4-13.1,7.4c-5.1,0-9.2-2.2-12.3-6.5
						C-2.6-536.9-4.5-547.1-4.5-562.1z"/>
				</g>
				<g>
					<path id="ArialMT-25" class="st8" d="M56.9-537.8c0,6.5,1.6,12,4.9,16.6c3.3,4.6,8,6.8,14.2,6.8c5.7,0,10.5-2,14.2-6.1
						c3.8-4.1,5.6-10.1,5.6-18c0-7.7-1.9-13.6-5.7-17.8s-8.5-6.2-14-6.2c-5.5,0-10.1,2-13.8,6.1C58.7-552.3,56.9-546.1,56.9-537.8z
						 M76.3-522.1c-2.8,0-5.1-1.2-6.9-3.6c-1.8-2.4-2.8-6.8-2.8-13.2c0-5.8,0.9-10,2.8-12.3c1.9-2.4,4.2-3.6,6.9-3.6
						c2.8,0,5.2,1.2,7,3.6c1.8,2.4,2.8,6.8,2.8,13.2c0,5.9-0.9,10-2.8,12.4C81.4-523.2,79.1-522.1,76.3-522.1z M76.4-610.3l49.8,96
						h9.1l-49.6-96H76.4z M115.8-585.6c0,6.5,1.6,12.1,4.9,16.6c3.3,4.5,8,6.8,14.3,6.8c5.7,0,10.4-2,14.2-6.1
						c3.8-4.1,5.6-10.1,5.6-18c0-7.7-1.9-13.7-5.7-17.8c-3.8-4.2-8.5-6.2-14.1-6.2c-5.5,0-10.1,2.1-13.8,6.2
						C117.6-600,115.8-593.9,115.8-585.6z M135.3-569.9c-2.8,0-5.2-1.2-7-3.6c-1.8-2.4-2.8-6.8-2.8-13.2c0-5.8,0.9-9.9,2.8-12.3
						c1.9-2.4,4.2-3.6,6.9-3.6c2.8,0,5.2,1.2,7,3.6s2.8,6.8,2.8,13.2c0,5.9-0.9,10-2.8,12.4C140.4-571.1,138.1-569.9,135.3-569.9z"
						/>
				</g>
				<g>
					<path id="ArialMT-29" class="st8" d="M178.4-633.8h-8c12.4,19.9,18.6,39.8,18.6,59.7c0,7.8-0.9,15.5-2.7,23.2
						c-1.4,6.2-3.4,12.2-5.9,17.9c-1.6,3.7-5,9.9-10,18.6h8c7.8-10.4,13.5-20.8,17.3-31.3c3.2-9,4.8-18.5,4.8-28.3
						c0-11.2-2.1-22-6.4-32.4C189.7-616.9,184.5-626,178.4-633.8z"/>
				</g>
			</g>
		</g>
		<g id="text_2">
			<g transform="translate(261.118125 283.666406)scale(0.1 -0.1)">
				<g>
					<path id="ArialMT-41_1_" class="st8" d="M-282.1-133.2l35,91.1h13l37.3-91.1h-13.7l-10.6,27.6h-38.1l-10-27.6H-282.1z
						 M-255.8-95.8h30.9l-9.5,25.2c-2.9,7.7-5.1,14-6.5,18.9c-1.2-5.8-2.8-11.6-4.9-17.4L-255.8-95.8z"/>
				</g>
				<g>
					<path id="ArialMT-6d_1_" class="st8" d="M-188.7-133.2v66h10v-9.3c2.1,3.2,4.8,5.8,8.3,7.8c3.4,2,7.4,3,11.7,3
						c4.9,0,8.9-1,12-3c3.1-2,5.3-4.9,6.6-8.5c5.2,7.7,12,11.6,20.4,11.6c6.5,0,11.6-1.8,15.1-5.4c3.5-3.6,5.3-9.2,5.3-16.7v-45.3
						h-11.1v41.6c0,4.5-0.4,7.7-1.1,9.6c-0.7,2-2,3.6-3.9,4.8c-1.9,1.2-4.1,1.8-6.7,1.8c-4.6,0-8.5-1.5-11.6-4.6
						c-3.1-3.1-4.6-8-4.6-14.8v-38.3h-11.2v42.9c0,5-0.9,8.7-2.7,11.2c-1.8,2.5-4.8,3.7-8.9,3.7c-3.1,0-6.1-0.8-8.7-2.5
						c-2.7-1.7-4.6-4.1-5.8-7.3c-1.2-3.2-1.8-7.8-1.8-13.8v-34.2H-188.7z"/>
				</g>
				<g>
					<path id="ArialMT-62" class="st8" d="M-72.4-133.2h-10.4v91.1h11.2v-32.5c4.7,5.9,10.8,8.9,18.1,8.9c4.1,0,7.9-0.8,11.5-2.5
						c3.6-1.6,6.6-3.9,8.9-6.9c2.3-3,4.2-6.5,5.5-10.7c1.3-4.2,2-8.6,2-13.4c0-11.3-2.8-20-8.4-26.2c-5.6-6.2-12.3-9.2-20.1-9.2
						c-7.8,0-13.9,3.3-18.3,9.8V-133.2z M-72.5-99.7c0-7.9,1.1-13.6,3.2-17.1c3.5-5.8,8.3-8.6,14.3-8.6c4.9,0,9.1,2.1,12.7,6.4
						s5.3,10.6,5.3,19c0,8.6-1.7,15-5.1,19.1S-49.6-75-54.5-75c-4.9,0-9.1-2.1-12.7-6.4C-70.7-85.6-72.5-91.7-72.5-99.7z"/>
				</g>
				<g>
					<path id="ArialMT-69_2_" class="st8" d="M-11.9-55v12.9h11.2V-55H-11.9z M-11.9-133.2v66h11.2v-66H-11.9z"/>
				</g>
				<g>
					<path id="ArialMT-65" class="st8" d="M61.5-112l11.6-1.4c-1.8-6.7-5.2-12-10.1-15.7c-4.9-3.7-11.2-5.6-18.9-5.6
						c-9.6,0-17.3,3-23,8.9c-5.7,6-8.5,14.3-8.5,25c0,11.1,2.9,19.7,8.6,25.8c5.7,6.1,13.1,9.2,22.2,9.2c8.8,0,16-3,21.6-9
						s8.4-14.5,8.4-25.3c0-0.7,0-1.7-0.1-3H24.2c0.4-7.3,2.5-12.8,6.1-16.7c3.7-3.8,8.3-5.8,13.8-5.8c4.1,0,7.6,1.1,10.5,3.2
						C57.5-120.1,59.8-116.7,61.5-112z M24.8-93.9h36.8c-0.5,5.6-1.9,9.7-4.2,12.5c-3.6,4.3-8.2,6.5-13.9,6.5c-5.1,0-9.5-1.7-13-5.1
						C27.1-83.5,25.2-88.1,24.8-93.9z"/>
				</g>
				<g>
					<path id="ArialMT-6e" class="st8" d="M87.1-133.2v66h10.1v-9.4c4.9,7.3,11.8,10.9,21,10.9c4,0,7.6-0.7,11-2.1
						c3.3-1.4,5.8-3.3,7.5-5.6c1.7-2.3,2.8-5.1,3.5-8.3c0.4-2.1,0.6-5.7,0.6-10.9v-40.6h-11.2v40.1c0,4.6-0.4,8-1.3,10.2
						c-0.9,2.3-2.4,4-4.6,5.4c-2.2,1.4-4.8,2-7.8,2c-4.8,0-8.9-1.5-12.3-4.5c-3.5-3-5.2-8.8-5.2-17.2v-36H87.1z"/>
				</g>
				<g>
					<path id="ArialMT-74" class="st8" d="M182.3-123.2l1.6-9.9c-3.1-0.7-6-1-8.4-1c-4.1,0-7.2,0.6-9.4,1.9c-2.2,1.3-3.8,3-4.7,5.1
						c-0.9,2.1-1.4,6.5-1.4,13.2v38h-8.2v8.7h8.2v16.3l11.1,6.7v-23h11.3v-8.7H171v-38.6c0-3.2,0.2-5.2,0.6-6.2
						c0.4-0.9,1-1.6,1.9-2.2c0.9-0.5,2.2-0.8,3.8-0.8C178.6-123.7,180.3-123.5,182.3-123.2z"/>
				</g>
				<g>
					<path id="ArialMT-65_1_" class="st8" d="M238.4-112l11.6-1.4c-1.8-6.7-5.2-12-10.1-15.7c-4.9-3.7-11.2-5.6-18.9-5.6
						c-9.6,0-17.3,3-23,8.9c-5.7,6-8.5,14.3-8.5,25c0,11.1,2.9,19.7,8.6,25.8c5.7,6.1,13.1,9.2,22.2,9.2c8.8,0,16-3,21.6-9
						s8.4-14.5,8.4-25.3c0-0.7,0-1.7-0.1-3h-49.2c0.4-7.3,2.5-12.8,6.1-16.7c3.7-3.8,8.3-5.8,13.8-5.8c4.1,0,7.6,1.1,10.5,3.2
						C234.4-120.1,236.7-116.7,238.4-112z M201.7-93.9h36.8c-0.5,5.6-1.9,9.7-4.2,12.5c-3.6,4.3-8.2,6.5-13.9,6.5
						c-5.1,0-9.5-1.7-13-5.1C204-83.5,202-88.1,201.7-93.9z"/>
				</g>
			</g>
			<g transform="translate(263.344688 294.389531)scale(0.1 -0.1)">
				<g>
					<path id="ArialMT-20_2_" d="M-275.9-162.4"/>
				</g>
				<g>
					<path id="ArialMT-28_1_" class="st8" d="M-210.8-189.2c-6.2,7.8-11.4,16.9-15.7,27.3c-4.3,10.4-6.4,21.3-6.4,32.4
						c0,9.9,1.6,19.3,4.8,28.3c3.7,10.5,9.5,20.9,17.3,31.3h8c-5-8.6-8.3-14.8-9.9-18.4c-2.5-5.7-4.5-11.7-6-17.9
						c-1.8-7.7-2.7-15.5-2.7-23.4c0-19.9,6.2-39.8,18.6-59.7H-210.8z"/>
				</g>
				<g>
					<path id="ArialMT-32" class="st8" d="M-134.1-151.7v-10.8h-60.2c-0.1,2.7,0.4,5.3,1.3,7.8c1.5,4.1,4,8.1,7.4,12.1
						c3.4,4,8.3,8.6,14.7,13.8c9.9,8.1,16.6,14.5,20.1,19.3c3.5,4.7,5.2,9.2,5.2,13.5c0,4.4-1.6,8.2-4.8,11.2
						c-3.2,3-7.3,4.6-12.4,4.6c-5.4,0-9.7-1.6-12.9-4.9c-3.2-3.2-4.9-7.7-4.9-13.4l-11.5,1.2c0.8,8.6,3.7,15.1,8.9,19.6
						c5.1,4.5,12,6.7,20.7,6.7c8.7,0,15.6-2.4,20.7-7.3c5.1-4.8,7.7-10.8,7.7-18c0-3.6-0.7-7.2-2.2-10.8c-1.5-3.5-4-7.2-7.4-11.1
						c-3.5-3.9-9.2-9.2-17.2-16c-6.7-5.6-11-9.5-12.9-11.5c-1.9-2-3.5-4-4.7-6H-134.1z"/>
				</g>
				<g>
					<path id="ArialMT-30_2_" class="st8" d="M-122.1-117.5c0,10.8,1.1,19.4,3.3,26c2.2,6.6,5.5,11.6,9.9,15.2
						c4.4,3.6,9.9,5.3,16.5,5.3c4.9,0,9.2-1,12.9-3c3.7-2,6.7-4.8,9.1-8.5c2.4-3.7,4.3-8.2,5.7-13.5c1.4-5.3,2-12.5,2-21.5
						c0-10.7-1.1-19.3-3.3-25.9c-2.2-6.6-5.5-11.6-9.8-15.2c-4.4-3.6-9.9-5.4-16.6-5.4c-8.8,0-15.7,3.1-20.7,9.4
						C-119.1-147-122.1-134.6-122.1-117.5z M-110.6-117.5c0-15,1.7-24.9,5.2-29.9c3.5-4.9,7.8-7.4,12.9-7.4c5.1,0,9.5,2.5,13,7.5
						c3.5,5,5.2,14.9,5.2,29.8c0,15-1.7,25-5.2,29.9c-3.5,4.9-7.9,7.4-13.1,7.4c-5.1,0-9.2-2.2-12.3-6.5
						C-108.7-92.3-110.6-102.6-110.6-117.5z"/>
				</g>
				<g>
					<path id="ArialMT-2e_1_" class="st8" d="M-45.1-162.4v12.7h12.7v-12.7H-45.1z"/>
				</g>
				<g>
					<path id="ArialMT-30_3_" class="st8" d="M-16-117.5c0,10.8,1.1,19.4,3.3,26c2.2,6.6,5.5,11.6,9.9,15.2C1.6-72.8,7.1-71,13.7-71
						c4.9,0,9.2-1,12.9-3c3.7-2,6.7-4.8,9.1-8.5c2.4-3.7,4.3-8.2,5.7-13.5c1.4-5.3,2-12.5,2-21.5c0-10.7-1.1-19.3-3.3-25.9
						c-2.2-6.6-5.5-11.6-9.8-15.2c-4.4-3.6-9.9-5.4-16.6-5.4C4.9-164-2-160.8-7-154.5C-13-147-16-134.6-16-117.5z M-4.5-117.5
						c0-15,1.7-24.9,5.2-29.9c3.5-4.9,7.8-7.4,12.9-7.4c5.1,0,9.5,2.5,13,7.5s5.2,14.9,5.2,29.8c0,15-1.7,25-5.2,29.9
						c-3.5,4.9-7.9,7.4-13.1,7.4c-5.1,0-9.2-2.2-12.3-6.5C-2.6-92.3-4.5-102.6-4.5-117.5z"/>
				</g>
				<g>
					<path id="ArialMT-25_1_" class="st8" d="M56.9-93.2c0,6.5,1.6,12,4.9,16.6c3.3,4.6,8,6.8,14.2,6.8c5.7,0,10.5-2,14.2-6.1
						c3.8-4.1,5.6-10.1,5.6-18c0-7.7-1.9-13.6-5.7-17.8c-3.8-4.2-8.5-6.2-14-6.2c-5.5,0-10.1,2-13.8,6.1
						C58.7-107.7,56.9-101.5,56.9-93.2z M76.3-77.5c-2.8,0-5.1-1.2-6.9-3.6c-1.8-2.4-2.8-6.8-2.8-13.2c0-5.8,0.9-10,2.8-12.3
						c1.9-2.4,4.2-3.6,6.9-3.6c2.8,0,5.2,1.2,7,3.6c1.8,2.4,2.8,6.8,2.8,13.2c0,5.9-0.9,10-2.8,12.4C81.4-78.7,79.1-77.5,76.3-77.5z
						 M76.4-165.8l49.8,96h9.1l-49.6-96H76.4z M115.8-141.1c0,6.5,1.6,12.1,4.9,16.6c3.3,4.5,8,6.8,14.3,6.8c5.7,0,10.4-2,14.2-6.1
						c3.8-4.1,5.6-10.1,5.6-18c0-7.7-1.9-13.7-5.7-17.8c-3.8-4.2-8.5-6.2-14.1-6.2c-5.5,0-10.1,2.1-13.8,6.2
						C117.6-155.5,115.8-149.3,115.8-141.1z M135.3-125.3c-2.8,0-5.2-1.2-7-3.6c-1.8-2.4-2.8-6.8-2.8-13.2c0-5.8,0.9-9.9,2.8-12.3
						c1.9-2.4,4.2-3.6,6.9-3.6c2.8,0,5.2,1.2,7,3.6s2.8,6.8,2.8,13.2c0,5.9-0.9,10-2.8,12.4C140.4-126.5,138.1-125.3,135.3-125.3z"
						/>
				</g>
				<g>
					<path id="ArialMT-29_1_" class="st8" d="M178.4-189.2h-8c12.4,19.9,18.6,39.8,18.6,59.7c0,7.8-0.9,15.5-2.7,23.2
						c-1.4,6.2-3.4,12.2-5.9,17.9c-1.6,3.7-5,9.9-10,18.6h8c7.8-10.4,13.5-20.8,17.3-31.3c3.2-9,4.8-18.5,4.8-28.3
						c0-11.2-2.1-22-6.4-32.4C189.7-172.3,184.5-181.4,178.4-189.2z"/>
				</g>
			</g>
		</g>
		<g id="text_3">
			<g transform="translate(258.891563 120.586406)scale(0.1 -0.1)">
				<g>
					<path id="ArialMT-45" class="st8" d="M-277.9,311v91.1h65.9v-10.7h-53.8v-27.9h50.4v-10.7h-50.4v-31h55.9V311H-277.9z"/>
				</g>
				<g>
					<path id="ArialMT-64" class="st8" d="M-151.9,311v8.3c-4.2-6.5-10.3-9.8-18.4-9.8c-5.3,0-10.1,1.5-14.5,4.4
						c-4.4,2.9-7.8,7-10.3,12.1c-2.4,5.2-3.6,11.2-3.6,17.9c0,6.6,1.1,12.6,3.3,17.9c2.2,5.4,5.5,9.5,9.9,12.3
						c4.4,2.9,9.3,4.3,14.7,4.3c4,0,7.5-0.8,10.6-2.5c3.1-1.7,5.6-3.9,7.6-6.5v32.7h11.1V311H-151.9z M-187.3,343.9
						c0-8.4,1.8-14.8,5.3-18.9c3.6-4.2,7.8-6.3,12.6-6.3c4.9,0,9,2,12.4,6c3.4,4,5.1,10.1,5.1,18.3c0,9-1.7,15.7-5.2,19.9
						c-3.5,4.2-7.8,6.3-12.8,6.3c-5,0-9.1-2-12.5-6.1C-185.6,359.1-187.3,352.7-187.3,343.9z"/>
				</g>
				<g>
					<path id="ArialMT-75_1_" class="st8" d="M-80.7,311v9.7c-5.1-7.5-12.1-11.2-20.9-11.2c-3.9,0-7.5,0.7-10.9,2.2
						c-3.4,1.5-5.9,3.4-7.5,5.6c-1.6,2.3-2.8,5-3.4,8.3c-0.5,2.2-0.7,5.7-0.7,10.4V377h11.2v-36.6c0-5.8,0.2-9.8,0.7-11.8
						c0.7-2.9,2.2-5.2,4.5-6.9c2.3-1.7,5.1-2.5,8.4-2.5c3.4,0,6.5,0.9,9.4,2.6c2.9,1.7,5,4.1,6.2,7c1.2,3,1.8,7.3,1.8,12.9V377h11.2
						v-66H-80.7z"/>
				</g>
				<g>
					<path id="ArialMT-63" class="st8" d="M-10.2,335.2l11-1.4c-1.2-7.6-4.3-13.5-9.2-17.8c-4.9-4.3-11-6.4-18.2-6.4
						c-9,0-16.3,2.9-21.8,8.8c-5.5,5.9-8.2,14.4-8.2,25.4c0,7.1,1.2,13.3,3.5,18.7c2.4,5.4,6,9.4,10.8,12c4.8,2.7,10.1,4,15.8,4
						c7.2,0,13-1.8,17.6-5.4c4.6-3.6,7.5-8.8,8.8-15.4l-10.9-1.7c-1,4.4-2.9,7.8-5.5,10c-2.6,2.2-5.8,3.4-9.5,3.4
						c-5.6,0-10.2-2-13.7-6.1c-3.5-4-5.3-10.4-5.3-19.1c0-8.9,1.7-15.3,5.1-19.3c3.4-4,7.8-6,13.3-6c4.4,0,8.1,1.3,11,4
						C-12.8,325.4-10.9,329.6-10.2,335.2z"/>
				</g>
				<g>
					<path id="ArialMT-61_2_" class="st8" d="M53.5,319.1c-4.1-3.5-8.1-6-12-7.5c-3.8-1.4-7.9-2.2-12.3-2.2
						c-7.3,0-12.8,1.8-16.7,5.3c-3.9,3.5-5.8,8.1-5.8,13.6c0,3.2,0.7,6.2,2.2,8.8c1.5,2.7,3.4,4.8,5.8,6.4s5.1,2.8,8.1,3.7
						c2.2,0.6,5.5,1.1,9.9,1.7c9,1.1,15.7,2.4,19.9,3.8c0,1.5,0.1,2.5,0.1,2.9c0,4.6-1.1,7.8-3.2,9.6c-2.8,2.5-7.1,3.8-12.7,3.8
						c-5.3,0-9.1-0.9-11.7-2.8c-2.5-1.8-4.4-5.1-5.6-9.8l-10.9,1.5c1,4.7,2.6,8.5,4.9,11.3s5.6,5.1,9.9,6.6c4.3,1.6,9.3,2.3,15,2.3
						c5.6,0,10.2-0.7,13.7-2c3.5-1.3,6.1-3,7.8-5c1.7-2,2.8-4.5,3.5-7.6c0.4-1.9,0.6-5.3,0.6-10.3v-14.9c0-10.4,0.2-17,0.7-19.7
						c0.5-2.7,1.4-5.4,2.8-7.9H55.7C54.5,313.3,53.8,316,53.5,319.1z M52.5,344.1c-4.1-1.7-10.2-3.1-18.3-4.2
						c-4.6-0.7-7.9-1.4-9.8-2.2c-1.9-0.8-3.4-2-4.4-3.6c-1-1.6-1.6-3.4-1.6-5.3c0-3,1.1-5.5,3.4-7.5c2.3-2,5.6-3,9.9-3
						c4.3,0,8.1,0.9,11.5,2.8c3.4,1.9,5.8,4.5,7.4,7.7c1.2,2.5,1.8,6.3,1.8,11.2V344.1z"/>
				</g>
				<g>
					<path id="ArialMT-63_1_" class="st8" d="M124.2,335.2l11-1.4c-1.2-7.6-4.3-13.5-9.2-17.8c-4.9-4.3-11-6.4-18.2-6.4
						c-9,0-16.3,2.9-21.8,8.8c-5.5,5.9-8.2,14.4-8.2,25.4c0,7.1,1.2,13.3,3.5,18.7c2.4,5.4,6,9.4,10.8,12c4.8,2.7,10.1,4,15.8,4
						c7.2,0,13-1.8,17.6-5.4c4.6-3.6,7.5-8.8,8.8-15.4l-10.9-1.7c-1,4.4-2.9,7.8-5.5,10c-2.6,2.2-5.8,3.4-9.5,3.4
						c-5.6,0-10.2-2-13.7-6.1c-3.5-4-5.3-10.4-5.3-19.1c0-8.9,1.7-15.3,5.1-19.3c3.4-4,7.8-6,13.3-6c4.4,0,8.1,1.3,11,4
						C121.6,325.4,123.4,329.6,124.2,335.2z"/>
				</g>
				<g>
					<path id="ArialMT-69_3_" class="st8" d="M144.9,389.2v12.9H156v-12.9H144.9z M144.9,311v66H156v-66H144.9z"/>
				</g>
				<g>
					<path id="ArialMT-f3" class="st8" d="M168.9,344c0,12.2,3.4,21.3,10.2,27.2c5.7,4.9,12.6,7.3,20.8,7.3c9.1,0,16.5-3,22.2-8.9
						c5.8-5.9,8.6-14.1,8.6-24.6c0-8.5-1.3-15.2-3.8-20c-2.5-4.9-6.3-8.6-11.1-11.3c-4.9-2.7-10.2-4-15.9-4c-9.2,0-16.7,3-22.4,8.9
						C171.7,324.3,168.9,332.9,168.9,344z M180.4,344c0-8.4,1.8-14.8,5.5-19s8.3-6.3,13.9-6.3c5.6,0,10.2,2.1,13.9,6.3
						c3.7,4.2,5.5,10.7,5.5,19.3c0,8.2-1.9,14.3-5.6,18.5c-3.7,4.2-8.3,6.3-13.8,6.3c-5.6,0-10.2-2.1-13.9-6.3
						C182.2,358.8,180.4,352.4,180.4,344z M193.6,385.2l8.3,17.4h14.7l-13.7-17.4H193.6z"/>
				</g>
				<g>
					<path id="ArialMT-6e_1_" class="st8" d="M243.8,311v66h10.1v-9.4c4.9,7.3,11.8,10.9,21,10.9c4,0,7.6-0.7,11-2.1
						c3.3-1.4,5.8-3.3,7.5-5.6c1.7-2.3,2.8-5.1,3.5-8.3c0.4-2.1,0.6-5.7,0.6-10.9V311h-11.2v40.1c0,4.6-0.4,8-1.3,10.2
						c-0.9,2.3-2.4,4-4.6,5.4c-2.2,1.4-4.8,2-7.8,2c-4.8,0-8.9-1.5-12.3-4.5c-3.5-3-5.2-8.8-5.2-17.2v-36H243.8z"/>
				</g>
			</g>
			<g transform="translate(263.344688 131.309531)scale(0.1 -0.1)">
				<g>
					<path id="ArialMT-20_3_" class="st8" d="M-275.9,281.8"/>
				</g>
				<g>
					<path id="ArialMT-28_2_" class="st8" d="M-210.8,255c-6.2,7.8-11.4,16.9-15.7,27.3c-4.3,10.4-6.4,21.3-6.4,32.4
						c0,9.9,1.6,19.3,4.8,28.3c3.7,10.5,9.5,20.9,17.3,31.3h8c-5-8.6-8.3-14.8-9.9-18.4c-2.5-5.7-4.5-11.7-6-17.9
						c-1.8-7.7-2.7-15.5-2.7-23.4c0-19.9,6.2-39.8,18.6-59.7H-210.8z"/>
				</g>
				<g>
					<path id="ArialMT-31_1_" class="st8" d="M-150.8,281.8h-11.2V353c-2.7-2.6-6.2-5.1-10.6-7.7c-4.4-2.6-8.3-4.5-11.8-5.8v10.8
						c6.3,2.9,11.7,6.5,16.4,10.7c4.7,4.2,8,8.3,9.9,12.2h7.2V281.8z"/>
				</g>
				<g>
					<path id="ArialMT-30_4_" class="st8" d="M-122.1,326.7c0,10.8,1.1,19.4,3.3,26c2.2,6.6,5.5,11.6,9.9,15.2
						c4.4,3.6,9.9,5.3,16.5,5.3c4.9,0,9.2-1,12.9-3c3.7-2,6.7-4.8,9.1-8.5c2.4-3.7,4.3-8.2,5.7-13.5c1.4-5.3,2-12.5,2-21.5
						c0-10.7-1.1-19.3-3.3-25.9c-2.2-6.6-5.5-11.6-9.8-15.2c-4.4-3.6-9.9-5.4-16.6-5.4c-8.8,0-15.7,3.1-20.7,9.4
						C-119.1,297.3-122.1,309.6-122.1,326.7z M-110.6,326.7c0-15,1.7-24.9,5.2-29.9c3.5-4.9,7.8-7.4,12.9-7.4c5.1,0,9.5,2.5,13,7.5
						c3.5,5,5.2,14.9,5.2,29.8c0,15-1.7,25-5.2,29.9c-3.5,4.9-7.9,7.4-13.1,7.4c-5.1,0-9.2-2.2-12.3-6.5
						C-108.7,351.9-110.6,341.7-110.6,326.7z"/>
				</g>
				<g>
					<path id="ArialMT-2e_2_" class="st8" d="M-45.1,281.8v12.7h12.7v-12.7H-45.1z"/>
				</g>
				<g>
					<path id="ArialMT-30_5_" class="st8" d="M-16,326.7c0,10.8,1.1,19.4,3.3,26c2.2,6.6,5.5,11.6,9.9,15.2
						c4.4,3.6,9.9,5.3,16.5,5.3c4.9,0,9.2-1,12.9-3c3.7-2,6.7-4.8,9.1-8.5c2.4-3.7,4.3-8.2,5.7-13.5c1.4-5.3,2-12.5,2-21.5
						c0-10.7-1.1-19.3-3.3-25.9c-2.2-6.6-5.5-11.6-9.8-15.2c-4.4-3.6-9.9-5.4-16.6-5.4c-8.8,0-15.7,3.1-20.7,9.4
						C-13,297.3-16,309.6-16,326.7z M-4.5,326.7c0-15,1.7-24.9,5.2-29.9c3.5-4.9,7.8-7.4,12.9-7.4c5.1,0,9.5,2.5,13,7.5
						c3.5,5,5.2,14.9,5.2,29.8c0,15-1.7,25-5.2,29.9c-3.5,4.9-7.9,7.4-13.1,7.4c-5.1,0-9.2-2.2-12.3-6.5
						C-2.6,351.9-4.5,341.7-4.5,326.7z"/>
				</g>
				<g>
					<path id="ArialMT-25_2_" class="st8" d="M56.9,351c0,6.5,1.6,12,4.9,16.6c3.3,4.6,8,6.8,14.2,6.8c5.7,0,10.5-2,14.2-6.1
						c3.8-4.1,5.6-10.1,5.6-18c0-7.7-1.9-13.6-5.7-17.8c-3.8-4.2-8.5-6.2-14-6.2c-5.5,0-10.1,2-13.8,6.1
						C58.7,336.5,56.9,342.7,56.9,351z M76.3,366.7c-2.8,0-5.1-1.2-6.9-3.6c-1.8-2.4-2.8-6.8-2.8-13.2c0-5.8,0.9-10,2.8-12.3
						c1.9-2.4,4.2-3.6,6.9-3.6c2.8,0,5.2,1.2,7,3.6c1.8,2.4,2.8,6.8,2.8,13.2c0,5.9-0.9,10-2.8,12.4
						C81.4,365.5,79.1,366.7,76.3,366.7z M76.4,278.4l49.8,96h9.1l-49.6-96H76.4z M115.8,303.2c0,6.5,1.6,12.1,4.9,16.6
						c3.3,4.5,8,6.8,14.3,6.8c5.7,0,10.4-2,14.2-6.1c3.8-4.1,5.6-10.1,5.6-18c0-7.7-1.9-13.7-5.7-17.8c-3.8-4.2-8.5-6.2-14.1-6.2
						c-5.5,0-10.1,2.1-13.8,6.2C117.6,288.7,115.8,294.9,115.8,303.2z M135.3,318.9c-2.8,0-5.2-1.2-7-3.6c-1.8-2.4-2.8-6.8-2.8-13.2
						c0-5.8,0.9-9.9,2.8-12.3c1.9-2.4,4.2-3.6,6.9-3.6c2.8,0,5.2,1.2,7,3.6s2.8,6.8,2.8,13.2c0,5.9-0.9,10-2.8,12.4
						C140.4,317.7,138.1,318.9,135.3,318.9z"/>
				</g>
				<g>
					<path id="ArialMT-29_2_" class="st8" d="M178.4,255h-8c12.4,19.9,18.6,39.8,18.6,59.7c0,7.8-0.9,15.5-2.7,23.2
						c-1.4,6.2-3.4,12.2-5.9,17.9c-1.6,3.7-5,9.9-10,18.6h8c7.8-10.4,13.5-20.8,17.3-31.3c3.2-9,4.8-18.5,4.8-28.3
						c0-11.2-2.1-22-6.4-32.4C189.7,271.9,184.5,262.8,178.4,255z"/>
				</g>
			</g>
		</g>
		<g id="text_4">
			<g transform="translate(514.812344 428.626406)scale(0.1 -0.1)">
				<g>
					<path id="ArialMT-45_1_" class="st8" d="M419.2-528.1v91.1h65.9v-10.7h-53.8v-27.9h50.4v-10.7h-50.4v-31h55.9v-10.8H419.2z"/>
				</g>
				<g>
					<path id="ArialMT-6d_2_" class="st8" d="M502.4-528.1v66h10v-9.3c2.1,3.2,4.8,5.8,8.3,7.8c3.4,2,7.4,3,11.7,3c4.9,0,8.9-1,12-3
						s5.3-4.9,6.6-8.5c5.2,7.7,12,11.6,20.4,11.6c6.5,0,11.6-1.8,15.1-5.4c3.5-3.6,5.3-9.2,5.3-16.7v-45.3h-11.1v41.6
						c0,4.5-0.4,7.7-1.1,9.6c-0.7,2-2,3.6-3.9,4.8c-1.9,1.2-4.1,1.8-6.7,1.8c-4.6,0-8.5-1.5-11.6-4.6c-3.1-3.1-4.6-8-4.6-14.8v-38.3
						h-11.2v42.9c0,5-0.9,8.7-2.7,11.2c-1.8,2.5-4.8,3.7-8.9,3.7c-3.1,0-6.1-0.8-8.7-2.5c-2.7-1.7-4.6-4.1-5.8-7.3
						c-1.2-3.2-1.8-7.8-1.8-13.8v-34.2H502.4z"/>
				</g>
				<g>
					<path id="ArialMT-70_1_" class="st8" d="M608.4-553.4v91.3h10.2v-8.6c2.4,3.4,5.1,5.9,8.2,7.5c3,1.7,6.7,2.5,11,2.5
						c5.6,0,10.6-1.5,14.9-4.4c4.3-2.9,7.6-7,9.7-12.3c2.2-5.3,3.3-11.1,3.3-17.4c0-6.7-1.2-12.8-3.6-18.2
						c-2.4-5.4-5.9-9.5-10.6-12.4c-4.6-2.9-9.5-4.3-14.6-4.3c-3.7,0-7.1,0.8-10,2.4c-3,1.6-5.4,3.6-7.3,6v-32.1H608.4z M618.5-495.5
						c0-8.5,1.7-14.8,5.1-18.8c3.4-4.1,7.6-6.1,12.5-6.1c5,0,9.2,2.1,12.8,6.3c3.5,4.2,5.3,10.7,5.3,19.5c0,8.4-1.7,14.7-5.2,18.9
						c-3.5,4.2-7.6,6.3-12.4,6.3c-4.8,0-9-2.2-12.7-6.7C620.3-480.5,618.5-487,618.5-495.5z"/>
				</g>
				<g>
					<path id="ArialMT-72" class="st8" d="M679-528.1v66h10.1v-10c2.6,4.7,4.9,7.8,7.1,9.2c2.2,1.5,4.6,2.2,7.2,2.2
						c3.8,0,7.6-1.2,11.5-3.6l-3.9-10.4c-2.7,1.6-5.5,2.4-8.2,2.4c-2.5,0-4.7-0.7-6.6-2.2s-3.3-3.5-4.2-6.1c-1.2-4-1.9-8.3-1.9-13
						v-34.6H679z"/>
				</g>
				<g>
					<path id="ArialMT-65_2_" class="st8" d="M766.7-506.8l11.6-1.4c-1.8-6.7-5.2-12-10.1-15.7c-4.9-3.7-11.2-5.6-18.9-5.6
						c-9.6,0-17.3,3-23,8.9c-5.7,6-8.5,14.3-8.5,25c0,11.1,2.9,19.7,8.6,25.8c5.7,6.1,13.1,9.2,22.2,9.2c8.8,0,16-3,21.6-9
						s8.4-14.5,8.4-25.3c0-0.7,0-1.7-0.1-3h-49.2c0.4-7.3,2.5-12.8,6.1-16.7c3.7-3.8,8.3-5.8,13.8-5.8c4.1,0,7.6,1.1,10.5,3.2
						C762.7-515,765-511.6,766.7-506.8z M730-488.8h36.8c-0.5,5.6-1.9,9.7-4.2,12.5c-3.6,4.3-8.2,6.5-13.9,6.5
						c-5.1,0-9.5-1.7-13-5.1S730.3-483,730-488.8z"/>
				</g>
				<g>
					<path id="ArialMT-73" class="st8" d="M787.8-508.4l11.1,1.7c0.6-4.4,2.4-7.8,5.2-10.2c2.8-2.4,6.8-3.5,11.9-3.5
						c5.1,0,8.9,1,11.4,3.1c2.5,2.1,3.7,4.6,3.7,7.4c0,2.5-1.1,4.5-3.3,6c-1.5,1-5.3,2.3-11.4,3.8c-8.2,2.1-13.9,3.9-17,5.4
						c-3.2,1.5-5.6,3.6-7.2,6.3c-1.6,2.7-2.4,5.6-2.4,8.9c0,2.9,0.7,5.6,2,8.2c1.4,2.5,3.2,4.6,5.5,6.3c1.7,1.3,4.1,2.4,7.1,3.2
						c3,0.9,6.2,1.4,9.7,1.4c5.2,0,9.7-0.7,13.6-2.2c3.9-1.5,6.8-3.5,8.7-6.1c1.9-2.5,3.2-5.9,3.9-10.2l-10.9-1.5
						c-0.5,3.4-1.9,6-4.3,7.9c-2.4,1.9-5.8,2.9-10.1,2.9c-5.1,0-8.8-0.8-11-2.5s-3.3-3.7-3.3-6c0-1.4,0.5-2.8,1.4-3.9
						c0.9-1.2,2.3-2.2,4.3-3c1.1-0.4,4.4-1.4,9.9-2.8c7.9-2.1,13.4-3.9,16.5-5.2c3.1-1.3,5.6-3.3,7.4-5.9c1.8-2.6,2.7-5.7,2.7-9.6
						c0-3.7-1.1-7.2-3.3-10.5c-2.2-3.3-5.3-5.8-9.4-7.6c-4.1-1.8-8.7-2.7-13.9-2.7c-8.6,0-15.1,1.8-19.6,5.3
						S789.1-515.4,787.8-508.4z"/>
				</g>
				<g>
					<path id="ArialMT-61_3_" class="st8" d="M899-520c-4.1-3.5-8.1-6-12-7.5c-3.8-1.4-7.9-2.2-12.3-2.2c-7.3,0-12.8,1.8-16.7,5.3
						c-3.9,3.5-5.8,8.1-5.8,13.6c0,3.2,0.7,6.2,2.2,8.8c1.5,2.7,3.4,4.8,5.8,6.4s5.1,2.8,8.1,3.7c2.2,0.6,5.5,1.1,9.9,1.7
						c9,1.1,15.7,2.4,19.9,3.8c0,1.5,0.1,2.5,0.1,2.9c0,4.6-1.1,7.8-3.2,9.6c-2.8,2.5-7.1,3.8-12.7,3.8c-5.3,0-9.1-0.9-11.7-2.8
						c-2.5-1.8-4.4-5.1-5.6-9.8l-10.9,1.5c1,4.7,2.6,8.5,4.9,11.3c2.3,2.9,5.6,5.1,9.9,6.6c4.3,1.6,9.3,2.3,15,2.3
						c5.6,0,10.2-0.7,13.7-2c3.5-1.3,6.1-3,7.8-5c1.7-2,2.8-4.5,3.5-7.6c0.4-1.9,0.6-5.3,0.6-10.3v-14.9c0-10.4,0.2-17,0.7-19.7
						c0.5-2.7,1.4-5.4,2.8-7.9h-11.7C900-525.8,899.3-523.1,899-520z M898-495c-4.1-1.7-10.2-3.1-18.3-4.2c-4.6-0.7-7.9-1.4-9.8-2.2
						c-1.9-0.8-3.4-2-4.4-3.6c-1-1.6-1.6-3.4-1.6-5.3c0-3,1.1-5.5,3.4-7.5c2.3-2,5.6-3,9.9-3c4.3,0,8.1,0.9,11.5,2.8
						c3.4,1.9,5.8,4.5,7.4,7.7c1.2,2.5,1.8,6.3,1.8,11.2V-495z"/>
				</g>
				<g>
					<path id="ArialMT-73_1_" class="st8" d="M922.2-508.4l11.1,1.7c0.6-4.4,2.4-7.8,5.2-10.2c2.8-2.4,6.8-3.5,11.9-3.5
						c5.1,0,8.9,1,11.4,3.1c2.5,2.1,3.7,4.6,3.7,7.4c0,2.5-1.1,4.5-3.3,6c-1.5,1-5.3,2.3-11.4,3.8c-8.2,2.1-13.9,3.9-17,5.4
						c-3.2,1.5-5.6,3.6-7.2,6.3c-1.6,2.7-2.4,5.6-2.4,8.9c0,2.9,0.7,5.6,2,8.2c1.4,2.5,3.2,4.6,5.5,6.3c1.7,1.3,4.1,2.4,7.1,3.2
						c3,0.9,6.2,1.4,9.7,1.4c5.2,0,9.7-0.7,13.6-2.2c3.9-1.5,6.8-3.5,8.7-6.1c1.9-2.5,3.2-5.9,3.9-10.2l-10.9-1.5
						c-0.5,3.4-1.9,6-4.3,7.9c-2.4,1.9-5.8,2.9-10.1,2.9c-5.1,0-8.8-0.8-11-2.5c-2.2-1.7-3.3-3.7-3.3-6c0-1.4,0.5-2.8,1.4-3.9
						c0.9-1.2,2.3-2.2,4.3-3c1.1-0.4,4.4-1.4,9.9-2.8c7.9-2.1,13.4-3.9,16.5-5.2c3.1-1.3,5.6-3.3,7.4-5.9c1.8-2.6,2.7-5.7,2.7-9.6
						c0-3.7-1.1-7.2-3.3-10.5c-2.2-3.3-5.3-5.8-9.4-7.6c-4.1-1.8-8.7-2.7-13.9-2.7c-8.6,0-15.1,1.8-19.6,5.3
						S923.4-515.4,922.2-508.4z"/>
				</g>
				<g>
					<path id="ArialMT-20_4_" class="st8" d="M981.9-528.1"/>
				</g>
				<g>
					<path id="ArialMT-6c_1_" class="st8" d="M1025.4-528.1v91.1h11.2v-91.1H1025.4z"/>
				</g>
				<g>
					<path id="ArialMT-6f" class="st8" d="M1049.8-495.1c0,12.2,3.4,21.3,10.2,27.2c5.7,4.9,12.6,7.3,20.8,7.3
						c9.1,0,16.5-3,22.2-8.9c5.8-5.9,8.6-14.1,8.6-24.6c0-8.5-1.3-15.2-3.8-20c-2.5-4.9-6.3-8.6-11.1-11.3c-4.9-2.7-10.2-4-15.9-4
						c-9.2,0-16.7,3-22.4,8.9C1052.6-514.8,1049.8-506.3,1049.8-495.1z M1061.2-495.1c0-8.4,1.8-14.8,5.5-19
						c3.7-4.2,8.3-6.3,13.9-6.3c5.6,0,10.2,2.1,13.9,6.3c3.7,4.2,5.5,10.7,5.5,19.3c0,8.2-1.9,14.3-5.6,18.5s-8.3,6.3-13.8,6.3
						c-5.6,0-10.2-2.1-13.9-6.3C1063.1-480.3,1061.2-486.7,1061.2-495.1z"/>
				</g>
				<g>
					<path id="ArialMT-63_2_" class="st8" d="M1167.7-503.9l11-1.4c-1.2-7.6-4.3-13.5-9.2-17.8c-4.9-4.3-11-6.4-18.2-6.4
						c-9,0-16.3,2.9-21.8,8.8c-5.5,5.9-8.2,14.4-8.2,25.4c0,7.1,1.2,13.3,3.5,18.7c2.4,5.4,6,9.4,10.8,12c4.8,2.7,10.1,4,15.8,4
						c7.2,0,13-1.8,17.6-5.4c4.6-3.6,7.5-8.8,8.8-15.4l-10.9-1.7c-1,4.4-2.9,7.8-5.5,10c-2.6,2.2-5.8,3.4-9.5,3.4
						c-5.6,0-10.2-2-13.7-6.1c-3.5-4-5.3-10.4-5.3-19.1c0-8.9,1.7-15.3,5.1-19.3c3.4-4,7.8-6,13.3-6c4.4,0,8.1,1.3,11,4
						C1165.1-513.7,1166.9-509.5,1167.7-503.9z"/>
				</g>
				<g>
					<path id="ArialMT-61_4_" class="st8" d="M1231.4-520c-4.1-3.5-8.1-6-12-7.5c-3.8-1.4-7.9-2.2-12.3-2.2
						c-7.3,0-12.8,1.8-16.7,5.3c-3.9,3.5-5.8,8.1-5.8,13.6c0,3.2,0.7,6.2,2.2,8.8c1.5,2.7,3.4,4.8,5.8,6.4s5.1,2.8,8.1,3.7
						c2.2,0.6,5.5,1.1,9.9,1.7c9,1.1,15.7,2.4,19.9,3.8c0,1.5,0.1,2.5,0.1,2.9c0,4.6-1.1,7.8-3.2,9.6c-2.8,2.5-7.1,3.8-12.7,3.8
						c-5.3,0-9.1-0.9-11.7-2.8c-2.5-1.8-4.4-5.1-5.6-9.8l-10.9,1.5c1,4.7,2.6,8.5,4.9,11.3c2.3,2.9,5.6,5.1,9.9,6.6
						c4.3,1.6,9.3,2.3,15,2.3c5.6,0,10.2-0.7,13.7-2c3.5-1.3,6.1-3,7.8-5c1.7-2,2.8-4.5,3.5-7.6c0.4-1.9,0.6-5.3,0.6-10.3v-14.9
						c0-10.4,0.2-17,0.7-19.7c0.5-2.7,1.4-5.4,2.8-7.9h-11.7C1232.4-525.8,1231.7-523.1,1231.4-520z M1230.4-495
						c-4.1-1.7-10.2-3.1-18.3-4.2c-4.6-0.7-7.9-1.4-9.8-2.2c-1.9-0.8-3.4-2-4.4-3.6c-1-1.6-1.6-3.4-1.6-5.3c0-3,1.1-5.5,3.4-7.5
						c2.3-2,5.6-3,9.9-3c4.3,0,8.1,0.9,11.5,2.8c3.4,1.9,5.8,4.5,7.4,7.7c1.2,2.5,1.8,6.3,1.8,11.2V-495z"/>
				</g>
				<g>
					<path id="ArialMT-6c_2_" class="st8" d="M1258.8-528.1v91.1h11.2v-91.1H1258.8z"/>
				</g>
				<g>
					<path id="ArialMT-65_3_" class="st8" d="M1332.5-506.8l11.6-1.4c-1.8-6.7-5.2-12-10.1-15.7c-4.9-3.7-11.2-5.6-18.9-5.6
						c-9.6,0-17.3,3-23,8.9c-5.7,6-8.5,14.3-8.5,25c0,11.1,2.9,19.7,8.6,25.8c5.7,6.1,13.1,9.2,22.2,9.2c8.8,0,16-3,21.6-9
						s8.4-14.5,8.4-25.3c0-0.7,0-1.7-0.1-3h-49.2c0.4-7.3,2.5-12.8,6.1-16.7c3.7-3.8,8.3-5.8,13.8-5.8c4.1,0,7.6,1.1,10.5,3.2
						C1328.5-515,1330.8-511.6,1332.5-506.8z M1295.8-488.8h36.8c-0.5,5.6-1.9,9.7-4.2,12.5c-3.6,4.3-8.2,6.5-13.9,6.5
						c-5.1,0-9.5-1.7-13-5.1S1296.1-483,1295.8-488.8z"/>
				</g>
				<g>
					<path id="ArialMT-73_2_" class="st8" d="M1353.6-508.4l11.1,1.7c0.6-4.4,2.4-7.8,5.2-10.2c2.8-2.4,6.8-3.5,11.9-3.5
						c5.1,0,8.9,1,11.4,3.1c2.5,2.1,3.7,4.6,3.7,7.4c0,2.5-1.1,4.5-3.3,6c-1.5,1-5.3,2.3-11.4,3.8c-8.2,2.1-13.9,3.9-17,5.4
						c-3.2,1.5-5.6,3.6-7.2,6.3c-1.6,2.7-2.4,5.6-2.4,8.9c0,2.9,0.7,5.6,2,8.2c1.4,2.5,3.2,4.6,5.5,6.3c1.7,1.3,4.1,2.4,7.1,3.2
						c3,0.9,6.2,1.4,9.7,1.4c5.2,0,9.7-0.7,13.6-2.2c3.9-1.5,6.8-3.5,8.7-6.1c1.9-2.5,3.2-5.9,3.9-10.2l-10.9-1.5
						c-0.5,3.4-1.9,6-4.3,7.9c-2.4,1.9-5.8,2.9-10.1,2.9c-5.1,0-8.8-0.8-11-2.5s-3.3-3.7-3.3-6c0-1.4,0.5-2.8,1.4-3.9
						c0.9-1.2,2.3-2.2,4.3-3c1.1-0.4,4.4-1.4,9.9-2.8c7.9-2.1,13.4-3.9,16.5-5.2c3.1-1.3,5.6-3.3,7.4-5.9c1.8-2.6,2.7-5.7,2.7-9.6
						c0-3.7-1.1-7.2-3.3-10.5c-2.2-3.3-5.3-5.8-9.4-7.6c-4.1-1.8-8.7-2.7-13.9-2.7c-8.6,0-15.1,1.8-19.6,5.3
						S1354.9-515.4,1353.6-508.4z"/>
				</g>
				<g>
					<path id="ArialMT-20_5_" class="st8" d="M1413.3-528.1"/>
				</g>
			</g>
			<g transform="translate(536.764688 439.349531)scale(0.1 -0.1)">
				<g>
					<path id="ArialMT-20_6_" class="st8" d="M468.9-557.3"/>
				</g>
				<g>
					<path id="ArialMT-28_3_" class="st8" d="M534-584.1c-6.2,7.8-11.4,16.9-15.7,27.3c-4.3,10.4-6.4,21.3-6.4,32.4
						c0,9.9,1.6,19.3,4.8,28.3c3.7,10.5,9.5,20.9,17.3,31.3h8c-5-8.6-8.3-14.8-9.9-18.4c-2.5-5.7-4.5-11.7-6-17.9
						c-1.8-7.7-2.7-15.5-2.7-23.4c0-19.9,6.2-39.8,18.6-59.7H534z"/>
				</g>
				<g>
					<path id="ArialMT-31_2_" class="st8" d="M594-557.3h-11.2v71.3c-2.7-2.6-6.2-5.1-10.6-7.7c-4.4-2.6-8.3-4.5-11.8-5.8v10.8
						c6.3,2.9,11.7,6.5,16.4,10.7c4.7,4.2,8,8.3,9.9,12.2h7.2V-557.3z"/>
				</g>
				<g>
					<path id="ArialMT-30_6_" class="st8" d="M622.7-512.4c0,10.8,1.1,19.4,3.3,26c2.2,6.6,5.5,11.6,9.9,15.2
						c4.4,3.6,9.9,5.3,16.5,5.3c4.9,0,9.2-1,12.9-3c3.7-2,6.7-4.8,9.1-8.5c2.4-3.7,4.3-8.2,5.7-13.5c1.4-5.3,2-12.5,2-21.5
						c0-10.7-1.1-19.3-3.3-25.9c-2.2-6.6-5.5-11.6-9.8-15.2c-4.4-3.6-9.9-5.4-16.6-5.4c-8.8,0-15.7,3.1-20.7,9.4
						C625.7-541.8,622.7-529.5,622.7-512.4z M634.2-512.4c0-15,1.7-24.9,5.2-29.9c3.5-4.9,7.8-7.4,12.9-7.4c5.1,0,9.5,2.5,13,7.5
						s5.2,14.9,5.2,29.8c0,15-1.7,25-5.2,29.9c-3.5,4.9-7.9,7.4-13.1,7.4c-5.1,0-9.2-2.2-12.3-6.5
						C636.1-487.2,634.2-497.4,634.2-512.4z"/>
				</g>
				<g>
					<path id="ArialMT-2e_3_" class="st8" d="M699.7-557.3v12.7h12.7v-12.7H699.7z"/>
				</g>
				<g>
					<path id="ArialMT-30_7_" class="st8" d="M728.8-512.4c0,10.8,1.1,19.4,3.3,26c2.2,6.6,5.5,11.6,9.9,15.2
						c4.4,3.6,9.9,5.3,16.5,5.3c4.9,0,9.2-1,12.9-3c3.7-2,6.7-4.8,9.1-8.5c2.4-3.7,4.3-8.2,5.7-13.5c1.4-5.3,2-12.5,2-21.5
						c0-10.7-1.1-19.3-3.3-25.9c-2.2-6.6-5.5-11.6-9.8-15.2c-4.4-3.6-9.9-5.4-16.6-5.4c-8.8,0-15.7,3.1-20.7,9.4
						C731.8-541.8,728.8-529.5,728.8-512.4z M740.3-512.4c0-15,1.7-24.9,5.2-29.9c3.5-4.9,7.8-7.4,12.9-7.4c5.1,0,9.5,2.5,13,7.5
						s5.2,14.9,5.2,29.8c0,15-1.7,25-5.2,29.9c-3.5,4.9-7.9,7.4-13.1,7.4c-5.1,0-9.2-2.2-12.3-6.5
						C742.2-487.2,740.3-497.4,740.3-512.4z"/>
				</g>
				<g>
					<path id="ArialMT-25_3_" class="st8" d="M801.7-488.1c0,6.5,1.6,12,4.9,16.6c3.3,4.6,8,6.8,14.2,6.8c5.7,0,10.5-2,14.2-6.1
						c3.8-4.1,5.6-10.1,5.6-18c0-7.7-1.9-13.6-5.7-17.8c-3.8-4.2-8.5-6.2-14-6.2c-5.5,0-10.1,2-13.8,6.1
						C803.5-502.6,801.7-496.4,801.7-488.1z M821.1-472.4c-2.8,0-5.1-1.2-6.9-3.6c-1.8-2.4-2.8-6.8-2.8-13.2c0-5.8,0.9-10,2.8-12.3
						c1.9-2.4,4.2-3.6,6.9-3.6c2.8,0,5.2,1.2,7,3.6c1.8,2.4,2.8,6.8,2.8,13.2c0,5.9-0.9,10-2.8,12.4
						C826.2-473.6,823.9-472.4,821.1-472.4z M821.2-560.7l49.8,96h9.1l-49.6-96H821.2z M860.6-535.9c0,6.5,1.6,12.1,4.9,16.6
						c3.3,4.5,8,6.8,14.3,6.8c5.7,0,10.4-2,14.2-6.1c3.8-4.1,5.6-10.1,5.6-18c0-7.7-1.9-13.7-5.7-17.8c-3.8-4.2-8.5-6.2-14.1-6.2
						c-5.5,0-10.1,2.1-13.8,6.2C862.4-550.4,860.6-544.2,860.6-535.9z M880.1-520.2c-2.8,0-5.2-1.2-7-3.6c-1.8-2.4-2.8-6.8-2.8-13.2
						c0-5.8,0.9-9.9,2.8-12.3c1.9-2.4,4.2-3.6,6.9-3.6c2.8,0,5.2,1.2,7,3.6c1.8,2.4,2.8,6.8,2.8,13.2c0,5.9-0.9,10-2.8,12.4
						C885.2-521.4,882.9-520.2,880.1-520.2z"/>
				</g>
				<g>
					<path id="ArialMT-29_3_" class="st8" d="M923.2-584.1h-8c12.4,19.9,18.6,39.8,18.6,59.7c0,7.8-0.9,15.5-2.7,23.2
						c-1.4,6.2-3.4,12.2-5.9,17.9c-1.6,3.7-5,9.9-10,18.6h8c7.8-10.4,13.5-20.8,17.3-31.3c3.2-9,4.8-18.5,4.8-28.3
						c0-11.2-2.1-22-6.4-32.4C934.5-567.2,929.3-576.3,923.2-584.1z"/>
				</g>
			</g>
		</g>
		<g id="text_5">
			<g transform="translate(759.734062 428.626406)scale(0.1 -0.1)">
				<g>
					<path id="ArialMT-48" class="st8" d="M1086.5-528.1v91.1h12v-37.4h47.3v37.4h12v-91.1h-12v42.9h-47.3v-42.9H1086.5z"/>
				</g>
				<g>
					<path id="ArialMT-61_5_" class="st8" d="M1219.6-520c-4.1-3.5-8.1-6-12-7.5c-3.8-1.4-7.9-2.2-12.3-2.2
						c-7.3,0-12.8,1.8-16.7,5.3c-3.9,3.5-5.8,8.1-5.8,13.6c0,3.2,0.7,6.2,2.2,8.8c1.5,2.7,3.4,4.8,5.8,6.4s5.1,2.8,8.1,3.7
						c2.2,0.6,5.5,1.1,9.9,1.7c9,1.1,15.7,2.4,19.9,3.8c0,1.5,0.1,2.5,0.1,2.9c0,4.6-1.1,7.8-3.2,9.6c-2.8,2.5-7.1,3.8-12.7,3.8
						c-5.3,0-9.1-0.9-11.7-2.8c-2.5-1.8-4.4-5.1-5.6-9.8l-10.9,1.5c1,4.7,2.6,8.5,4.9,11.3c2.3,2.9,5.6,5.1,9.9,6.6
						c4.3,1.6,9.3,2.3,15,2.3c5.6,0,10.2-0.7,13.7-2c3.5-1.3,6.1-3,7.8-5c1.7-2,2.8-4.5,3.5-7.6c0.4-1.9,0.6-5.3,0.6-10.3v-14.9
						c0-10.4,0.2-17,0.7-19.7c0.5-2.7,1.4-5.4,2.8-7.9h-11.7C1220.7-525.8,1220-523.1,1219.6-520z M1218.7-495
						c-4.1-1.7-10.2-3.1-18.3-4.2c-4.6-0.7-7.9-1.4-9.8-2.2c-1.9-0.8-3.4-2-4.4-3.6c-1-1.6-1.6-3.4-1.6-5.3c0-3,1.1-5.5,3.4-7.5
						c2.3-2,5.6-3,9.9-3c4.3,0,8.1,0.9,11.5,2.8c3.4,1.9,5.8,4.5,7.4,7.7c1.2,2.5,1.8,6.3,1.8,11.2V-495z"/>
				</g>
				<g>
					<path id="ArialMT-6d_3_" class="st8" d="M1247.3-528.1v66h10v-9.3c2.1,3.2,4.8,5.8,8.3,7.8c3.4,2,7.4,3,11.7,3
						c4.9,0,8.9-1,12-3c3.1-2,5.3-4.9,6.6-8.5c5.2,7.7,12,11.6,20.4,11.6c6.5,0,11.6-1.8,15.1-5.4c3.5-3.6,5.3-9.2,5.3-16.7v-45.3
						h-11.1v41.6c0,4.5-0.4,7.7-1.1,9.6c-0.7,2-2,3.6-3.9,4.8c-1.9,1.2-4.1,1.8-6.7,1.8c-4.6,0-8.5-1.5-11.6-4.6
						c-3.1-3.1-4.6-8-4.6-14.8v-38.3h-11.2v42.9c0,5-0.9,8.7-2.7,11.2c-1.8,2.5-4.8,3.7-8.9,3.7c-3.1,0-6.1-0.8-8.7-2.5
						c-2.7-1.7-4.6-4.1-5.8-7.3c-1.2-3.2-1.8-7.8-1.8-13.8v-34.2H1247.3z"/>
				</g>
				<g>
					<path id="ArialMT-62_1_" class="st8" d="M1363.7-528.1h-10.4v91.1h11.2v-32.5c4.7,5.9,10.8,8.9,18.1,8.9
						c4.1,0,7.9-0.8,11.5-2.5c3.6-1.6,6.6-3.9,8.9-6.9c2.3-3,4.2-6.5,5.5-10.7c1.3-4.2,2-8.6,2-13.4c0-11.3-2.8-20-8.4-26.2
						c-5.6-6.2-12.3-9.2-20.1-9.2c-7.8,0-13.9,3.3-18.3,9.8V-528.1z M1363.5-494.6c0-7.9,1.1-13.6,3.2-17.1
						c3.5-5.8,8.3-8.6,14.3-8.6c4.9,0,9.1,2.1,12.7,6.4c3.6,4.2,5.3,10.6,5.3,19c0,8.6-1.7,15-5.1,19.1c-3.4,4.1-7.5,6.1-12.4,6.1
						c-4.9,0-9.1-2.1-12.7-6.4C1365.3-480.4,1363.5-486.6,1363.5-494.6z"/>
				</g>
				<g>
					<path id="ArialMT-72_1_" class="st8" d="M1424-528.1v66h10.1v-10c2.6,4.7,4.9,7.8,7.1,9.2c2.2,1.5,4.6,2.2,7.2,2.2
						c3.8,0,7.6-1.2,11.5-3.6l-3.9-10.4c-2.7,1.6-5.5,2.4-8.2,2.4c-2.5,0-4.7-0.7-6.6-2.2s-3.3-3.5-4.2-6.1c-1.2-4-1.9-8.3-1.9-13
						v-34.6H1424z"/>
				</g>
				<g>
					<path id="ArialMT-65_4_" class="st8" d="M1511.6-506.8l11.6-1.4c-1.8-6.7-5.2-12-10.1-15.7c-4.9-3.7-11.2-5.6-18.9-5.6
						c-9.6,0-17.3,3-23,8.9c-5.7,6-8.5,14.3-8.5,25c0,11.1,2.9,19.7,8.6,25.8c5.7,6.1,13.1,9.2,22.2,9.2c8.8,0,16-3,21.6-9
						s8.4-14.5,8.4-25.3c0-0.7,0-1.7-0.1-3h-49.2c0.4-7.3,2.5-12.8,6.1-16.7c3.7-3.8,8.3-5.8,13.8-5.8c4.1,0,7.6,1.1,10.5,3.2
						C1507.6-515,1509.9-511.6,1511.6-506.8z M1474.9-488.8h36.8c-0.5,5.6-1.9,9.7-4.2,12.5c-3.6,4.3-8.2,6.5-13.9,6.5
						c-5.1,0-9.5-1.7-13-5.1S1475.3-483,1474.9-488.8z"/>
				</g>
				<g>
					<path id="ArialMT-20_7_" class="st8" d="M1528.8-528.1"/>
				</g>
				<g>
					<path id="ArialMT-63_3_" class="st8" d="M1615.7-503.9l11-1.4c-1.2-7.6-4.3-13.5-9.2-17.8c-4.9-4.3-11-6.4-18.2-6.4
						c-9,0-16.3,2.9-21.8,8.8c-5.5,5.9-8.2,14.4-8.2,25.4c0,7.1,1.2,13.3,3.5,18.7c2.4,5.4,6,9.4,10.8,12c4.8,2.7,10.1,4,15.8,4
						c7.2,0,13-1.8,17.6-5.4c4.6-3.6,7.5-8.8,8.8-15.4l-10.9-1.7c-1,4.4-2.9,7.8-5.5,10c-2.6,2.2-5.8,3.4-9.5,3.4
						c-5.6,0-10.2-2-13.7-6.1c-3.5-4-5.3-10.4-5.3-19.1c0-8.9,1.7-15.3,5.1-19.3c3.4-4,7.8-6,13.3-6c4.4,0,8.1,1.3,11,4
						C1613-513.7,1614.9-509.5,1615.7-503.9z"/>
				</g>
				<g>
					<path id="ArialMT-65_5_" class="st8" d="M1681.4-506.8l11.6-1.4c-1.8-6.7-5.2-12-10.1-15.7c-4.9-3.7-11.2-5.6-18.9-5.6
						c-9.6,0-17.3,3-23,8.9c-5.7,6-8.5,14.3-8.5,25c0,11.1,2.9,19.7,8.6,25.8c5.7,6.1,13.1,9.2,22.2,9.2c8.8,0,16-3,21.6-9
						s8.4-14.5,8.4-25.3c0-0.7,0-1.7-0.1-3H1644c0.4-7.3,2.5-12.8,6.1-16.7c3.7-3.8,8.3-5.8,13.8-5.8c4.1,0,7.6,1.1,10.5,3.2
						C1677.4-515,1679.7-511.6,1681.4-506.8z M1644.7-488.8h36.8c-0.5,5.6-1.9,9.7-4.2,12.5c-3.6,4.3-8.2,6.5-13.9,6.5
						c-5.1,0-9.5-1.7-13-5.1C1647-478.4,1645-483,1644.7-488.8z"/>
				</g>
				<g>
					<path id="ArialMT-72_2_" class="st8" d="M1706.9-528.1v66h10.1v-10c2.6,4.7,4.9,7.8,7.1,9.2c2.2,1.5,4.6,2.2,7.2,2.2
						c3.8,0,7.6-1.2,11.5-3.6l-3.9-10.4c-2.7,1.6-5.5,2.4-8.2,2.4c-2.5,0-4.7-0.7-6.6-2.2s-3.3-3.5-4.2-6.1c-1.2-4-1.9-8.3-1.9-13
						v-34.6H1706.9z"/>
				</g>
				<g>
					<path id="ArialMT-6f_1_" class="st8" d="M1745.2-495.1c0,12.2,3.4,21.3,10.2,27.2c5.7,4.9,12.6,7.3,20.8,7.3
						c9.1,0,16.5-3,22.2-8.9c5.8-5.9,8.6-14.1,8.6-24.6c0-8.5-1.3-15.2-3.8-20c-2.5-4.9-6.3-8.6-11.1-11.3c-4.9-2.7-10.2-4-15.9-4
						c-9.2,0-16.7,3-22.4,8.9C1748-514.8,1745.2-506.3,1745.2-495.1z M1756.7-495.1c0-8.4,1.8-14.8,5.5-19c3.7-4.2,8.3-6.3,13.9-6.3
						c5.6,0,10.2,2.1,13.9,6.3c3.7,4.2,5.5,10.7,5.5,19.3c0,8.2-1.9,14.3-5.6,18.5s-8.3,6.3-13.8,6.3c-5.6,0-10.2-2.1-13.9-6.3
						C1758.5-480.3,1756.7-486.7,1756.7-495.1z"/>
				</g>
				<g>
					<path id="ArialMT-20_8_" class="st8" d="M1811.7-528.1"/>
				</g>
			</g>
			<g transform="translate(771.124687 439.349531)scale(0.1 -0.1)">
				<g>
					<path id="ArialMT-20_9_" class="st8" d="M1107.3-557.3"/>
				</g>
				<g>
					<path id="ArialMT-28_4_" class="st8" d="M1172.4-584.1c-6.2,7.8-11.4,16.9-15.7,27.3c-4.3,10.4-6.4,21.3-6.4,32.4
						c0,9.9,1.6,19.3,4.8,28.3c3.7,10.5,9.5,20.9,17.3,31.3h8c-5-8.6-8.3-14.8-9.9-18.4c-2.5-5.7-4.5-11.7-6-17.9
						c-1.8-7.7-2.7-15.5-2.7-23.4c0-19.9,6.2-39.8,18.6-59.7H1172.4z"/>
				</g>
				<g>
					<path id="ArialMT-31_3_" class="st8" d="M1232.4-557.3h-11.2v71.3c-2.7-2.6-6.2-5.1-10.6-7.7c-4.4-2.6-8.3-4.5-11.8-5.8v10.8
						c6.3,2.9,11.7,6.5,16.4,10.7c4.7,4.2,8,8.3,9.9,12.2h7.2V-557.3z"/>
				</g>
				<g>
					<path id="ArialMT-30_8_" class="st8" d="M1261.1-512.4c0,10.8,1.1,19.4,3.3,26c2.2,6.6,5.5,11.6,9.9,15.2
						c4.4,3.6,9.9,5.3,16.5,5.3c4.9,0,9.2-1,12.9-3c3.7-2,6.7-4.8,9.1-8.5c2.4-3.7,4.3-8.2,5.7-13.5c1.4-5.3,2-12.5,2-21.5
						c0-10.7-1.1-19.3-3.3-25.9c-2.2-6.6-5.5-11.6-9.8-15.2c-4.4-3.6-9.9-5.4-16.6-5.4c-8.8,0-15.7,3.1-20.7,9.4
						C1264.1-541.8,1261.1-529.5,1261.1-512.4z M1272.6-512.4c0-15,1.7-24.9,5.2-29.9c3.5-4.9,7.8-7.4,12.9-7.4
						c5.1,0,9.5,2.5,13,7.5c3.5,5,5.2,14.9,5.2,29.8c0,15-1.7,25-5.2,29.9c-3.5,4.9-7.9,7.4-13.1,7.4c-5.1,0-9.2-2.2-12.3-6.5
						C1274.5-487.2,1272.6-497.4,1272.6-512.4z"/>
				</g>
				<g>
					<path id="ArialMT-2e_4_" class="st8" d="M1338.1-557.3v12.7h12.7v-12.7H1338.1z"/>
				</g>
				<g>
					<path id="ArialMT-30_9_" class="st8" d="M1367.2-512.4c0,10.8,1.1,19.4,3.3,26c2.2,6.6,5.5,11.6,9.9,15.2
						c4.4,3.6,9.9,5.3,16.5,5.3c4.9,0,9.2-1,12.9-3c3.7-2,6.7-4.8,9.1-8.5c2.4-3.7,4.3-8.2,5.7-13.5c1.4-5.3,2-12.5,2-21.5
						c0-10.7-1.1-19.3-3.3-25.9c-2.2-6.6-5.5-11.6-9.8-15.2c-4.4-3.6-9.9-5.4-16.6-5.4c-8.8,0-15.7,3.1-20.7,9.4
						C1370.2-541.8,1367.2-529.5,1367.2-512.4z M1378.7-512.4c0-15,1.7-24.9,5.2-29.9c3.5-4.9,7.8-7.4,12.9-7.4
						c5.1,0,9.5,2.5,13,7.5s5.2,14.9,5.2,29.8c0,15-1.7,25-5.2,29.9c-3.5,4.9-7.9,7.4-13.1,7.4c-5.1,0-9.2-2.2-12.3-6.5
						C1380.6-487.2,1378.7-497.4,1378.7-512.4z"/>
				</g>
				<g>
					<path id="ArialMT-25_4_" class="st8" d="M1440.1-488.1c0,6.5,1.6,12,4.9,16.6c3.3,4.6,8,6.8,14.2,6.8c5.7,0,10.5-2,14.2-6.1
						c3.8-4.1,5.6-10.1,5.6-18c0-7.7-1.9-13.6-5.7-17.8c-3.8-4.2-8.5-6.2-14-6.2c-5.5,0-10.1,2-13.8,6.1
						C1441.9-502.6,1440.1-496.4,1440.1-488.1z M1459.5-472.4c-2.8,0-5.1-1.2-6.9-3.6c-1.8-2.4-2.8-6.8-2.8-13.2
						c0-5.8,0.9-10,2.8-12.3c1.9-2.4,4.2-3.6,6.9-3.6c2.8,0,5.2,1.2,7,3.6c1.8,2.4,2.8,6.8,2.8,13.2c0,5.9-0.9,10-2.8,12.4
						C1464.6-473.6,1462.3-472.4,1459.5-472.4z M1459.6-560.7l49.8,96h9.1l-49.6-96H1459.6z M1499-535.9c0,6.5,1.6,12.1,4.9,16.6
						c3.3,4.5,8,6.8,14.3,6.8c5.7,0,10.4-2,14.2-6.1c3.8-4.1,5.6-10.1,5.6-18c0-7.7-1.9-13.7-5.7-17.8c-3.8-4.2-8.5-6.2-14.1-6.2
						c-5.5,0-10.1,2.1-13.8,6.2C1500.8-550.4,1499-544.2,1499-535.9z M1518.5-520.2c-2.8,0-5.2-1.2-7-3.6c-1.8-2.4-2.8-6.8-2.8-13.2
						c0-5.8,0.9-9.9,2.8-12.3c1.9-2.4,4.2-3.6,6.9-3.6c2.8,0,5.2,1.2,7,3.6c1.8,2.4,2.8,6.8,2.8,13.2c0,5.9-0.9,10-2.8,12.4
						C1523.6-521.4,1521.3-520.2,1518.5-520.2z"/>
				</g>
				<g>
					<path id="ArialMT-29_4_" class="st8" d="M1561.6-584.1h-8c12.4,19.9,18.6,39.8,18.6,59.7c0,7.8-0.9,15.5-2.7,23.2
						c-1.4,6.2-3.4,12.2-5.9,17.9c-1.6,3.7-5,9.9-10,18.6h8c7.8-10.4,13.5-20.8,17.3-31.3c3.2-9,4.8-18.5,4.8-28.3
						c0-11.2-2.1-22-6.4-32.4C1572.9-567.2,1567.7-576.3,1561.6-584.1z"/>
				</g>
			</g>
		</g>
		<g id="text_6">
			<g transform="translate(497.978125 247.426406)scale(0.1 -0.1)">
				<g>
					<path id="ArialMT-50" class="st8" d="M373.1-34.5v91.1h34.4c6,0,10.7-0.3,13.9-0.9c4.5-0.8,8.2-2.2,11.2-4.3
						c3-2.1,5.5-5,7.3-8.8c1.8-3.8,2.8-7.9,2.8-12.4c0-7.7-2.5-14.3-7.4-19.7c-4.9-5.4-13.8-8-26.7-8h-23.4v-37H373.1z M385.1,13.3
						h23.5c7.8,0,13.3,1.5,16.6,4.4c3.3,2.9,4.9,7,4.9,12.2c0,3.8-1,7.1-2.9,9.8c-1.9,2.7-4.5,4.5-7.6,5.4c-2,0.5-5.8,0.8-11.3,0.8
						h-23.3V13.3z"/>
				</g>
				<g>
					<path id="ArialMT-6f_2_" class="st8" d="M452.4-1.5c0,12.2,3.4,21.3,10.2,27.2c5.7,4.9,12.6,7.3,20.8,7.3
						c9.1,0,16.5-3,22.2-8.9c5.8-5.9,8.6-14.1,8.6-24.6c0-8.5-1.3-15.2-3.8-20c-2.5-4.9-6.3-8.6-11.1-11.3c-4.9-2.7-10.2-4-15.9-4
						c-9.2,0-16.7,3-22.4,8.9C455.2-21.2,452.4-12.7,452.4-1.5z M463.9-1.5c0-8.4,1.8-14.8,5.5-19s8.3-6.3,13.9-6.3
						c5.6,0,10.2,2.1,13.9,6.3c3.7,4.2,5.5,10.7,5.5,19.3c0,8.2-1.9,14.3-5.6,18.5c-3.7,4.2-8.3,6.3-13.8,6.3
						c-5.6,0-10.2-2.1-13.9-6.3C465.7,13.2,463.9,6.9,463.9-1.5z"/>
				</g>
				<g>
					<path id="ArialMT-62_2_" class="st8" d="M537.6-34.5h-10.4v91.1h11.2V24.1c4.7,5.9,10.8,8.9,18.1,8.9c4.1,0,7.9-0.8,11.5-2.5
						c3.6-1.6,6.6-3.9,8.9-6.9c2.3-3,4.2-6.5,5.5-10.7c1.3-4.2,2-8.6,2-13.4c0-11.3-2.8-20-8.4-26.2c-5.6-6.2-12.3-9.2-20.1-9.2
						c-7.8,0-13.9,3.3-18.3,9.8V-34.5z M537.5-1c0-7.9,1.1-13.6,3.2-17.1c3.5-5.8,8.3-8.6,14.3-8.6c4.9,0,9.1,2.1,12.7,6.4
						s5.3,10.6,5.3,19c0,8.6-1.7,15-5.1,19.1c-3.4,4.1-7.5,6.1-12.4,6.1c-4.9,0-9.1-2.1-12.7-6.4S537.5,7,537.5-1z"/>
				</g>
				<g>
					<path id="ArialMT-72_3_" class="st8" d="M597.9-34.5v66H608v-10c2.6,4.7,4.9,7.8,7.1,9.2c2.2,1.5,4.6,2.2,7.2,2.2
						c3.8,0,7.6-1.2,11.5-3.6L629.9,19c-2.7,1.6-5.5,2.4-8.2,2.4c-2.5,0-4.7-0.7-6.6-2.2c-1.9-1.5-3.3-3.5-4.2-6.1
						c-1.2-4-1.9-8.3-1.9-13v-34.6H597.9z"/>
				</g>
				<g>
					<path id="ArialMT-65_6_" class="st8" d="M685.6-13.3l11.6-1.4c-1.8-6.7-5.2-12-10.1-15.7c-4.9-3.7-11.2-5.6-18.9-5.6
						c-9.6,0-17.3,3-23,8.9c-5.7,6-8.5,14.3-8.5,25c0,11.1,2.9,19.7,8.6,25.8c5.7,6.1,13.1,9.2,22.2,9.2c8.8,0,16-3,21.6-9
						s8.4-14.5,8.4-25.3c0-0.7,0-1.7-0.1-3h-49.2c0.4-7.3,2.5-12.8,6.1-16.7c3.7-3.8,8.3-5.8,13.8-5.8c4.1,0,7.6,1.1,10.5,3.2
						C681.6-21.4,683.9-18,685.6-13.3z M648.9,4.8h36.8c-0.5,5.6-1.9,9.7-4.2,12.5c-3.6,4.3-8.2,6.5-13.9,6.5c-5.1,0-9.5-1.7-13-5.1
						C651.2,15.2,649.3,10.6,648.9,4.8z"/>
				</g>
				<g>
					<path id="ArialMT-7a" class="st8" d="M705.3-34.5v9.1l42,48.2c-4.8-0.2-9-0.4-12.6-0.4h-26.9v9.1h53.9v-7.4L726-17.8l-6.9-7.7
						c5,0.4,9.7,0.6,14.1,0.6h30.5v-9.6H705.3z"/>
				</g>
				<g>
					<path id="ArialMT-61_6_" class="st8" d="M817.9-26.4c-4.1-3.5-8.1-6-12-7.5c-3.8-1.4-7.9-2.2-12.3-2.2
						c-7.3,0-12.8,1.8-16.7,5.3s-5.8,8.1-5.8,13.6c0,3.2,0.7,6.2,2.2,8.8c1.5,2.7,3.4,4.8,5.8,6.4s5.1,2.8,8.1,3.7
						c2.2,0.6,5.5,1.1,9.9,1.7c9,1.1,15.7,2.4,19.9,3.8c0,1.5,0.1,2.5,0.1,2.9c0,4.6-1.1,7.8-3.2,9.6c-2.8,2.5-7.1,3.8-12.7,3.8
						c-5.3,0-9.1-0.9-11.7-2.8c-2.5-1.8-4.4-5.1-5.6-9.8l-10.9,1.5c1,4.7,2.6,8.5,4.9,11.3s5.6,5.1,9.9,6.6c4.3,1.6,9.3,2.3,15,2.3
						c5.6,0,10.2-0.7,13.7-2c3.5-1.3,6.1-3,7.8-5c1.7-2,2.8-4.5,3.5-7.6c0.4-1.9,0.6-5.3,0.6-10.3V-6.9c0-10.4,0.2-17,0.7-19.7
						c0.5-2.7,1.4-5.4,2.8-7.9h-11.7C819-32.2,818.2-29.5,817.9-26.4z M816.9-1.4c-4.1-1.7-10.2-3.1-18.3-4.2
						c-4.6-0.7-7.9-1.4-9.8-2.2c-1.9-0.8-3.4-2-4.4-3.6c-1-1.6-1.6-3.4-1.6-5.3c0-3,1.1-5.5,3.4-7.5c2.3-2,5.6-3,9.9-3
						c4.3,0,8.1,0.9,11.5,2.8c3.4,1.9,5.8,4.5,7.4,7.7c1.2,2.5,1.8,6.3,1.8,11.2V-1.4z"/>
				</g>
			</g>
			<g transform="translate(497.704688 258.149531)scale(0.1 -0.1)">
				<g>
					<path id="ArialMT-20_10_" class="st8" d="M362.5-63.7"/>
				</g>
				<g>
					<path id="ArialMT-28_5_" class="st8" d="M427.6-90.5c-6.2,7.8-11.4,16.9-15.7,27.3c-4.3,10.4-6.4,21.3-6.4,32.4
						c0,9.9,1.6,19.3,4.8,28.3c3.7,10.5,9.5,20.9,17.3,31.3h8c-5-8.6-8.3-14.8-9.9-18.4c-2.5-5.7-4.5-11.7-6-17.9
						c-1.8-7.7-2.7-15.5-2.7-23.4c0-19.9,6.2-39.8,18.6-59.7H427.6z"/>
				</g>
				<g>
					<path id="ArialMT-31_4_" class="st8" d="M487.6-63.7h-11.2V7.5c-2.7-2.6-6.2-5.1-10.6-7.7s-8.3-4.5-11.8-5.8V4.9
						c6.3,2.9,11.7,6.5,16.4,10.7c4.7,4.2,8,8.3,9.9,12.2h7.2V-63.7z"/>
				</g>
				<g>
					<path id="ArialMT-30_10_" class="st8" d="M516.3-18.8c0,10.8,1.1,19.4,3.3,26c2.2,6.6,5.5,11.6,9.9,15.2
						c4.4,3.6,9.9,5.3,16.5,5.3c4.9,0,9.2-1,12.9-3c3.7-2,6.7-4.8,9.1-8.5c2.4-3.7,4.3-8.2,5.7-13.5c1.4-5.3,2-12.5,2-21.5
						c0-10.7-1.1-19.3-3.3-25.9c-2.2-6.6-5.5-11.6-9.8-15.2c-4.4-3.6-9.9-5.4-16.6-5.4c-8.8,0-15.7,3.1-20.7,9.4
						C519.3-48.2,516.3-35.9,516.3-18.8z M527.8-18.8c0-15,1.7-24.9,5.2-29.9c3.5-4.9,7.8-7.4,12.9-7.4c5.1,0,9.5,2.5,13,7.5
						s5.2,14.9,5.2,29.8c0,15-1.7,25-5.2,29.9c-3.5,4.9-7.9,7.4-13.1,7.4c-5.1,0-9.2-2.2-12.3-6.5C529.7,6.4,527.8-3.8,527.8-18.8z"
						/>
				</g>
				<g>
					<path id="ArialMT-2e_5_" class="st8" d="M593.3-63.7V-51h12.7v-12.7H593.3z"/>
				</g>
				<g>
					<path id="ArialMT-30_11_" class="st8" d="M622.4-18.8c0,10.8,1.1,19.4,3.3,26c2.2,6.6,5.5,11.6,9.9,15.2
						c4.4,3.6,9.9,5.3,16.5,5.3c4.9,0,9.2-1,12.9-3c3.7-2,6.7-4.8,9.1-8.5c2.4-3.7,4.3-8.2,5.7-13.5c1.4-5.3,2-12.5,2-21.5
						c0-10.7-1.1-19.3-3.3-25.9c-2.2-6.6-5.5-11.6-9.8-15.2c-4.4-3.6-9.9-5.4-16.6-5.4c-8.8,0-15.7,3.1-20.7,9.4
						C625.4-48.2,622.4-35.9,622.4-18.8z M633.9-18.8c0-15,1.7-24.9,5.2-29.9c3.5-4.9,7.8-7.4,12.9-7.4c5.1,0,9.5,2.5,13,7.5
						c3.5,5,5.2,14.9,5.2,29.8c0,15-1.7,25-5.2,29.9c-3.5,4.9-7.9,7.4-13.1,7.4c-5.1,0-9.2-2.2-12.3-6.5
						C635.8,6.4,633.9-3.8,633.9-18.8z"/>
				</g>
				<g>
					<path id="ArialMT-25_5_" class="st8" d="M695.3,5.5c0,6.5,1.6,12,4.9,16.6c3.3,4.6,8,6.8,14.2,6.8c5.7,0,10.5-2,14.2-6.1
						c3.8-4.1,5.6-10.1,5.6-18c0-7.7-1.9-13.6-5.7-17.8c-3.8-4.2-8.5-6.2-14-6.2c-5.5,0-10.1,2-13.8,6.1
						C697.1-9,695.3-2.8,695.3,5.5z M714.7,21.2c-2.8,0-5.1-1.2-6.9-3.6c-1.8-2.4-2.8-6.8-2.8-13.2c0-5.8,0.9-10,2.8-12.3
						c1.9-2.4,4.2-3.6,6.9-3.6c2.8,0,5.2,1.2,7,3.6c1.8,2.4,2.8,6.8,2.8,13.2c0,5.9-0.9,10-2.8,12.4C719.8,20,717.5,21.2,714.7,21.2
						z M714.8-67.1l49.8,96h9.1l-49.6-96H714.8z M754.2-42.3c0,6.5,1.6,12.1,4.9,16.6c3.3,4.5,8,6.8,14.3,6.8c5.7,0,10.4-2,14.2-6.1
						c3.8-4.1,5.6-10.1,5.6-18c0-7.7-1.9-13.7-5.7-17.8s-8.5-6.2-14.1-6.2c-5.5,0-10.1,2.1-13.8,6.2C756-56.8,754.2-50.6,754.2-42.3
						z M773.7-26.6c-2.8,0-5.2-1.2-7-3.6c-1.8-2.4-2.8-6.8-2.8-13.2c0-5.8,0.9-9.9,2.8-12.3c1.9-2.4,4.2-3.6,6.9-3.6
						c2.8,0,5.2,1.2,7,3.6c1.8,2.4,2.8,6.8,2.8,13.2c0,5.9-0.9,10-2.8,12.4C778.8-27.8,776.5-26.6,773.7-26.6z"/>
				</g>
				<g>
					<path id="ArialMT-29_5_" class="st8" d="M816.8-90.5h-8c12.4,19.9,18.6,39.8,18.6,59.7c0,7.8-0.9,15.5-2.7,23.2
						c-1.4,6.2-3.4,12.2-5.9,17.9c-1.6,3.7-5,9.9-10,18.6h8c7.8-10.4,13.5-20.8,17.3-31.3c3.2-9,4.8-18.5,4.8-28.3
						c0-11.2-2.1-22-6.4-32.4C828.1-73.6,822.9-82.7,816.8-90.5z"/>
				</g>
			</g>
		</g>
		<g id="text_7">
			<g transform="translate(738.1725 247.426406)scale(0.1 -0.1)">
				<g>
					<path id="ArialMT-53" class="st8" d="M1023.3-5.2l11.4,1c0.5-4.6,1.8-8.3,3.8-11.2c2-2.9,5-5.3,9.2-7.1c4.1-1.8,8.8-2.7,14-2.7
						c4.6,0,8.6,0.7,12.2,2c3.5,1.4,6.1,3.2,7.9,5.6c1.7,2.4,2.6,5,2.6,7.8c0,2.8-0.8,5.3-2.5,7.5s-4.4,3.9-8.2,5.4
						c-2.5,1-7.9,2.4-16.2,4.4c-8.4,2-14.2,3.9-17.6,5.7c-4.4,2.3-7.6,5.1-9.7,8.5c-2.1,3.4-3.2,7.2-3.2,11.4
						c0,4.6,1.3,8.9,3.9,12.9c2.6,4,6.4,7,11.4,9.1c5,2.1,10.6,3.1,16.7,3.1c6.7,0,12.7-1.1,17.9-3.3c5.2-2.2,9.1-5.4,11.9-9.6
						c2.8-4.2,4.3-9,4.5-14.3l-11.6-0.9c-0.6,5.8-2.7,10.1-6.3,13c-3.6,2.9-8.9,4.4-15.9,4.4c-7.3,0-12.6-1.3-15.9-4
						c-3.3-2.7-5-5.9-5-9.6c0-3.3,1.2-6,3.5-8.1c2.3-2.1,8.4-4.3,18.2-6.5c9.8-2.2,16.5-4.1,20.2-5.8c5.3-2.5,9.2-5.6,11.7-9.3
						c2.5-3.7,3.8-8.1,3.8-12.9c0-4.9-1.4-9.4-4.2-13.7c-2.8-4.3-6.8-7.6-12-10c-5.2-2.4-11-3.6-17.5-3.6c-8.2,0-15.2,1.2-20.7,3.6
						c-5.6,2.4-9.9,6-13.1,10.8C1025.1-16.8,1023.5-11.3,1023.3-5.2z"/>
				</g>
				<g>
					<path id="ArialMT-61_7_" class="st8" d="M1153.9-26.4c-4.1-3.5-8.1-6-12-7.5c-3.8-1.4-7.9-2.2-12.3-2.2
						c-7.3,0-12.8,1.8-16.7,5.3s-5.8,8.1-5.8,13.6c0,3.2,0.7,6.2,2.2,8.8c1.5,2.7,3.4,4.8,5.8,6.4s5.1,2.8,8.1,3.7
						c2.2,0.6,5.5,1.1,9.9,1.7c9,1.1,15.7,2.4,19.9,3.8c0,1.5,0.1,2.5,0.1,2.9c0,4.6-1.1,7.8-3.2,9.6c-2.8,2.5-7.1,3.8-12.7,3.8
						c-5.3,0-9.1-0.9-11.7-2.8c-2.5-1.8-4.4-5.1-5.6-9.8l-10.9,1.5c1,4.7,2.6,8.5,4.9,11.3c2.3,2.9,5.6,5.1,9.9,6.6
						c4.3,1.6,9.3,2.3,15,2.3c5.6,0,10.2-0.7,13.7-2c3.5-1.3,6.1-3,7.8-5c1.7-2,2.8-4.5,3.5-7.6c0.4-1.9,0.6-5.3,0.6-10.3V-6.9
						c0-10.4,0.2-17,0.7-19.7c0.5-2.7,1.4-5.4,2.8-7.9h-11.7C1155-32.2,1154.2-29.5,1153.9-26.4z M1153-1.4
						c-4.1-1.7-10.2-3.1-18.3-4.2c-4.6-0.7-7.9-1.4-9.8-2.2c-1.9-0.8-3.4-2-4.4-3.6c-1-1.6-1.6-3.4-1.6-5.3c0-3,1.1-5.5,3.4-7.5
						c2.3-2,5.6-3,9.9-3c4.3,0,8.1,0.9,11.5,2.8c3.4,1.9,5.8,4.5,7.4,7.7c1.2,2.5,1.8,6.3,1.8,11.2V-1.4z"/>
				</g>
				<g>
					<path id="ArialMT-6c_3_" class="st8" d="M1181.3-34.5v91.1h11.2v-91.1H1181.3z"/>
				</g>
				<g>
					<path id="ArialMT-75_2_" class="st8" d="M1253.1-34.5v9.7C1248-32.3,1241-36,1232.2-36c-3.9,0-7.5,0.7-10.9,2.2
						c-3.4,1.5-5.9,3.4-7.5,5.6c-1.6,2.3-2.8,5-3.4,8.3c-0.5,2.2-0.7,5.7-0.7,10.4v40.9h11.2V-5.1c0-5.8,0.2-9.8,0.7-11.8
						c0.7-2.9,2.2-5.2,4.5-6.9c2.3-1.7,5.1-2.5,8.4-2.5c3.4,0,6.5,0.9,9.4,2.6c2.9,1.7,5,4.1,6.2,7c1.2,3,1.8,7.3,1.8,12.9v35.3
						h11.2v-66H1253.1z"/>
				</g>
				<g>
					<path id="ArialMT-64_1_" class="st8" d="M1323.4-34.5v8.3c-4.2-6.5-10.3-9.8-18.4-9.8c-5.3,0-10.1,1.5-14.5,4.4
						c-4.4,2.9-7.8,7-10.3,12.1c-2.4,5.2-3.6,11.2-3.6,17.9c0,6.6,1.1,12.6,3.3,17.9c2.2,5.4,5.5,9.5,9.9,12.3
						c4.4,2.9,9.3,4.3,14.7,4.3c4,0,7.5-0.8,10.6-2.5c3.1-1.7,5.6-3.9,7.6-6.5v32.7h11.1v-91.1H1323.4z M1288.1-1.6
						c0-8.4,1.8-14.8,5.3-18.9c3.6-4.2,7.8-6.3,12.6-6.3c4.9,0,9,2,12.4,6c3.4,4,5.1,10.1,5.1,18.3c0,9-1.7,15.7-5.2,19.9
						c-3.5,4.2-7.8,6.3-12.8,6.3c-5,0-9.1-2-12.5-6.1C1289.7,13.6,1288.1,7.2,1288.1-1.6z"/>
				</g>
			</g>
			<g transform="translate(732.064687 258.149531)scale(0.1 -0.1)">
				<g>
					<path id="ArialMT-20_11_" class="st8" d="M1000.9-63.7"/>
				</g>
				<g>
					<path id="ArialMT-28_6_" class="st8" d="M1066-90.5c-6.2,7.8-11.4,16.9-15.7,27.3c-4.3,10.4-6.4,21.3-6.4,32.4
						c0,9.9,1.6,19.3,4.8,28.3c3.7,10.5,9.5,20.9,17.3,31.3h8c-5-8.6-8.3-14.8-9.9-18.4c-2.5-5.7-4.5-11.7-6-17.9
						c-1.8-7.7-2.7-15.5-2.7-23.4c0-19.9,6.2-39.8,18.6-59.7H1066z"/>
				</g>
				<g>
					<path id="ArialMT-32_1_" class="st8" d="M1142.7-53v-10.8h-60.2c-0.1,2.7,0.4,5.3,1.3,7.8c1.5,4.1,4,8.1,7.4,12.1
						c3.4,4,8.3,8.6,14.7,13.8c9.9,8.1,16.6,14.5,20.1,19.3c3.5,4.7,5.2,9.2,5.2,13.5c0,4.4-1.6,8.2-4.8,11.2
						c-3.2,3-7.3,4.6-12.4,4.6c-5.4,0-9.7-1.6-12.9-4.9c-3.2-3.2-4.9-7.7-4.9-13.4l-11.5,1.2c0.8,8.6,3.7,15.1,8.9,19.6
						c5.1,4.5,12,6.7,20.7,6.7c8.7,0,15.6-2.4,20.7-7.3c5.1-4.8,7.7-10.8,7.7-18c0-3.6-0.7-7.2-2.2-10.8c-1.5-3.5-4-7.2-7.4-11.1
						s-9.2-9.2-17.2-16c-6.7-5.6-11-9.5-12.9-11.5c-1.9-2-3.5-4-4.7-6H1142.7z"/>
				</g>
				<g>
					<path id="ArialMT-30_12_" class="st8" d="M1154.7-18.8c0,10.8,1.1,19.4,3.3,26c2.2,6.6,5.5,11.6,9.9,15.2
						c4.4,3.6,9.9,5.3,16.5,5.3c4.9,0,9.2-1,12.9-3c3.7-2,6.7-4.8,9.1-8.5c2.4-3.7,4.3-8.2,5.7-13.5c1.4-5.3,2-12.5,2-21.5
						c0-10.7-1.1-19.3-3.3-25.9c-2.2-6.6-5.5-11.6-9.8-15.2c-4.4-3.6-9.9-5.4-16.6-5.4c-8.8,0-15.7,3.1-20.7,9.4
						C1157.7-48.2,1154.7-35.9,1154.7-18.8z M1166.2-18.8c0-15,1.7-24.9,5.2-29.9c3.5-4.9,7.8-7.4,12.9-7.4c5.1,0,9.5,2.5,13,7.5
						c3.5,5,5.2,14.9,5.2,29.8c0,15-1.7,25-5.2,29.9c-3.5,4.9-7.9,7.4-13.1,7.4c-5.1,0-9.2-2.2-12.3-6.5
						C1168.1,6.4,1166.2-3.8,1166.2-18.8z"/>
				</g>
				<g>
					<path id="ArialMT-2e_6_" class="st8" d="M1231.7-63.7V-51h12.7v-12.7H1231.7z"/>
				</g>
				<g>
					<path id="ArialMT-30_13_" class="st8" d="M1260.8-18.8c0,10.8,1.1,19.4,3.3,26c2.2,6.6,5.5,11.6,9.9,15.2
						c4.4,3.6,9.9,5.3,16.5,5.3c4.9,0,9.2-1,12.9-3c3.7-2,6.7-4.8,9.1-8.5c2.4-3.7,4.3-8.2,5.7-13.5c1.4-5.3,2-12.5,2-21.5
						c0-10.7-1.1-19.3-3.3-25.9c-2.2-6.6-5.5-11.6-9.8-15.2c-4.4-3.6-9.9-5.4-16.6-5.4c-8.8,0-15.7,3.1-20.7,9.4
						C1263.8-48.2,1260.8-35.9,1260.8-18.8z M1272.3-18.8c0-15,1.7-24.9,5.2-29.9c3.5-4.9,7.8-7.4,12.9-7.4c5.1,0,9.5,2.5,13,7.5
						c3.5,5,5.2,14.9,5.2,29.8c0,15-1.7,25-5.2,29.9c-3.5,4.9-7.9,7.4-13.1,7.4c-5.1,0-9.2-2.2-12.3-6.5
						C1274.2,6.4,1272.3-3.8,1272.3-18.8z"/>
				</g>
				<g>
					<path id="ArialMT-25_6_" class="st8" d="M1333.7,5.5c0,6.5,1.6,12,4.9,16.6c3.3,4.6,8,6.8,14.2,6.8c5.7,0,10.5-2,14.2-6.1
						c3.8-4.1,5.6-10.1,5.6-18c0-7.7-1.9-13.6-5.7-17.8s-8.5-6.2-14-6.2c-5.5,0-10.1,2-13.8,6.1C1335.5-9,1333.7-2.8,1333.7,5.5z
						 M1353.1,21.2c-2.8,0-5.1-1.2-6.9-3.6c-1.8-2.4-2.8-6.8-2.8-13.2c0-5.8,0.9-10,2.8-12.3c1.9-2.4,4.2-3.6,6.9-3.6
						c2.8,0,5.2,1.2,7,3.6c1.8,2.4,2.8,6.8,2.8,13.2c0,5.9-0.9,10-2.8,12.4C1358.2,20,1355.9,21.2,1353.1,21.2z M1353.2-67.1
						l49.8,96h9.1l-49.6-96H1353.2z M1392.6-42.3c0,6.5,1.6,12.1,4.9,16.6c3.3,4.5,8,6.8,14.3,6.8c5.7,0,10.4-2,14.2-6.1
						c3.8-4.1,5.6-10.1,5.6-18c0-7.7-1.9-13.7-5.7-17.8c-3.8-4.2-8.5-6.2-14.1-6.2c-5.5,0-10.1,2.1-13.8,6.2
						C1394.4-56.8,1392.6-50.6,1392.6-42.3z M1412.1-26.6c-2.8,0-5.2-1.2-7-3.6c-1.8-2.4-2.8-6.8-2.8-13.2c0-5.8,0.9-9.9,2.8-12.3
						c1.9-2.4,4.2-3.6,6.9-3.6c2.8,0,5.2,1.2,7,3.6c1.8,2.4,2.8,6.8,2.8,13.2c0,5.9-0.9,10-2.8,12.4
						C1417.2-27.8,1414.9-26.6,1412.1-26.6z"/>
				</g>
				<g>
					<path id="ArialMT-29_6_" class="st8" d="M1455.2-90.5h-8c12.4,19.9,18.6,39.8,18.6,59.7c0,7.8-0.9,15.5-2.7,23.2
						c-1.4,6.2-3.4,12.2-5.9,17.9c-1.6,3.7-5,9.9-10,18.6h8c7.8-10.4,13.5-20.8,17.3-31.3c3.2-9,4.8-18.5,4.8-28.3
						c0-11.2-2.1-22-6.4-32.4C1466.5-73.6,1461.3-82.7,1455.2-90.5z"/>
				</g>
			</g>
		</g>
		<g id="text_8">
			<g transform="translate(650.04625 102.527344)scale(0.1 -0.1)">
				<g>
					<path id="ArialMT-53_1_" class="st8" d="M783.2,389.5l11.4,1c0.5-4.6,1.8-8.3,3.8-11.2c2-2.9,5-5.3,9.2-7.1
						c4.1-1.8,8.8-2.7,14-2.7c4.6,0,8.6,0.7,12.2,2c3.5,1.4,6.1,3.2,7.9,5.6c1.7,2.4,2.6,5,2.6,7.8c0,2.8-0.8,5.3-2.5,7.5
						c-1.7,2.1-4.4,3.9-8.2,5.4c-2.5,1-7.9,2.4-16.2,4.4c-8.4,2-14.2,3.9-17.6,5.7c-4.4,2.3-7.6,5.1-9.7,8.5
						c-2.1,3.4-3.2,7.2-3.2,11.4c0,4.6,1.3,8.9,3.9,12.9c2.6,4,6.4,7,11.4,9.1c5,2.1,10.6,3.1,16.7,3.1c6.7,0,12.7-1.1,17.9-3.3
						c5.2-2.2,9.1-5.4,11.9-9.6c2.8-4.2,4.3-9,4.5-14.3l-11.6-0.9c-0.6,5.8-2.7,10.1-6.3,13c-3.6,2.9-8.9,4.4-15.9,4.4
						c-7.3,0-12.6-1.3-15.9-4c-3.3-2.7-5-5.9-5-9.6c0-3.3,1.2-6,3.5-8.1c2.3-2.1,8.4-4.3,18.2-6.5c9.8-2.2,16.5-4.1,20.2-5.8
						c5.3-2.5,9.2-5.6,11.7-9.3c2.5-3.7,3.8-8.1,3.8-12.9c0-4.9-1.4-9.4-4.2-13.7c-2.8-4.3-6.8-7.6-12-10c-5.2-2.4-11-3.6-17.5-3.6
						c-8.2,0-15.2,1.2-20.7,3.6c-5.6,2.4-9.9,6-13.1,10.8C785.1,377.9,783.4,383.4,783.2,389.5z"/>
				</g>
				<g>
					<path id="ArialMT-65_7_" class="st8" d="M915.9,381.5l11.6-1.4c-1.8-6.7-5.2-12-10.1-15.7c-4.9-3.7-11.2-5.6-18.9-5.6
						c-9.6,0-17.3,3-23,8.9c-5.7,6-8.5,14.3-8.5,25c0,11.1,2.9,19.7,8.6,25.8c5.7,6.1,13.1,9.2,22.2,9.2c8.8,0,16-3,21.6-9
						c5.6-6,8.4-14.5,8.4-25.3c0-0.7,0-1.7-0.1-3h-49.2c0.4-7.3,2.5-12.8,6.1-16.7c3.7-3.8,8.3-5.8,13.8-5.8c4.1,0,7.6,1.1,10.5,3.2
						C911.9,373.3,914.2,376.7,915.9,381.5z M879.2,399.5h36.8c-0.5,5.6-1.9,9.7-4.2,12.5c-3.6,4.3-8.2,6.5-13.9,6.5
						c-5.1,0-9.5-1.7-13-5.1C881.5,409.9,879.6,405.3,879.2,399.5z"/>
				</g>
				<g>
					<path id="ArialMT-67_1_" class="st8" d="M939.5,354.7l10.9-1.6c0.5-3.4,1.7-5.8,3.8-7.3c2.8-2.1,6.6-3.1,11.4-3.1
						c5.2,0,9.2,1,12,3.1c2.8,2.1,4.7,5,5.7,8.7c0.6,2.3,0.8,7.1,0.8,14.4c-4.9-5.8-11-8.6-18.3-8.6c-9.1,0-16.1,3.3-21.1,9.8
						c-5,6.5-7.5,14.4-7.5,23.5c0,6.3,1.1,12.1,3.4,17.4c2.3,5.3,5.6,9.4,9.9,12.3c4.3,2.9,9.4,4.4,15.3,4.4
						c7.8,0,14.2-3.1,19.3-9.4v8h10.3v-57c0-10.3-1-17.5-3.1-21.8c-2.1-4.3-5.4-7.7-9.9-10.2c-4.5-2.5-10.1-3.7-16.7-3.7
						c-7.9,0-14.2,1.8-19.1,5.3C941.7,342.3,939.3,347.6,939.5,354.7z M948.7,394.4c0-8.7,1.7-15,5.1-18.9c3.4-4,7.8-6,12.9-6
						c5.1,0,9.4,2,12.9,5.9c3.5,4,5.2,10.2,5.2,18.6c0,8.1-1.8,14.2-5.4,18.3c-3.6,4.1-7.9,6.2-13,6.2c-5,0-9.2-2-12.7-6.1
						C950.5,408.3,948.7,402.3,948.7,394.4z"/>
				</g>
				<g>
					<path id="ArialMT-75_3_" class="st8" d="M1055.5,360.2v9.7c-5.1-7.5-12.1-11.2-20.9-11.2c-3.9,0-7.5,0.7-10.9,2.2
						c-3.4,1.5-5.9,3.4-7.5,5.6c-1.6,2.3-2.8,5-3.4,8.3c-0.5,2.2-0.7,5.7-0.7,10.4v40.9h11.2v-36.6c0-5.8,0.2-9.8,0.7-11.8
						c0.7-2.9,2.2-5.2,4.5-6.9c2.3-1.7,5.1-2.5,8.4-2.5s6.5,0.9,9.4,2.6s5,4.1,6.2,7c1.2,3,1.8,7.3,1.8,12.9v35.3h11.2v-66H1055.5z"
						/>
				</g>
				<g>
					<path id="ArialMT-72_4_" class="st8" d="M1082.9,360.2v66h10.1v-10c2.6,4.7,4.9,7.8,7.1,9.2c2.2,1.5,4.6,2.2,7.2,2.2
						c3.8,0,7.6-1.2,11.5-3.6l-3.9-10.4c-2.7,1.6-5.5,2.4-8.2,2.4c-2.5,0-4.7-0.7-6.6-2.2c-1.9-1.5-3.3-3.5-4.2-6.1
						c-1.2-4-1.9-8.3-1.9-13v-34.6H1082.9z"/>
				</g>
				<g>
					<path id="ArialMT-69_4_" class="st8" d="M1125.5,438.4v12.9h11.2v-12.9H1125.5z M1125.5,360.2v66h11.2v-66H1125.5z"/>
				</g>
				<g>
					<path id="ArialMT-64_2_" class="st8" d="M1196.5,360.2v8.3c-4.2-6.5-10.3-9.8-18.4-9.8c-5.3,0-10.1,1.5-14.5,4.4
						c-4.4,2.9-7.8,7-10.3,12.1c-2.4,5.2-3.6,11.2-3.6,17.9c0,6.6,1.1,12.6,3.3,17.9c2.2,5.4,5.5,9.5,9.9,12.3
						c4.4,2.9,9.3,4.3,14.7,4.3c4,0,7.5-0.8,10.6-2.5c3.1-1.7,5.6-3.9,7.6-6.5v32.7h11.1v-91.1H1196.5z M1161.2,393.1
						c0-8.4,1.8-14.8,5.3-18.9c3.6-4.2,7.8-6.3,12.6-6.3c4.9,0,9,2,12.4,6c3.4,4,5.1,10.1,5.1,18.3c0,9-1.7,15.7-5.2,19.9
						c-3.5,4.2-7.8,6.3-12.8,6.3c-5,0-9.1-2-12.5-6.1C1162.8,408.3,1161.2,401.9,1161.2,393.1z"/>
				</g>
				<g>
					<path id="ArialMT-61_8_" class="st8" d="M1267.5,368.3c-4.1-3.5-8.1-6-12-7.5c-3.8-1.4-7.9-2.2-12.3-2.2
						c-7.3,0-12.8,1.8-16.7,5.3s-5.8,8.1-5.8,13.6c0,3.2,0.7,6.2,2.2,8.8c1.5,2.7,3.4,4.8,5.8,6.4c2.4,1.6,5.1,2.8,8.1,3.7
						c2.2,0.6,5.5,1.1,9.9,1.7c9,1.1,15.7,2.4,19.9,3.8c0,1.5,0.1,2.5,0.1,2.9c0,4.6-1.1,7.8-3.2,9.6c-2.8,2.5-7.1,3.8-12.7,3.8
						c-5.3,0-9.1-0.9-11.7-2.8c-2.5-1.8-4.4-5.1-5.6-9.8l-10.9,1.5c1,4.7,2.6,8.5,4.9,11.3c2.3,2.9,5.6,5.1,9.9,6.6
						c4.3,1.6,9.3,2.3,15,2.3c5.6,0,10.2-0.7,13.7-2c3.5-1.3,6.1-3,7.8-5c1.7-2,2.8-4.5,3.5-7.6c0.4-1.9,0.6-5.3,0.6-10.3v-14.9
						c0-10.4,0.2-17,0.7-19.7c0.5-2.7,1.4-5.4,2.8-7.9h-11.7C1268.6,362.5,1267.9,365.2,1267.5,368.3z M1266.6,393.3
						c-4.1-1.7-10.2-3.1-18.3-4.2c-4.6-0.7-7.9-1.4-9.8-2.2c-1.9-0.8-3.4-2-4.4-3.6c-1-1.6-1.6-3.4-1.6-5.3c0-3,1.1-5.5,3.4-7.5
						c2.3-2,5.6-3,9.9-3c4.3,0,8.1,0.9,11.5,2.8c3.4,1.9,5.8,4.5,7.4,7.7c1.2,2.5,1.8,6.3,1.8,11.2V393.3z"/>
				</g>
				<g>
					<path id="ArialMT-64_3_" class="st8" d="M1338,360.2v8.3c-4.2-6.5-10.3-9.8-18.4-9.8c-5.3,0-10.1,1.5-14.5,4.4
						c-4.4,2.9-7.8,7-10.3,12.1c-2.4,5.2-3.6,11.2-3.6,17.9c0,6.6,1.1,12.6,3.3,17.9c2.2,5.4,5.5,9.5,9.9,12.3
						c4.4,2.9,9.3,4.3,14.7,4.3c4,0,7.5-0.8,10.6-2.5c3.1-1.7,5.6-3.9,7.6-6.5v32.7h11.1v-91.1H1338z M1302.7,393.1
						c0-8.4,1.8-14.8,5.3-18.9c3.6-4.2,7.8-6.3,12.6-6.3c4.9,0,9,2,12.4,6c3.4,4,5.1,10.1,5.1,18.3c0,9-1.7,15.7-5.2,19.9
						c-3.5,4.2-7.8,6.3-12.8,6.3c-5,0-9.1-2-12.5-6.1C1304.4,408.3,1302.7,401.9,1302.7,393.1z"/>
				</g>
			</g>
			<g transform="translate(653.944688 113.367656)scale(0.1 -0.1)">
				<g>
					<path id="ArialMT-20_12_" class="st8" d="M788.1,330.7"/>
				</g>
				<g>
					<path id="ArialMT-28_7_" class="st8" d="M853.2,303.9c-6.2,7.8-11.4,16.9-15.7,27.3c-4.3,10.4-6.4,21.3-6.4,32.4
						c0,9.9,1.6,19.3,4.8,28.3c3.7,10.5,9.5,20.9,17.3,31.3h8c-5-8.6-8.3-14.8-9.9-18.4c-2.5-5.7-4.5-11.7-6-17.9
						c-1.8-7.7-2.7-15.5-2.7-23.4c0-19.9,6.2-39.8,18.6-59.7H853.2z"/>
				</g>
				<g>
					<path id="ArialMT-31_5_" class="st8" d="M913.2,330.7h-11.2v71.3c-2.7-2.6-6.2-5.1-10.6-7.7c-4.4-2.6-8.3-4.5-11.8-5.8v10.8
						c6.3,2.9,11.7,6.5,16.4,10.7c4.7,4.2,8,8.3,9.9,12.2h7.2V330.7z"/>
				</g>
				<g>
					<path id="ArialMT-30_14_" class="st8" d="M941.9,375.6c0,10.8,1.1,19.4,3.3,26c2.2,6.6,5.5,11.6,9.9,15.2
						c4.4,3.6,9.9,5.3,16.5,5.3c4.9,0,9.2-1,12.9-3c3.7-2,6.7-4.8,9.1-8.5c2.4-3.7,4.3-8.2,5.7-13.5c1.4-5.3,2-12.5,2-21.5
						c0-10.7-1.1-19.3-3.3-25.9c-2.2-6.6-5.5-11.6-9.8-15.2c-4.4-3.6-9.9-5.4-16.6-5.4c-8.8,0-15.7,3.1-20.7,9.4
						C944.9,346.1,941.9,358.5,941.9,375.6z M953.4,375.6c0-15,1.7-24.9,5.2-29.9c3.5-4.9,7.8-7.4,12.9-7.4c5.1,0,9.5,2.5,13,7.5
						c3.5,5,5.2,14.9,5.2,29.8c0,15-1.7,25-5.2,29.9c-3.5,4.9-7.9,7.4-13.1,7.4c-5.1,0-9.2-2.2-12.3-6.5
						C955.3,400.8,953.4,390.5,953.4,375.6z"/>
				</g>
				<g>
					<path id="ArialMT-2e_7_" class="st8" d="M1018.9,330.7v12.7h12.7v-12.7H1018.9z"/>
				</g>
				<g>
					<path id="ArialMT-30_15_" class="st8" d="M1048,375.6c0,10.8,1.1,19.4,3.3,26c2.2,6.6,5.5,11.6,9.9,15.2
						c4.4,3.6,9.9,5.3,16.5,5.3c4.9,0,9.2-1,12.9-3c3.7-2,6.7-4.8,9.1-8.5c2.4-3.7,4.3-8.2,5.7-13.5c1.4-5.3,2-12.5,2-21.5
						c0-10.7-1.1-19.3-3.3-25.9c-2.2-6.6-5.5-11.6-9.8-15.2c-4.4-3.6-9.9-5.4-16.6-5.4c-8.8,0-15.7,3.1-20.7,9.4
						C1051,346.1,1048,358.5,1048,375.6z M1059.5,375.6c0-15,1.7-24.9,5.2-29.9c3.5-4.9,7.8-7.4,12.9-7.4c5.1,0,9.5,2.5,13,7.5
						c3.5,5,5.2,14.9,5.2,29.8c0,15-1.7,25-5.2,29.9c-3.5,4.9-7.9,7.4-13.1,7.4c-5.1,0-9.2-2.2-12.3-6.5
						C1061.4,400.8,1059.5,390.5,1059.5,375.6z"/>
				</g>
				<g>
					<path id="ArialMT-25_7_" class="st8" d="M1120.9,399.9c0,6.5,1.6,12,4.9,16.6c3.3,4.6,8,6.8,14.2,6.8c5.7,0,10.5-2,14.2-6.1
						c3.8-4.1,5.6-10.1,5.6-18c0-7.7-1.9-13.6-5.7-17.8c-3.8-4.2-8.5-6.2-14-6.2c-5.5,0-10.1,2-13.8,6.1
						C1122.7,385.4,1120.9,391.6,1120.9,399.9z M1140.3,415.6c-2.8,0-5.1-1.2-6.9-3.6c-1.8-2.4-2.8-6.8-2.8-13.2
						c0-5.8,0.9-10,2.8-12.3c1.9-2.4,4.2-3.6,6.9-3.6c2.8,0,5.2,1.2,7,3.6c1.8,2.4,2.8,6.8,2.8,13.2c0,5.9-0.9,10-2.8,12.4
						C1145.4,414.4,1143.1,415.6,1140.3,415.6z M1140.4,327.3l49.8,96h9.1l-49.6-96H1140.4z M1179.8,352c0,6.5,1.6,12.1,4.9,16.6
						s8,6.8,14.3,6.8c5.7,0,10.4-2,14.2-6.1c3.8-4.1,5.6-10.1,5.6-18c0-7.7-1.9-13.7-5.7-17.8c-3.8-4.2-8.5-6.2-14.1-6.2
						c-5.5,0-10.1,2.1-13.8,6.2S1179.8,343.8,1179.8,352z M1199.3,367.8c-2.8,0-5.2-1.2-7-3.6c-1.8-2.4-2.8-6.8-2.8-13.2
						c0-5.8,0.9-9.9,2.8-12.3c1.9-2.4,4.2-3.6,6.9-3.6c2.8,0,5.2,1.2,7,3.6c1.8,2.4,2.8,6.8,2.8,13.2c0,5.9-0.9,10-2.8,12.4
						C1204.4,366.6,1202.1,367.8,1199.3,367.8z"/>
				</g>
				<g>
					<path id="ArialMT-29_7_" class="st8" d="M1242.4,303.9h-8c12.4,19.9,18.6,39.8,18.6,59.7c0,7.8-0.9,15.5-2.7,23.2
						c-1.4,6.2-3.4,12.2-5.9,17.9c-1.6,3.7-5,9.9-10,18.6h8c7.8-10.4,13.5-20.8,17.3-31.3c3.2-9,4.8-18.5,4.8-28.3
						c0-11.2-2.1-22-6.4-32.4C1253.7,320.8,1248.5,311.7,1242.4,303.9z"/>
				</g>
			</g>
		</g>
	</g>
</g>
</svg>
