<?xml version="1.0" encoding="utf-8" standalone="no"?>
<!DOCTYPE svg PUBLIC "-//W3C//DTD SVG 1.1//EN"
  "http://www.w3.org/Graphics/SVG/1.1/DTD/svg11.dtd">
<!-- Created with matplotlib (http://matplotlib.org/) -->
<svg height="432pt" version="1.1" viewBox="0 0 432 432" width="432pt" xmlns="http://www.w3.org/2000/svg" xmlns:xlink="http://www.w3.org/1999/xlink">
 <defs>
  <style type="text/css">
*{stroke-linecap:butt;stroke-linejoin:round;}
  </style>
 </defs>
 <g id="figure_1">
  <g id="patch_1">
   <path d="M 0 432 
L 432 432 
L 432 0 
L 0 0 
z
" style="fill:#ffffff;"/>
  </g>
  <g id="axes_1">
   <g id="patch_2">
    <path d="M 384.48 214.92 
C 384.48 193.504531 380.261619 172.2973 372.066274 152.511986 
C 363.870929 132.726672 351.857997 114.74805 336.714974 99.605026 
C 321.57195 84.462003 303.593328 72.449071 283.808014 64.253726 
C 264.0227 56.058381 242.815469 51.84 221.4 51.84 
C 199.984531 51.84 178.7773 56.058381 158.991986 64.253726 
C 139.206672 72.449071 121.22805 84.462003 106.085026 99.605026 
C 90.942003 114.74805 78.929071 132.726672 70.733726 152.511986 
C 62.538381 172.2973 58.32 193.504531 58.32 214.92 
C 58.32 236.335469 62.538381 257.5427 70.733726 277.328014 
C 78.929071 297.113328 90.942003 315.09195 106.085026 330.234974 
C 121.22805 345.377997 139.206672 357.390929 158.991986 365.586274 
C 178.7773 373.781619 199.984531 378 221.4 378 
C 242.815469 378 264.0227 373.781619 283.808014 365.586274 
C 303.593328 357.390929 321.57195 345.377997 336.714974 330.234974 
C 351.857997 315.09195 363.870929 297.113328 372.066274 277.328014 
C 380.261619 257.5427 384.48 236.335469 384.48 214.92 
M 221.4 214.92 
C 221.4 214.92 221.4 214.92 221.4 214.92 
C 221.4 214.92 221.4 214.92 221.4 214.92 
C 221.4 214.92 221.4 214.92 221.4 214.92 
C 221.4 214.92 221.4 214.92 221.4 214.92 
C 221.4 214.92 221.4 214.92 221.4 214.92 
C 221.4 214.92 221.4 214.92 221.4 214.92 
C 221.4 214.92 221.4 214.92 221.4 214.92 
C 221.4 214.92 221.4 214.92 221.4 214.92 
C 221.4 214.92 221.4 214.92 221.4 214.92 
C 221.4 214.92 221.4 214.92 221.4 214.92 
C 221.4 214.92 221.4 214.92 221.4 214.92 
C 221.4 214.92 221.4 214.92 221.4 214.92 
C 221.4 214.92 221.4 214.92 221.4 214.92 
C 221.4 214.92 221.4 214.92 221.4 214.92 
C 221.4 214.92 221.4 214.92 221.4 214.92 
C 221.4 214.92 221.4 214.92 221.4 214.92 
M 384.48 214.92 
z
" style="fill:#ffffff;"/>
   </g>
   <g id="patch_3">
    <path clip-path="url(#p0807cdd0c4)" d="M 221.4 160.56 
L 275.76 120.765718 
L 268.477141 187.74 
L 275.76 214.92 
L 268.477141 242.1 
L 302.94 356.151423 
L 221.4 378 
L 194.22 261.997141 
L 174.322859 242.1 
L 167.04 214.92 
L 174.322859 187.74 
L 167.04 120.765718 
z
" style="fill:#d8bfd8;opacity:0.4;"/>
   </g>
   <g id="matplotlib.axis_1">
    <g id="xtick_1">
     <g id="line2d_1">
      <path clip-path="url(#p0807cdd0c4)" d="M 221.4 214.92 
L 221.4 51.84 
" style="fill:none;stroke:#b0b0b0;stroke-linecap:square;stroke-width:0.8;"/>
     </g>
     <g id="text_1">
      <!-- 1 -->
      <defs>
       <path d="M 12.40625 8.296875 
L 28.515625 8.296875 
L 28.515625 63.921875 
L 10.984375 60.40625 
L 10.984375 69.390625 
L 28.421875 72.90625 
L 38.28125 72.90625 
L 38.28125 8.296875 
L 54.390625 8.296875 
L 54.390625 0 
L 12.40625 0 
z
" id="DejaVuSans-31"/>
      </defs>
      <g style="fill:#808080;" transform="translate(217.5825 41.15125)scale(0.12 -0.12)">
       <use xlink:href="#DejaVuSans-31"/>
      </g>
     </g>
    </g>
    <g id="xtick_2">
     <g id="line2d_2">
      <path clip-path="url(#p0807cdd0c4)" d="M 221.4 214.92 
L 302.94 73.688577 
" style="fill:none;stroke:#b0b0b0;stroke-linecap:square;stroke-width:0.8;"/>
     </g>
     <g id="text_2">
      <!-- 3 -->
      <defs>
       <path d="M 40.578125 39.3125 
Q 47.65625 37.796875 51.625 33 
Q 55.609375 28.21875 55.609375 21.1875 
Q 55.609375 10.40625 48.1875 4.484375 
Q 40.765625 -1.421875 27.09375 -1.421875 
Q 22.515625 -1.421875 17.65625 -0.515625 
Q 12.796875 0.390625 7.625 2.203125 
L 7.625 11.71875 
Q 11.71875 9.328125 16.59375 8.109375 
Q 21.484375 6.890625 26.8125 6.890625 
Q 36.078125 6.890625 40.9375 10.546875 
Q 45.796875 14.203125 45.796875 21.1875 
Q 45.796875 27.640625 41.28125 31.265625 
Q 36.765625 34.90625 28.71875 34.90625 
L 20.21875 34.90625 
L 20.21875 43.015625 
L 29.109375 43.015625 
Q 36.375 43.015625 40.234375 45.921875 
Q 44.09375 48.828125 44.09375 54.296875 
Q 44.09375 59.90625 40.109375 62.90625 
Q 36.140625 65.921875 28.71875 65.921875 
Q 24.65625 65.921875 20.015625 65.03125 
Q 15.375 64.15625 9.8125 62.3125 
L 9.8125 71.09375 
Q 15.4375 72.65625 20.34375 73.4375 
Q 25.25 74.21875 29.59375 74.21875 
Q 40.828125 74.21875 47.359375 69.109375 
Q 53.90625 64.015625 53.90625 55.328125 
Q 53.90625 49.265625 50.4375 45.09375 
Q 46.96875 40.921875 40.578125 39.3125 
z
" id="DejaVuSans-33"/>
      </defs>
      <g style="fill:#808080;" transform="translate(306.1225 64.875471)scale(0.12 -0.12)">
       <use xlink:href="#DejaVuSans-33"/>
      </g>
     </g>
    </g>
    <g id="xtick_3">
     <g id="line2d_3">
      <path clip-path="url(#p0807cdd0c4)" d="M 221.4 214.92 
L 362.631423 133.38 
" style="fill:none;stroke:#b0b0b0;stroke-linecap:square;stroke-width:0.8;"/>
     </g>
     <g id="text_3">
      <!-- 4 -->
      <defs>
       <path d="M 37.796875 64.3125 
L 12.890625 25.390625 
L 37.796875 25.390625 
z
M 35.203125 72.90625 
L 47.609375 72.90625 
L 47.609375 25.390625 
L 58.015625 25.390625 
L 58.015625 17.1875 
L 47.609375 17.1875 
L 47.609375 0 
L 37.796875 0 
L 37.796875 17.1875 
L 4.890625 17.1875 
L 4.890625 26.703125 
z
" id="DejaVuSans-34"/>
      </defs>
      <g style="fill:#808080;" transform="translate(370.938279 129.69125)scale(0.12 -0.12)">
       <use xlink:href="#DejaVuSans-34"/>
      </g>
     </g>
    </g>
    <g id="xtick_4">
     <g id="line2d_4">
      <path clip-path="url(#p0807cdd0c4)" d="M 221.4 214.92 
L 384.48 214.92 
" style="fill:none;stroke:#b0b0b0;stroke-linecap:square;stroke-width:0.8;"/>
     </g>
     <g id="text_4">
      <!-- 5 -->
      <defs>
       <path d="M 10.796875 72.90625 
L 49.515625 72.90625 
L 49.515625 64.59375 
L 19.828125 64.59375 
L 19.828125 46.734375 
Q 21.96875 47.46875 24.109375 47.828125 
Q 26.265625 48.1875 28.421875 48.1875 
Q 40.625 48.1875 47.75 41.5 
Q 54.890625 34.8125 54.890625 23.390625 
Q 54.890625 11.625 47.5625 5.09375 
Q 40.234375 -1.421875 26.90625 -1.421875 
Q 22.3125 -1.421875 17.546875 -0.640625 
Q 12.796875 0.140625 7.71875 1.703125 
L 7.71875 11.625 
Q 12.109375 9.234375 16.796875 8.0625 
Q 21.484375 6.890625 26.703125 6.890625 
Q 35.15625 6.890625 40.078125 11.328125 
Q 45.015625 15.765625 45.015625 23.390625 
Q 45.015625 31 40.078125 35.4375 
Q 35.15625 39.890625 26.703125 39.890625 
Q 22.75 39.890625 18.8125 39.015625 
Q 14.890625 38.140625 10.796875 36.28125 
z
" id="DejaVuSans-35"/>
      </defs>
      <g style="fill:#808080;" transform="translate(394.6625 218.23125)scale(0.12 -0.12)">
       <use xlink:href="#DejaVuSans-35"/>
      </g>
     </g>
    </g>
    <g id="xtick_5">
     <g id="line2d_5">
      <path clip-path="url(#p0807cdd0c4)" d="M 221.4 214.92 
L 362.631423 296.46 
" style="fill:none;stroke:#b0b0b0;stroke-linecap:square;stroke-width:0.8;"/>
     </g>
     <g id="text_5">
      <!-- 6 -->
      <defs>
       <path d="M 33.015625 40.375 
Q 26.375 40.375 22.484375 35.828125 
Q 18.609375 31.296875 18.609375 23.390625 
Q 18.609375 15.53125 22.484375 10.953125 
Q 26.375 6.390625 33.015625 6.390625 
Q 39.65625 6.390625 43.53125 10.953125 
Q 47.40625 15.53125 47.40625 23.390625 
Q 47.40625 31.296875 43.53125 35.828125 
Q 39.65625 40.375 33.015625 40.375 
z
M 52.59375 71.296875 
L 52.59375 62.3125 
Q 48.875 64.0625 45.09375 64.984375 
Q 41.3125 65.921875 37.59375 65.921875 
Q 27.828125 65.921875 22.671875 59.328125 
Q 17.53125 52.734375 16.796875 39.40625 
Q 19.671875 43.65625 24.015625 45.921875 
Q 28.375 48.1875 33.59375 48.1875 
Q 44.578125 48.1875 50.953125 41.515625 
Q 57.328125 34.859375 57.328125 23.390625 
Q 57.328125 12.15625 50.6875 5.359375 
Q 44.046875 -1.421875 33.015625 -1.421875 
Q 20.359375 -1.421875 13.671875 8.265625 
Q 6.984375 17.96875 6.984375 36.375 
Q 6.984375 53.65625 15.1875 63.9375 
Q 23.390625 74.21875 37.203125 74.21875 
Q 40.921875 74.21875 44.703125 73.484375 
Q 48.484375 72.75 52.59375 71.296875 
z
" id="DejaVuSans-36"/>
      </defs>
      <g style="fill:#808080;" transform="translate(370.938279 306.77125)scale(0.12 -0.12)">
       <use xlink:href="#DejaVuSans-36"/>
      </g>
     </g>
    </g>
    <g id="xtick_6">
     <g id="line2d_6">
      <path clip-path="url(#p0807cdd0c4)" d="M 221.4 214.92 
L 302.94 356.151423 
" style="fill:none;stroke:#b0b0b0;stroke-linecap:square;stroke-width:0.8;"/>
     </g>
     <g id="text_6">
      <!-- 8 -->
      <defs>
       <path d="M 31.78125 34.625 
Q 24.75 34.625 20.71875 30.859375 
Q 16.703125 27.09375 16.703125 20.515625 
Q 16.703125 13.921875 20.71875 10.15625 
Q 24.75 6.390625 31.78125 6.390625 
Q 38.8125 6.390625 42.859375 10.171875 
Q 46.921875 13.96875 46.921875 20.515625 
Q 46.921875 27.09375 42.890625 30.859375 
Q 38.875 34.625 31.78125 34.625 
z
M 21.921875 38.8125 
Q 15.578125 40.375 12.03125 44.71875 
Q 8.5 49.078125 8.5 55.328125 
Q 8.5 64.0625 14.71875 69.140625 
Q 20.953125 74.21875 31.78125 74.21875 
Q 42.671875 74.21875 48.875 69.140625 
Q 55.078125 64.0625 55.078125 55.328125 
Q 55.078125 49.078125 51.53125 44.71875 
Q 48 40.375 41.703125 38.8125 
Q 48.828125 37.15625 52.796875 32.3125 
Q 56.78125 27.484375 56.78125 20.515625 
Q 56.78125 9.90625 50.3125 4.234375 
Q 43.84375 -1.421875 31.78125 -1.421875 
Q 19.734375 -1.421875 13.25 4.234375 
Q 6.78125 9.90625 6.78125 20.515625 
Q 6.78125 27.484375 10.78125 32.3125 
Q 14.796875 37.15625 21.921875 38.8125 
z
M 18.3125 54.390625 
Q 18.3125 48.734375 21.84375 45.5625 
Q 25.390625 42.390625 31.78125 42.390625 
Q 38.140625 42.390625 41.71875 45.5625 
Q 45.3125 48.734375 45.3125 54.390625 
Q 45.3125 60.0625 41.71875 63.234375 
Q 38.140625 66.40625 31.78125 66.40625 
Q 25.390625 66.40625 21.84375 63.234375 
Q 18.3125 60.0625 18.3125 54.390625 
z
" id="DejaVuSans-38"/>
      </defs>
      <g style="fill:#808080;" transform="translate(306.1225 371.587029)scale(0.12 -0.12)">
       <use xlink:href="#DejaVuSans-38"/>
      </g>
     </g>
    </g>
    <g id="xtick_7">
     <g id="line2d_7">
      <path clip-path="url(#p0807cdd0c4)" d="M 221.4 214.92 
L 221.4 378 
" style="fill:none;stroke:#b0b0b0;stroke-linecap:square;stroke-width:0.8;"/>
     </g>
     <g id="text_7">
      <!-- 9 -->
      <defs>
       <path d="M 10.984375 1.515625 
L 10.984375 10.5 
Q 14.703125 8.734375 18.5 7.8125 
Q 22.3125 6.890625 25.984375 6.890625 
Q 35.75 6.890625 40.890625 13.453125 
Q 46.046875 20.015625 46.78125 33.40625 
Q 43.953125 29.203125 39.59375 26.953125 
Q 35.25 24.703125 29.984375 24.703125 
Q 19.046875 24.703125 12.671875 31.3125 
Q 6.296875 37.9375 6.296875 49.421875 
Q 6.296875 60.640625 12.9375 67.421875 
Q 19.578125 74.21875 30.609375 74.21875 
Q 43.265625 74.21875 49.921875 64.515625 
Q 56.59375 54.828125 56.59375 36.375 
Q 56.59375 19.140625 48.40625 8.859375 
Q 40.234375 -1.421875 26.421875 -1.421875 
Q 22.703125 -1.421875 18.890625 -0.6875 
Q 15.09375 0.046875 10.984375 1.515625 
z
M 30.609375 32.421875 
Q 37.25 32.421875 41.125 36.953125 
Q 45.015625 41.5 45.015625 49.421875 
Q 45.015625 57.28125 41.125 61.84375 
Q 37.25 66.40625 30.609375 66.40625 
Q 23.96875 66.40625 20.09375 61.84375 
Q 16.21875 57.28125 16.21875 49.421875 
Q 16.21875 41.5 20.09375 36.953125 
Q 23.96875 32.421875 30.609375 32.421875 
z
" id="DejaVuSans-39"/>
      </defs>
      <g style="fill:#808080;" transform="translate(217.5825 395.31125)scale(0.12 -0.12)">
       <use xlink:href="#DejaVuSans-39"/>
      </g>
     </g>
    </g>
    <g id="xtick_8">
     <g id="line2d_8">
      <path clip-path="url(#p0807cdd0c4)" d="M 221.4 214.92 
L 139.86 356.151423 
" style="fill:none;stroke:#b0b0b0;stroke-linecap:square;stroke-width:0.8;"/>
     </g>
     <g id="text_8">
      <!-- 11 -->
      <g style="fill:#808080;" transform="translate(125.225 371.587029)scale(0.12 -0.12)">
       <use xlink:href="#DejaVuSans-31"/>
       <use x="63.623047" xlink:href="#DejaVuSans-31"/>
      </g>
     </g>
    </g>
    <g id="xtick_9">
     <g id="line2d_9">
      <path clip-path="url(#p0807cdd0c4)" d="M 221.4 214.92 
L 80.168577 296.46 
" style="fill:none;stroke:#b0b0b0;stroke-linecap:square;stroke-width:0.8;"/>
     </g>
     <g id="text_9">
      <!-- 13 -->
      <g style="fill:#808080;" transform="translate(60.409221 306.77125)scale(0.12 -0.12)">
       <use xlink:href="#DejaVuSans-31"/>
       <use x="63.623047" xlink:href="#DejaVuSans-33"/>
      </g>
     </g>
    </g>
    <g id="xtick_10">
     <g id="line2d_10">
      <path clip-path="url(#p0807cdd0c4)" d="M 221.4 214.92 
L 58.32 214.92 
" style="fill:none;stroke:#b0b0b0;stroke-linecap:square;stroke-width:0.8;"/>
     </g>
     <g id="text_10">
      <!-- 14 -->
      <g style="fill:#808080;" transform="translate(36.685 218.23125)scale(0.12 -0.12)">
       <use xlink:href="#DejaVuSans-31"/>
       <use x="63.623047" xlink:href="#DejaVuSans-34"/>
      </g>
     </g>
    </g>
    <g id="xtick_11">
     <g id="line2d_11">
      <path clip-path="url(#p0807cdd0c4)" d="M 221.4 214.92 
L 80.168577 133.38 
" style="fill:none;stroke:#b0b0b0;stroke-linecap:square;stroke-width:0.8;"/>
     </g>
     <g id="text_11">
      <!-- 16 -->
      <g style="fill:#808080;" transform="translate(60.409221 129.69125)scale(0.12 -0.12)">
       <use xlink:href="#DejaVuSans-31"/>
       <use x="63.623047" xlink:href="#DejaVuSans-36"/>
      </g>
     </g>
    </g>
    <g id="xtick_12">
     <g id="line2d_12">
      <path clip-path="url(#p0807cdd0c4)" d="M 221.4 214.92 
L 139.86 73.688577 
" style="fill:none;stroke:#b0b0b0;stroke-linecap:square;stroke-width:0.8;"/>
     </g>
     <g id="text_12">
      <!-- 17 -->
      <defs>
       <path d="M 8.203125 72.90625 
L 55.078125 72.90625 
L 55.078125 68.703125 
L 28.609375 0 
L 18.3125 0 
L 43.21875 64.59375 
L 8.203125 64.59375 
z
" id="DejaVuSans-37"/>
      </defs>
      <g style="fill:#808080;" transform="translate(125.225 64.875471)scale(0.12 -0.12)">
       <use xlink:href="#DejaVuSans-31"/>
       <use x="63.623047" xlink:href="#DejaVuSans-37"/>
      </g>
     </g>
    </g>
   </g>
   <g id="matplotlib.axis_2">
    <g id="ytick_1">
     <g id="line2d_13">
      <path clip-path="url(#p0807cdd0c4)" d="M 221.4 160.56 
L 225.191962 160.692418 
L 228.96545 161.089028 
L 232.70208 161.747896 
L 236.383647 162.665814 
L 239.992215 163.838309 
L 243.510204 165.259669 
L 246.920474 166.922969 
L 250.206411 168.820105 
L 253.352006 170.941836 
L 256.341934 173.277824 
L 259.161629 175.816688 
L 261.797353 178.54606 
L 264.236265 181.452642 
L 266.466482 184.522274 
L 268.477141 187.74 
L 270.258444 191.090144 
L 271.801714 194.556386 
L 273.099432 198.121836 
L 274.145276 201.769126 
L 274.934149 205.480485 
L 275.46221 209.237833 
L 275.726885 213.022863 
L 275.726885 216.817137 
L 275.46221 220.602167 
L 274.934149 224.359515 
L 274.145276 228.070874 
L 273.099432 231.718164 
L 271.801714 235.283614 
L 270.258444 238.749856 
L 268.477141 242.1 
L 266.466482 245.317726 
L 264.236265 248.387358 
L 261.797353 251.29394 
L 259.161629 254.023312 
L 256.341934 256.562176 
L 253.352006 258.898164 
L 250.206411 261.019895 
L 246.920474 262.917031 
L 243.510204 264.580331 
L 239.992215 266.001691 
L 236.383647 267.174186 
L 232.70208 268.092104 
L 228.96545 268.750972 
L 225.191962 269.147582 
L 221.4 269.28 
L 217.608038 269.147582 
L 213.83455 268.750972 
L 210.09792 268.092104 
L 206.416353 267.174186 
L 202.807785 266.001691 
L 199.289796 264.580331 
L 195.879526 262.917031 
L 192.593589 261.019895 
L 189.447994 258.898164 
L 186.458066 256.562176 
L 183.638371 254.023312 
L 181.002647 251.29394 
L 178.563735 248.387358 
L 176.333518 245.317726 
L 174.322859 242.1 
L 172.541556 238.749856 
L 170.998286 235.283614 
L 169.700568 231.718164 
L 168.654724 228.070874 
L 167.865851 224.359515 
L 167.33779 220.602167 
L 167.073115 216.817137 
L 167.073115 213.022863 
L 167.33779 209.237833 
L 167.865851 205.480485 
L 168.654724 201.769126 
L 169.700568 198.121836 
L 170.998286 194.556386 
L 172.541556 191.090144 
L 174.322859 187.74 
L 176.333518 184.522274 
L 178.563735 181.452642 
L 181.002647 178.54606 
L 183.638371 175.816688 
L 186.458066 173.277824 
L 189.447994 170.941836 
L 192.593589 168.820105 
L 195.879526 166.922969 
L 199.289796 165.259669 
L 202.807785 163.838309 
L 206.416353 162.665814 
L 210.09792 161.747896 
L 213.83455 161.089028 
L 217.608038 160.692418 
L 221.4 160.56 
L 221.4 160.56 
" style="fill:none;stroke:#b0b0b0;stroke-linecap:square;stroke-width:0.8;"/>
     </g>
     <g id="text_13">
      <!-- 1 -->
      <g style="fill:#808080;" transform="translate(221.4 158.480313)scale(0.1 -0.1)">
       <use xlink:href="#DejaVuSans-31"/>
      </g>
     </g>
    </g>
    <g id="ytick_2">
     <g id="line2d_14">
      <path clip-path="url(#p0807cdd0c4)" d="M 221.4 106.2 
L 225.194273 106.266229 
L 228.983924 106.464836 
L 232.764335 106.79558 
L 236.5309 107.258056 
L 240.27903 107.851701 
L 244.004159 108.575793 
L 247.701748 109.429449 
L 251.367293 110.411628 
L 254.996328 111.521136 
L 258.58443 112.756618 
L 262.127229 114.116571 
L 265.620408 115.599338 
L 269.059711 117.203111 
L 272.440948 118.925938 
L 275.76 120.765718 
L 279.012822 122.720211 
L 282.195452 124.787035 
L 285.304013 126.963672 
L 288.334716 129.247471 
L 291.283869 131.635648 
L 294.14788 134.125295 
L 296.923258 136.713377 
L 299.606623 139.396742 
L 302.194705 142.17212 
L 304.684352 145.036131 
L 307.072529 147.985284 
L 309.356328 151.015987 
L 311.532965 154.124548 
L 313.599789 157.307178 
L 315.554282 160.56 
L 317.394062 163.879052 
L 319.116889 167.260289 
L 320.720662 170.699592 
L 322.203429 174.192771 
L 323.563382 177.73557 
L 324.798864 181.323672 
L 325.908372 184.952707 
L 326.890551 188.618252 
L 327.744207 192.315841 
L 328.468299 196.04097 
L 329.061944 199.7891 
L 329.52442 203.555665 
L 329.855164 207.336076 
L 330.053771 211.125727 
L 330.12 214.92 
L 330.053771 218.714273 
L 329.855164 222.503924 
L 329.52442 226.284335 
L 329.061944 230.0509 
L 328.468299 233.79903 
L 327.744207 237.524159 
L 326.890551 241.221748 
L 325.908372 244.887293 
L 324.798864 248.516328 
L 323.563382 252.10443 
L 322.203429 255.647229 
L 320.720662 259.140408 
L 319.116889 262.579711 
L 317.394062 265.960948 
L 315.554282 269.28 
L 313.599789 272.532822 
L 311.532965 275.715452 
L 309.356328 278.824013 
L 307.072529 281.854716 
L 304.684352 284.803869 
L 302.194705 287.66788 
L 299.606623 290.443258 
L 296.923258 293.126623 
L 294.14788 295.714705 
L 291.283869 298.204352 
L 288.334716 300.592529 
L 285.304013 302.876328 
L 282.195452 305.052965 
L 279.012822 307.119789 
L 275.76 309.074282 
L 272.440948 310.914062 
L 269.059711 312.636889 
L 265.620408 314.240662 
L 262.127229 315.723429 
L 258.58443 317.083382 
L 254.996328 318.318864 
L 251.367293 319.428372 
L 247.701748 320.410551 
L 244.004159 321.264207 
L 240.27903 321.988299 
L 236.5309 322.581944 
L 232.764335 323.04442 
L 228.983924 323.375164 
L 225.194273 323.573771 
L 221.4 323.64 
L 217.605727 323.573771 
L 213.816076 323.375164 
L 210.035665 323.04442 
L 206.2691 322.581944 
L 202.52097 321.988299 
L 198.795841 321.264207 
L 195.098252 320.410551 
L 191.432707 319.428372 
L 187.803672 318.318864 
L 184.21557 317.083382 
L 180.672771 315.723429 
L 177.179592 314.240662 
L 173.740289 312.636889 
L 170.359052 310.914062 
L 167.04 309.074282 
L 163.787178 307.119789 
L 160.604548 305.052965 
L 157.495987 302.876328 
L 154.465284 300.592529 
L 151.516131 298.204352 
L 148.65212 295.714705 
L 145.876742 293.126623 
L 143.193377 290.443258 
L 140.605295 287.66788 
L 138.115648 284.803869 
L 135.727471 281.854716 
L 133.443672 278.824013 
L 131.267035 275.715452 
L 129.200211 272.532822 
L 127.245718 269.28 
L 125.405938 265.960948 
L 123.683111 262.579711 
L 122.079338 259.140408 
L 120.596571 255.647229 
L 119.236618 252.10443 
L 118.001136 248.516328 
L 116.891628 244.887293 
L 115.909449 241.221748 
L 115.055793 237.524159 
L 114.331701 233.79903 
L 113.738056 230.0509 
L 113.27558 226.284335 
L 112.944836 222.503924 
L 112.746229 218.714273 
L 112.68 214.92 
L 112.746229 211.125727 
L 112.944836 207.336076 
L 113.27558 203.555665 
L 113.738056 199.7891 
L 114.331701 196.04097 
L 115.055793 192.315841 
L 115.909449 188.618252 
L 116.891628 184.952707 
L 118.001136 181.323672 
L 119.236618 177.73557 
L 120.596571 174.192771 
L 122.079338 170.699592 
L 123.683111 167.260289 
L 125.405938 163.879052 
L 127.245718 160.56 
L 129.200211 157.307178 
L 131.267035 154.124548 
L 133.443672 151.015987 
L 135.727471 147.985284 
L 138.115648 145.036131 
L 140.605295 142.17212 
L 143.193377 139.396742 
L 145.876742 136.713377 
L 148.65212 134.125295 
L 151.516131 131.635648 
L 154.465284 129.247471 
L 157.495987 126.963672 
L 160.604548 124.787035 
L 163.787178 122.720211 
L 167.04 120.765718 
L 170.359052 118.925938 
L 173.740289 117.203111 
L 177.179592 115.599338 
L 180.672771 114.116571 
L 184.21557 112.756618 
L 187.803672 111.521136 
L 191.432707 110.411628 
L 195.098252 109.429449 
L 198.795841 108.575793 
L 202.52097 107.851701 
L 206.2691 107.258056 
L 210.035665 106.79558 
L 213.816076 106.464836 
L 217.605727 106.266229 
L 221.4 106.2 
L 221.4 106.2 
" style="fill:none;stroke:#b0b0b0;stroke-linecap:square;stroke-width:0.8;"/>
     </g>
     <g id="text_14">
      <!-- 2 -->
      <defs>
       <path d="M 19.1875 8.296875 
L 53.609375 8.296875 
L 53.609375 0 
L 7.328125 0 
L 7.328125 8.296875 
Q 12.9375 14.109375 22.625 23.890625 
Q 32.328125 33.6875 34.8125 36.53125 
Q 39.546875 41.84375 41.421875 45.53125 
Q 43.3125 49.21875 43.3125 52.78125 
Q 43.3125 58.59375 39.234375 62.25 
Q 35.15625 65.921875 28.609375 65.921875 
Q 23.96875 65.921875 18.8125 64.3125 
Q 13.671875 62.703125 7.8125 59.421875 
L 7.8125 69.390625 
Q 13.765625 71.78125 18.9375 73 
Q 24.125 74.21875 28.421875 74.21875 
Q 39.75 74.21875 46.484375 68.546875 
Q 53.21875 62.890625 53.21875 53.421875 
Q 53.21875 48.921875 51.53125 44.890625 
Q 49.859375 40.875 45.40625 35.40625 
Q 44.1875 33.984375 37.640625 27.21875 
Q 31.109375 20.453125 19.1875 8.296875 
z
" id="DejaVuSans-32"/>
      </defs>
      <g style="fill:#808080;" transform="translate(221.4 104.120313)scale(0.1 -0.1)">
       <use xlink:href="#DejaVuSans-32"/>
      </g>
     </g>
    </g>
   </g>
   <g id="line2d_15">
    <path clip-path="url(#p0807cdd0c4)" d="M 221.4 160.56 
L 275.76 120.765718 
L 268.477141 187.74 
L 275.76 214.92 
L 268.477141 242.1 
L 302.94 356.151423 
L 221.4 378 
L 194.22 261.997141 
L 174.322859 242.1 
L 167.04 214.92 
L 174.322859 187.74 
L 167.04 120.765718 
L 221.4 160.56 
" style="fill:none;stroke:#d8bfd8;stroke-linecap:square;stroke-width:1.5;"/>
   </g>
   <g id="patch_4">
    <path d="M 221.4 51.84 
C 199.984531 51.84 178.7773 56.058381 158.991986 64.253726 
C 139.206672 72.449071 121.22805 84.462003 106.085026 99.605026 
C 90.942003 114.74805 78.929071 132.726672 70.733726 152.511986 
C 62.538381 172.2973 58.32 193.504531 58.32 214.92 
C 58.32 236.335469 62.538381 257.5427 70.733726 277.328014 
C 78.929071 297.113328 90.942003 315.09195 106.085026 330.234974 
C 121.22805 345.377997 139.206672 357.390929 158.991986 365.586274 
C 178.7773 373.781619 199.984531 378 221.4 378 
C 242.815469 378 264.0227 373.781619 283.808014 365.586274 
C 303.593328 357.390929 321.57195 345.377997 336.714974 330.234974 
C 351.857997 315.09195 363.870929 297.113328 372.066274 277.328014 
C 380.261619 257.5427 384.48 236.335469 384.48 214.92 
C 384.48 193.504531 380.261619 172.2973 372.066274 152.511986 
C 363.870929 132.726672 351.857997 114.74805 336.714974 99.605026 
C 321.57195 84.462003 303.593328 72.449071 283.808014 64.253726 
C 264.0227 56.058381 242.815469 51.84 221.4 51.84 
" style="fill:none;stroke:#000000;stroke-linecap:square;stroke-linejoin:miter;stroke-width:0.8;"/>
   </g>
  </g>
 </g>
 <defs>
  <clipPath id="p0807cdd0c4">
   <path d="M 384.48 214.92 
C 384.48 193.504531 380.261619 172.2973 372.066274 152.511986 
C 363.870929 132.726672 351.857997 114.74805 336.714974 99.605026 
C 321.57195 84.462003 303.593328 72.449071 283.808014 64.253726 
C 264.0227 56.058381 242.815469 51.84 221.4 51.84 
C 199.984531 51.84 178.7773 56.058381 158.991986 64.253726 
C 139.206672 72.449071 121.22805 84.462003 106.085026 99.605026 
C 90.942003 114.74805 78.929071 132.726672 70.733726 152.511986 
C 62.538381 172.2973 58.32 193.504531 58.32 214.92 
C 58.32 236.335469 62.538381 257.5427 70.733726 277.328014 
C 78.929071 297.113328 90.942003 315.09195 106.085026 330.234974 
C 121.22805 345.377997 139.206672 357.390929 158.991986 365.586274 
C 178.7773 373.781619 199.984531 378 221.4 378 
C 242.815469 378 264.0227 373.781619 283.808014 365.586274 
C 303.593328 357.390929 321.57195 345.377997 336.714974 330.234974 
C 351.857997 315.09195 363.870929 297.113328 372.066274 277.328014 
C 380.261619 257.5427 384.48 236.335469 384.48 214.92 
M 221.4 214.92 
C 221.4 214.92 221.4 214.92 221.4 214.92 
C 221.4 214.92 221.4 214.92 221.4 214.92 
C 221.4 214.92 221.4 214.92 221.4 214.92 
C 221.4 214.92 221.4 214.92 221.4 214.92 
C 221.4 214.92 221.4 214.92 221.4 214.92 
C 221.4 214.92 221.4 214.92 221.4 214.92 
C 221.4 214.92 221.4 214.92 221.4 214.92 
C 221.4 214.92 221.4 214.92 221.4 214.92 
C 221.4 214.92 221.4 214.92 221.4 214.92 
C 221.4 214.92 221.4 214.92 221.4 214.92 
C 221.4 214.92 221.4 214.92 221.4 214.92 
C 221.4 214.92 221.4 214.92 221.4 214.92 
C 221.4 214.92 221.4 214.92 221.4 214.92 
C 221.4 214.92 221.4 214.92 221.4 214.92 
C 221.4 214.92 221.4 214.92 221.4 214.92 
C 221.4 214.92 221.4 214.92 221.4 214.92 
M 384.48 214.92 
z
"/>
  </clipPath>
 </defs>
</svg>
