<?xml version="1.0" encoding="utf-8"?>
<!-- Generator: Adobe Illustrator 19.0.0, SVG Export Plug-In . SVG Version: 6.00 Build 0)  -->
<svg version="1.1" id="Capa_1" xmlns="http://www.w3.org/2000/svg" xmlns:xlink="http://www.w3.org/1999/xlink" x="0px" y="0px"
	 viewBox="-375 347 648 108" style="enable-background:new -375 347 648 108;" xml:space="preserve">
<style type="text/css">
	.st0{fill:#262626;stroke:#262626;stroke-width:1.5;stroke-linejoin:round;}
	.st1{fill:#262626;}
	.st2{fill:none;stroke:#262626;stroke-width:1.25;}
</style>
<path id="mecb9e573b4" class="st0" d="M-357.6,416v-6.4"/>
<path id="ArialMT-30" class="st1" d="M-366,424.5c0-1.1,0.1-2,0.3-2.6c0.2-0.7,0.6-1.2,1-1.5c0.4-0.4,1-0.5,1.7-0.5
	c0.5,0,0.9,0.1,1.3,0.3c0.4,0.2,0.7,0.5,0.9,0.9c0.2,0.4,0.4,0.8,0.6,1.4c0.1,0.5,0.2,1.3,0.2,2.2c0,1.1-0.1,2-0.3,2.6
	c-0.2,0.7-0.6,1.2-1,1.5c-0.4,0.4-1,0.5-1.7,0.5c-0.9,0-1.6-0.3-2.1-1C-365.7,427.5-366,426.2-366,424.5z M-364.8,424.5
	c0,1.5,0.2,2.5,0.5,3c0.4,0.5,0.8,0.8,1.3,0.8c0.5,0,1-0.3,1.3-0.8c0.4-0.5,0.5-1.5,0.5-3c0-1.5-0.2-2.5-0.5-3
	c-0.4-0.5-0.8-0.7-1.3-0.7c-0.5,0-0.9,0.2-1.2,0.7C-364.6,421.9-364.8,423-364.8,424.5z"/>
<path id="ArialMT-2e" class="st1" d="M-358.2,429v-1.3h1.3v1.3H-358.2z"/>
<path id="ArialMT-30_1_" class="st1" d="M-355.3,424.5c0-1.1,0.1-2,0.3-2.6c0.2-0.7,0.6-1.2,1-1.5c0.4-0.4,1-0.5,1.7-0.5
	c0.5,0,0.9,0.1,1.3,0.3c0.4,0.2,0.7,0.5,0.9,0.9c0.2,0.4,0.4,0.8,0.6,1.4c0.1,0.5,0.2,1.3,0.2,2.2c0,1.1-0.1,2-0.3,2.6
	c-0.2,0.7-0.6,1.2-1,1.5c-0.4,0.4-1,0.5-1.7,0.5c-0.9,0-1.6-0.3-2.1-1C-355,427.5-355.3,426.2-355.3,424.5z M-354.1,424.5
	c0,1.5,0.2,2.5,0.5,3c0.4,0.5,0.8,0.8,1.3,0.8c0.5,0,1-0.3,1.3-0.8c0.4-0.5,0.5-1.5,0.5-3c0-1.5-0.2-2.5-0.5-3
	c-0.4-0.5-0.8-0.7-1.3-0.7c-0.5,0-0.9,0.2-1.2,0.7C-353.9,421.9-354.1,423-354.1,424.5z"/>
<path id="mecb9e573b4_1_" class="st0" d="M-270.7,416v-6.4"/>
<path id="ArialMT-32" class="st1" d="M-273.2,427.9v1.1h-6.1c0-0.3,0-0.5,0.1-0.8c0.2-0.4,0.4-0.8,0.7-1.2c0.3-0.4,0.8-0.9,1.5-1.4
	c1-0.8,1.7-1.5,2-2c0.4-0.5,0.5-0.9,0.5-1.4c0-0.4-0.2-0.8-0.5-1.1c-0.3-0.3-0.7-0.5-1.3-0.5c-0.5,0-1,0.2-1.3,0.5
	c-0.3,0.3-0.5,0.8-0.5,1.4l-1.2-0.1c0.1-0.9,0.4-1.5,0.9-2c0.5-0.5,1.2-0.7,2.1-0.7c0.9,0,1.6,0.2,2.1,0.7c0.5,0.5,0.8,1.1,0.8,1.8
	c0,0.4-0.1,0.7-0.2,1.1c-0.2,0.4-0.4,0.7-0.8,1.1c-0.3,0.4-0.9,0.9-1.7,1.6c-0.7,0.6-1.1,1-1.3,1.2c-0.2,0.2-0.4,0.4-0.5,0.6H-273.2
	z"/>
<path id="ArialMT-2e_1_" class="st1" d="M-271.3,429v-1.3h1.3v1.3H-271.3z"/>
<path id="ArialMT-35" class="st1" d="M-268.4,426.6l1.2-0.1c0.1,0.6,0.3,1,0.6,1.3c0.3,0.3,0.7,0.4,1.2,0.4c0.5,0,1-0.2,1.4-0.6
	c0.4-0.4,0.6-1,0.6-1.6c0-0.6-0.2-1.2-0.5-1.5c-0.4-0.4-0.8-0.6-1.4-0.6c-0.4,0-0.7,0.1-1,0.2c-0.3,0.2-0.5,0.4-0.7,0.6l-1.1-0.1
	l0.9-4.7h4.6v1.1h-3.7l-0.5,2.5c0.6-0.4,1.1-0.6,1.7-0.6c0.8,0,1.5,0.3,2,0.8c0.6,0.6,0.8,1.3,0.8,2.2c0,0.8-0.2,1.6-0.7,2.2
	c-0.6,0.7-1.4,1.1-2.4,1.1c-0.8,0-1.5-0.2-2.1-0.7C-268,428-268.3,427.4-268.4,426.6z"/>
<path id="mecb9e573b4_2_" class="st0" d="M-183.8,416v-6.4"/>
<path id="ArialMT-35_1_" class="st1" d="M-192.2,426.6l1.2-0.1c0.1,0.6,0.3,1,0.6,1.3c0.3,0.3,0.7,0.4,1.2,0.4c0.5,0,1-0.2,1.4-0.6
	c0.4-0.4,0.6-1,0.6-1.6c0-0.6-0.2-1.2-0.5-1.5c-0.4-0.4-0.8-0.6-1.4-0.6c-0.4,0-0.7,0.1-1,0.2c-0.3,0.2-0.5,0.4-0.7,0.6l-1.1-0.1
	l0.9-4.7h4.6v1.1h-3.7l-0.5,2.5c0.6-0.4,1.1-0.6,1.7-0.6c0.8,0,1.5,0.3,2,0.8c0.6,0.6,0.8,1.3,0.8,2.2c0,0.8-0.2,1.6-0.7,2.2
	c-0.6,0.7-1.4,1.1-2.4,1.1c-0.8,0-1.5-0.2-2.1-0.7C-191.8,428-192.2,427.4-192.2,426.6z"/>
<path id="ArialMT-2e_2_" class="st1" d="M-184.4,429v-1.3h1.3v1.3H-184.4z"/>
<path id="ArialMT-30_2_" class="st1" d="M-181.5,424.5c0-1.1,0.1-2,0.3-2.6c0.2-0.7,0.6-1.2,1-1.5c0.4-0.4,1-0.5,1.7-0.5
	c0.5,0,0.9,0.1,1.3,0.3c0.4,0.2,0.7,0.5,0.9,0.9c0.2,0.4,0.4,0.8,0.6,1.4c0.1,0.5,0.2,1.3,0.2,2.2c0,1.1-0.1,2-0.3,2.6
	c-0.2,0.7-0.6,1.2-1,1.5c-0.4,0.4-1,0.5-1.7,0.5c-0.9,0-1.6-0.3-2.1-1C-181.2,427.5-181.5,426.2-181.5,424.5z M-180.3,424.5
	c0,1.5,0.2,2.5,0.5,3c0.4,0.5,0.8,0.8,1.3,0.8c0.5,0,1-0.3,1.3-0.8c0.4-0.5,0.5-1.5,0.5-3c0-1.5-0.2-2.5-0.5-3
	c-0.4-0.5-0.8-0.7-1.3-0.7c-0.5,0-0.9,0.2-1.2,0.7C-180.1,421.9-180.3,423-180.3,424.5z"/>
<path id="mecb9e573b4_3_" class="st0" d="M-96.9,416v-6.4"/>
<path id="ArialMT-37" class="st1" d="M-105.3,421v-1.1h6v0.9c-0.6,0.6-1.2,1.5-1.7,2.5c-0.6,1-1,2.1-1.3,3.2
	c-0.2,0.8-0.4,1.6-0.4,2.5h-1.2c0-0.7,0.2-1.6,0.4-2.6c0.3-1,0.7-2,1.2-3c0.5-1,1.1-1.8,1.6-2.4H-105.3z"/>
<path id="ArialMT-2e_3_" class="st1" d="M-97.5,429v-1.3h1.3v1.3H-97.5z"/>
<path id="ArialMT-35_2_" class="st1" d="M-94.6,426.6l1.2-0.1c0.1,0.6,0.3,1,0.6,1.3c0.3,0.3,0.7,0.4,1.2,0.4c0.5,0,1-0.2,1.4-0.6
	c0.4-0.4,0.6-1,0.6-1.6c0-0.6-0.2-1.2-0.5-1.5c-0.4-0.4-0.8-0.6-1.4-0.6c-0.4,0-0.7,0.1-1,0.2c-0.3,0.2-0.5,0.4-0.7,0.6l-1.1-0.1
	l0.9-4.7h4.6v1.1h-3.7l-0.5,2.5c0.6-0.4,1.1-0.6,1.7-0.6c0.8,0,1.5,0.3,2,0.8c0.6,0.6,0.8,1.3,0.8,2.2c0,0.8-0.2,1.6-0.7,2.2
	c-0.6,0.7-1.4,1.1-2.4,1.1c-0.8,0-1.5-0.2-2.1-0.7C-94.2,428-94.5,427.4-94.6,426.6z"/>
<path id="mecb9e573b4_4_" class="st0" d="M-10,416v-6.4"/>
<path id="ArialMT-31" class="st1" d="M-17.8,429h-1.1v-7.2c-0.3,0.3-0.6,0.5-1.1,0.8c-0.4,0.3-0.8,0.5-1.2,0.6v-1.1
	c0.6-0.3,1.2-0.7,1.7-1.1c0.5-0.4,0.8-0.8,1-1.2h0.7V429z"/>
<path id="ArialMT-30_3_" class="st1" d="M-14.9,424.5c0-1.1,0.1-2,0.3-2.6c0.2-0.7,0.6-1.2,1-1.5c0.4-0.4,1-0.5,1.7-0.5
	c0.5,0,0.9,0.1,1.3,0.3c0.4,0.2,0.7,0.5,0.9,0.9c0.2,0.4,0.4,0.8,0.6,1.4c0.1,0.5,0.2,1.3,0.2,2.2c0,1.1-0.1,2-0.3,2.6
	c-0.2,0.7-0.6,1.2-1,1.5c-0.4,0.4-1,0.5-1.7,0.5c-0.9,0-1.6-0.3-2.1-1C-14.6,427.5-14.9,426.2-14.9,424.5z M-13.7,424.5
	c0,1.5,0.2,2.5,0.5,3c0.4,0.5,0.8,0.8,1.3,0.8c0.5,0,1-0.3,1.3-0.8c0.4-0.5,0.5-1.5,0.5-3c0-1.5-0.2-2.5-0.5-3
	c-0.4-0.5-0.8-0.7-1.3-0.7c-0.5,0-0.9,0.2-1.2,0.7C-13.5,421.9-13.7,423-13.7,424.5z"/>
<path id="ArialMT-2e_4_" class="st1" d="M-7.1,429v-1.3h1.3v1.3H-7.1z"/>
<path id="ArialMT-30_4_" class="st1" d="M-4.1,424.5c0-1.1,0.1-2,0.3-2.6c0.2-0.7,0.6-1.2,1-1.5c0.4-0.4,1-0.5,1.7-0.5
	c0.5,0,0.9,0.1,1.3,0.3c0.4,0.2,0.7,0.5,0.9,0.9c0.2,0.4,0.4,0.8,0.6,1.4c0.1,0.5,0.2,1.3,0.2,2.2c0,1.1-0.1,2-0.3,2.6
	c-0.2,0.7-0.6,1.2-1,1.5c-0.4,0.4-1,0.5-1.7,0.5c-0.9,0-1.6-0.3-2.1-1C-3.8,427.5-4.1,426.2-4.1,424.5z M-3,424.5
	c0,1.5,0.2,2.5,0.5,3c0.4,0.5,0.8,0.8,1.3,0.8c0.5,0,1-0.3,1.3-0.8c0.4-0.5,0.5-1.5,0.5-3c0-1.5-0.2-2.5-0.5-3
	c-0.4-0.5-0.8-0.7-1.3-0.7c-0.5,0-0.9,0.2-1.2,0.7C-2.8,421.9-3,423-3,424.5z"/>
<path id="mecb9e573b4_5_" class="st0" d="M76.8,416v-6.4"/>
<path id="ArialMT-31_1_" class="st1" d="M69.1,429H68v-7.2c-0.3,0.3-0.6,0.5-1.1,0.8c-0.4,0.3-0.8,0.5-1.2,0.6v-1.1
	c0.6-0.3,1.2-0.7,1.7-1.1c0.5-0.4,0.8-0.8,1-1.2h0.7V429z"/>
<path id="ArialMT-32_1_" class="st1" d="M78,427.9v1.1h-6.1c0-0.3,0-0.5,0.1-0.8c0.2-0.4,0.4-0.8,0.7-1.2c0.3-0.4,0.8-0.9,1.5-1.4
	c1-0.8,1.7-1.5,2-2c0.4-0.5,0.5-0.9,0.5-1.4c0-0.4-0.2-0.8-0.5-1.1c-0.3-0.3-0.7-0.5-1.3-0.5c-0.5,0-1,0.2-1.3,0.5
	c-0.3,0.3-0.5,0.8-0.5,1.4l-1.2-0.1c0.1-0.9,0.4-1.5,0.9-2c0.5-0.5,1.2-0.7,2.1-0.7c0.9,0,1.6,0.2,2.1,0.7c0.5,0.5,0.8,1.1,0.8,1.8
	c0,0.4-0.1,0.7-0.2,1.1c-0.2,0.4-0.4,0.7-0.8,1.1c-0.3,0.4-0.9,0.9-1.7,1.6c-0.7,0.6-1.1,1-1.3,1.2c-0.2,0.2-0.4,0.4-0.5,0.6H78z"/>
<path id="ArialMT-2e_5_" class="st1" d="M79.8,429v-1.3h1.3v1.3H79.8z"/>
<path id="ArialMT-35_3_" class="st1" d="M82.8,426.6l1.2-0.1c0.1,0.6,0.3,1,0.6,1.3c0.3,0.3,0.7,0.4,1.2,0.4c0.5,0,1-0.2,1.4-0.6
	c0.4-0.4,0.6-1,0.6-1.6c0-0.6-0.2-1.2-0.5-1.5c-0.4-0.4-0.8-0.6-1.4-0.6c-0.4,0-0.7,0.1-1,0.2c-0.3,0.2-0.5,0.4-0.7,0.6l-1.1-0.1
	l0.9-4.7h4.6v1.1h-3.7l-0.5,2.5c0.6-0.4,1.1-0.6,1.7-0.6c0.8,0,1.5,0.3,2,0.8c0.6,0.6,0.8,1.3,0.8,2.2c0,0.8-0.2,1.6-0.7,2.2
	c-0.6,0.7-1.4,1.1-2.4,1.1c-0.8,0-1.5-0.2-2.1-0.7C83.1,428,82.8,427.4,82.8,426.6z"/>
<path id="mecb9e573b4_6_" class="st0" d="M163.7,416v-6.4"/>
<path id="ArialMT-31_2_" class="st1" d="M156,429h-1.1v-7.2c-0.3,0.3-0.6,0.5-1.1,0.8c-0.4,0.3-0.8,0.5-1.2,0.6v-1.1
	c0.6-0.3,1.2-0.7,1.7-1.1c0.5-0.4,0.8-0.8,1-1.2h0.7V429z"/>
<path id="ArialMT-35_4_" class="st1" d="M158.9,426.6l1.2-0.1c0.1,0.6,0.3,1,0.6,1.3c0.3,0.3,0.7,0.4,1.2,0.4c0.5,0,1-0.2,1.4-0.6
	c0.4-0.4,0.6-1,0.6-1.6c0-0.6-0.2-1.2-0.5-1.5c-0.4-0.4-0.8-0.6-1.4-0.6c-0.4,0-0.7,0.1-1,0.2c-0.3,0.2-0.5,0.4-0.7,0.6l-1.1-0.1
	l0.9-4.7h4.6v1.1h-3.7l-0.5,2.5c0.6-0.4,1.1-0.6,1.7-0.6c0.8,0,1.5,0.3,2,0.8c0.6,0.6,0.8,1.3,0.8,2.2c0,0.8-0.2,1.6-0.7,2.2
	c-0.6,0.7-1.4,1.1-2.4,1.1c-0.8,0-1.5-0.2-2.1-0.7C159.3,428,159,427.4,158.9,426.6z"/>
<path id="ArialMT-2e_6_" class="st1" d="M166.7,429v-1.3h1.3v1.3H166.7z"/>
<path id="ArialMT-30_5_" class="st1" d="M169.6,424.5c0-1.1,0.1-2,0.3-2.6c0.2-0.7,0.6-1.2,1-1.5c0.4-0.4,1-0.5,1.7-0.5
	c0.5,0,0.9,0.1,1.3,0.3c0.4,0.2,0.7,0.5,0.9,0.9c0.2,0.4,0.4,0.8,0.6,1.4c0.1,0.5,0.2,1.3,0.2,2.2c0,1.1-0.1,2-0.3,2.6
	c-0.2,0.7-0.6,1.2-1,1.5c-0.4,0.4-1,0.5-1.7,0.5c-0.9,0-1.6-0.3-2.1-1C169.9,427.5,169.6,426.2,169.6,424.5z M170.8,424.5
	c0,1.5,0.2,2.5,0.5,3c0.4,0.5,0.8,0.8,1.3,0.8c0.5,0,1-0.3,1.3-0.8c0.4-0.5,0.5-1.5,0.5-3c0-1.5-0.2-2.5-0.5-3
	c-0.4-0.5-0.8-0.7-1.3-0.7c-0.5,0-0.9,0.2-1.2,0.7C171,421.9,170.8,423,170.8,424.5z"/>
<path id="mecb9e573b4_7_" class="st0" d="M250.6,416v-6.4"/>
<path id="ArialMT-31_3_" class="st1" d="M242.9,429h-1.1v-7.2c-0.3,0.3-0.6,0.5-1.1,0.8c-0.4,0.3-0.8,0.5-1.2,0.6v-1.1
	c0.6-0.3,1.2-0.7,1.7-1.1c0.5-0.4,0.8-0.8,1-1.2h0.7V429z"/>
<path id="ArialMT-37_1_" class="st1" d="M245.9,421v-1.1h6v0.9c-0.6,0.6-1.2,1.5-1.7,2.5c-0.6,1-1,2.1-1.3,3.2
	c-0.2,0.8-0.4,1.6-0.4,2.5h-1.2c0-0.7,0.2-1.6,0.4-2.6c0.3-1,0.7-2,1.2-3c0.5-1,1.1-1.8,1.6-2.4H245.9z"/>
<path id="ArialMT-2e_7_" class="st1" d="M253.6,429v-1.3h1.3v1.3H253.6z"/>
<path id="ArialMT-35_5_" class="st1" d="M256.5,426.6l1.2-0.1c0.1,0.6,0.3,1,0.6,1.3c0.3,0.3,0.7,0.4,1.2,0.4c0.5,0,1-0.2,1.4-0.6
	c0.4-0.4,0.6-1,0.6-1.6c0-0.6-0.2-1.2-0.5-1.5c-0.4-0.4-0.8-0.6-1.4-0.6c-0.4,0-0.7,0.1-1,0.2c-0.3,0.2-0.5,0.4-0.7,0.6l-1.1-0.1
	l0.9-4.7h4.6v1.1h-3.7l-0.5,2.5c0.6-0.4,1.1-0.6,1.7-0.6c0.8,0,1.5,0.3,2,0.8c0.6,0.6,0.8,1.3,0.8,2.2c0,0.8-0.2,1.6-0.7,2.2
	c-0.6,0.7-1.4,1.1-2.4,1.1c-0.8,0-1.5-0.2-2.1-0.7C256.9,428,256.6,427.4,256.5,426.6z"/>
<image style="overflow:visible;enable-background:new    ;" width="6480" height="360" id="image55a4720d9e" xlink:href="D1164723.png"  transform="matrix(9.654149e-002 0 0 -9.654149e-002 -357.5888 416.0482)">
</image>
<path class="st2" d="M-357.6,416h2.4h620.7h2.4v-34.8h-2.4h-620.7h-2.4V416z"/>
</svg>
