<?xml version="1.0" encoding="utf-8"?>
<!-- Generator: Adobe Illustrator 16.0.0, SVG Export Plug-In . SVG Version: 6.00 Build 0)  -->
<!DOCTYPE svg PUBLIC "-//W3C//DTD SVG 1.1//EN" "http://www.w3.org/Graphics/SVG/1.1/DTD/svg11.dtd">
<svg version="1.1" id="Layer_1" xmlns="http://www.w3.org/2000/svg" xmlns:xlink="http://www.w3.org/1999/xlink" x="0px" y="0px"
	 width="504px" height="127px" viewBox="0 0 504 127" enable-background="new 0 0 504 127" xml:space="preserve">
<g>
	<path fill="#58595B" d="M350.294,112.933c-0.357,0-0.645-0.29-0.645-0.643V19.382c0-0.353,0.287-0.642,0.645-0.642
		c0.354,0,0.642,0.289,0.642,0.642v92.908C350.936,112.643,350.648,112.933,350.294,112.933z"/>
	<g>
		<g>
			<path fill="#72BF44" d="M25.769,47.905h6.228c0.63,0,1.255-0.052,1.865-0.151c0.361-0.059,0.643-0.333,0.72-0.686
				c2.382-11.132,12.29-19.504,24.121-19.504h1.278c0.246-1.344,0.378-2.72,0.378-4.115v-4.436h-1.657
				C41.822,19.013,27.892,31.604,25.769,47.905z"/>
			<path fill="#FFCB05" d="M53.539,103.521c-11.13-2.382-19.502-12.289-19.502-24.118v-1.277c-1.346-0.249-2.722-0.38-4.119-0.38
				h-4.434v1.657c0,16.88,12.593,30.811,28.894,32.932v-6.229c0-0.63-0.052-1.253-0.151-1.863
				C54.167,103.882,53.896,103.601,53.539,103.521z"/>
			<path fill="#DE8194" d="M110.713,83.878c-0.359,0.06-0.643,0.329-0.72,0.686c-2.38,11.132-12.29,19.505-24.119,19.505h-1.278
				c-0.248,1.344-0.379,2.719-0.379,4.114l0,0v4.437h1.657c16.88,0,30.809-12.591,32.932-28.893h-6.226
				C111.948,83.727,111.325,83.778,110.713,83.878z"/>
			<path fill="#00ADE8" d="M90.197,19.299v6.224c0,0.634,0.054,1.257,0.152,1.867c0.058,0.361,0.329,0.643,0.686,0.722
				c11.132,2.382,19.504,12.29,19.504,24.119v1.276c1.346,0.25,2.722,0.38,4.119,0.38h4.432V52.23
				C119.091,35.35,106.499,21.419,90.197,19.299z"/>
			<polygon fill="#0075C9" points="60.359,108.183 60.359,108.183 60.359,112.619 60.359,112.619 60.359,108.183 			"/>
			<polygon fill="#904799" points="84.217,112.619 84.217,112.619 84.217,108.183 84.217,108.183 84.217,108.183 			"/>
			<polygon fill="#0075C9" points="84.217,23.449 84.217,23.445 84.217,19.013 84.217,19.013 84.217,23.445 			"/>
			<polygon fill="#904799" points="60.359,19.013 60.359,19.013 60.359,23.445 60.359,23.449 60.359,23.445 			"/>
			<path fill="#F58229" d="M63.751,90.708c-1.116-1.649-2.395-3.207-3.833-4.646l-7.875-7.878c-1.439-1.438-2.997-2.715-4.646-3.833
				c-5.122-3.465-11.158-5.328-17.479-5.328h-4.434v8.722h4.434c6.028,0,11.695,2.347,15.957,6.608l7.877,7.877
				c4.26,4.262,6.606,9.927,6.608,15.952v4.437h8.722v-4.437C69.081,101.864,67.216,95.83,63.751,90.708z"/>
			<path fill="#006554" d="M66.96,47.342c-0.785,0.952-1.622,1.875-2.508,2.759l-7.877,7.877c-0.886,0.888-1.808,1.725-2.763,2.51
				c-2.654,2.18-5.566,3.96-8.656,5.328c-4.739,2.093-9.903,3.208-15.239,3.208l0,0c6.321,0,12.357,1.863,17.479,5.328
				c2.216-0.9,4.36-1.971,6.416-3.207c2.535-1.526,4.938-3.311,7.175-5.329c0.597-0.539,1.184-1.094,1.756-1.669l7.875-7.877
				c0.575-0.571,1.13-1.158,1.669-1.756C70.269,52.278,68.486,49.875,66.96,47.342z"/>
			<path fill="#00A88E" d="M60.359,19.013v4.436c-0.002,6.026-2.349,11.691-6.608,15.953l-7.877,7.877
				c-4.262,4.262-9.929,6.608-15.957,6.608h-4.434v8.722h4.434c6.321,0,12.357-1.867,17.479-5.332
				c1.649-1.114,3.207-2.395,4.646-3.833l7.875-7.873c1.439-1.439,2.718-2.997,3.833-4.646c3.465-5.122,5.33-11.155,5.33-17.479
				v-4.432H60.359z"/>
			<path fill="#1B3A6A" d="M87.999,57.979l-7.877-7.877c-0.884-0.884-1.721-1.808-2.506-2.759c-2.182-2.656-3.962-5.566-5.328-8.658
				c-2.095-4.737-3.207-9.903-3.207-15.239l0,0c0,6.323-1.865,12.357-5.33,17.479l0,0c0.9,2.216,1.97,4.361,3.209,6.418
				c1.526,2.533,3.308,4.936,5.328,7.171c0.54,0.599,1.094,1.186,1.667,1.756l7.875,7.877c0.575,0.575,1.162,1.13,1.758,1.669
				c2.238-2.021,4.64-3.802,7.175-5.328C89.809,59.703,88.885,58.867,87.999,57.979z"/>
			<path fill="#006BB6" d="M114.659,53.887c-6.028,0-11.695-2.347-15.957-6.608l-7.877-7.877c-4.262-4.262-6.609-9.927-6.609-15.953
				v-4.436h-8.721v4.432c0,6.323,1.865,12.357,5.33,17.479c1.116,1.649,2.392,3.208,3.832,4.646l7.877,7.873
				c1.439,1.439,2.997,2.72,4.646,3.833c5.122,3.465,11.155,5.332,17.479,5.332h4.432v-8.722l0,0l0,0H114.659z"/>
			<path fill="#6C3F99" d="M114.659,62.609c-6.323,0-12.357-1.867-17.479-5.332c-2.216,0.9-4.361,1.97-6.417,3.211
				c-2.535,1.526-4.938,3.306-7.175,5.328c-0.597,0.54-1.184,1.094-1.758,1.669l-7.875,7.877c-0.573,0.571-1.127,1.157-1.667,1.756
				c2.02,2.236,3.8,4.639,5.328,7.172c0.785-0.955,1.622-1.875,2.506-2.764l7.877-7.877c0.886-0.884,1.81-1.721,2.765-2.505
				c2.654-2.185,5.566-3.961,8.656-5.329C104.16,63.719,109.323,62.609,114.659,62.609L114.659,62.609z"/>
			<path fill="#A23293" d="M114.659,69.023c-6.323,0-12.357,1.863-17.479,5.328c-1.649,1.118-3.208,2.395-4.646,3.833l-7.877,7.878
				c-1.439,1.438-2.716,2.996-3.832,4.646l0,0c-3.465,5.122-5.33,11.156-5.33,17.475v4.437h8.721v-4.437l0,0
				c0-6.025,2.347-11.69,6.609-15.952l7.877-7.877c4.262-4.262,9.929-6.608,15.957-6.608h4.432v-8.722H114.659z"/>
			<path fill="#F26664" d="M77.616,84.29c-1.528-2.533-3.308-4.936-5.328-7.172c-0.539-0.599-1.094-1.185-1.669-1.756l-7.875-7.877
				c-0.573-0.575-1.16-1.13-1.756-1.669c-2.238,2.018-4.64,3.802-7.175,5.329c0.956,0.784,1.877,1.621,2.763,2.505l7.877,7.877
				c0.886,0.889,1.723,1.809,2.508,2.764c2.182,2.656,3.96,5.565,5.328,8.658c2.095,4.737,3.208,9.898,3.208,15.234
				c0-6.318,1.865-12.353,5.33-17.475l0,0C79.926,88.492,78.855,86.348,77.616,84.29z"/>
		</g>
		<path fill="#1B3A6A" d="M292.385,54.458c0.832,0,1.528-0.444,1.8-1.186l1.463-4.028c0.131-0.357,0.016-0.531-0.373-0.531h-9.794
			c-0.811,0-1.621,0.373-1.992,1.324l-1.415,3.889c-0.129,0.353-0.016,0.531,0.373,0.531H292.385z M168.376,49.293h-7.013
			c-1.354,0-2.171,0.476-2.751,1.657l-5.742,12.19l-5.691-12.182c-0.626-1.182-1.566-1.665-2.819-1.665h-6.625
			c-0.749,0-0.949,0.349-0.549,1.098l11.037,21.693v12.135c0,0.551,0.25,0.853,0.75,0.853h7.742c0.5,0,0.749-0.302,0.749-0.853
			V72.183l11.461-21.792C169.325,49.642,169.125,49.293,168.376,49.293z M192.753,57.812h-5.729c-1.158,0-2.014,0.797-2.014,2.006
			v18.28h-3.219c-2.214,0.048-3.271-0.143-3.992-1.011c-0.577-1.055-0.817-2.641-0.722-6.058V58.581c0-0.531-0.24-0.769-0.719-0.769
			h-5.64c-1.13,0-2.053,0.924-2.053,2.054v13.712c0,5.003,0.479,7.695,2.354,9.471c1.875,1.78,4.472,2.26,9.471,2.26
			c5.144,0,9.231-0.289,12.262-0.864c0.575-0.146,0.672-0.241,0.672-0.816V58.581C193.425,58.05,193.183,57.812,192.753,57.812z
			 M218.933,58.193c-2.093-0.405-4.093-0.623-7.459-0.623c-6.539,0.143-9.615,0.816-11.346,4.23
			c-1.009,2.26-1.394,4.952-1.394,9.618v0.047c0,4.662,0.385,7.354,1.394,9.614c1.73,3.413,4.807,4.087,11.346,4.229
			c3.366,0,5.366-0.218,7.459-0.622c1.062-0.206,1.53-0.972,1.53-2.188v-3.631c0-0.527-0.29-0.77-0.864-0.77h-8.125
			c-1.778,0-2.981-0.432-3.558-1.297c-0.521-0.855-0.809-2.604-0.816-5.24h0.002c0-0.044-0.002-0.079-0.002-0.119
			c0-0.044,0.002-0.079,0.002-0.123H207.1c0.008-2.636,0.295-4.384,0.816-5.237c0.577-0.868,1.78-1.3,3.558-1.3h8.125
			c0.575,0,0.864-0.242,0.864-0.769v-3.631C220.463,59.164,219.996,58.399,218.933,58.193z M328.539,59.83
			c-1.877-1.78-4.472-2.26-9.425-2.26c-5.815,0-9.951,0.29-12.308,0.864c-0.432,0.099-0.672,0.146-0.672,0.722v25.142
			c0,0.531,0.24,0.773,0.672,0.773h7.068c0.479,0,0.722-0.242,0.722-0.773V64.781h3.221c2.355,0,3.174-0.047,3.942,1.059
			c0.77,1.106,0.77,2.402,0.77,6.01v12.448c0,0.531,0.24,0.773,0.674,0.773h6.97c0.481,0,0.722-0.242,0.722-0.773V69.253
			C330.895,64.254,330.412,61.61,328.539,59.83z M287.786,57.57c-3.195,0-5.99,0.194-8.404,0.63
			c-1.118,0.198-1.644,0.864-1.644,2.18v3.679c0,0.479,0.192,0.721,0.624,0.721h9.424c2.449,0,3.653,0.963,3.653,2.835v0.963
			l-5.287,0.048c-3.702,0-6.349,0.531-7.982,1.633c-1.635,1.059-2.451,3.224-2.499,6.442c0.289,4.904,1.394,6.974,4.52,7.933
			c1.105,0.289,2.212,0.483,3.221,0.531c1.057,0.095,2.452,0.143,4.232,0.143c4.085,0,7.738-0.337,11.056-1.011
			c0.77-0.19,1.154-0.718,1.154-1.534V66.225C299.854,61.079,298.315,57.618,287.786,57.57z M291.439,78.192
			c-1.057,0.242-2.405,0.389-4.086,0.389c-2.645,0-3.415-0.531-3.415-2.454c0-1.779,0.724-2.501,3.03-2.501h4.471V78.192z
			 M236.664,57.57c-3.195,0-5.99,0.194-8.404,0.63c-1.116,0.198-1.643,0.864-1.643,2.18v3.679c0,0.479,0.194,0.721,0.626,0.721
			h9.421c2.452,0,3.655,0.963,3.655,2.835v0.963l-5.291,0.048c-3.699,0-6.345,0.531-7.98,1.633
			c-1.633,1.059-2.452,3.224-2.498,6.442c0.287,4.904,1.394,6.974,4.517,7.933c1.106,0.289,2.212,0.483,3.221,0.531
			c1.059,0.095,2.452,0.143,4.23,0.143c4.087,0,7.74-0.337,11.059-1.011c0.769-0.19,1.153-0.718,1.153-1.534V66.225
			C248.731,61.079,247.193,57.618,236.664,57.57z M240.319,78.192c-1.057,0.242-2.404,0.389-4.087,0.389
			c-2.644,0-3.413-0.531-3.413-2.454c0-1.779,0.72-2.501,3.029-2.501h4.472V78.192z M270.156,77.816h-1.896
			c-2.149,0-2.847-0.448-2.847-2.498V63.331h4.295c0.55,0,0.849-0.25,0.849-0.801v-4.845c0-0.5-0.299-0.749-0.849-0.749h-4.295
			V50.49c0-0.599-0.426-0.797-0.868-0.797l-5.399-0.016c-1.438,0-2.424,0.65-2.424,2.49v4.769h-2.998c-0.551,0-0.85,0.25-0.85,0.749
			v4.845c0,0.551,0.299,0.801,0.85,0.801h2.998v15.136c0,3.194,0.749,5.094,2.547,5.946c0.949,0.396,1.798,0.646,2.547,0.745
			c0.799,0.103,1.948,0.15,3.397,0.15c1.348,0,2.997-0.198,4.943-0.547c0.551-0.104,0.853-0.452,0.853-0.999v-5.197
			C271.009,78.066,270.707,77.816,270.156,77.816z"/>
		<g>
			<path fill="#1B3A6A" d="M147.286,30.038c0.18,0,0.27,0.087,0.27,0.27v6.601c0.02,2.672-0.396,4.496-1.209,5.451
				c-0.811,0.955-2.363,1.443-4.694,1.443c-1.027,0-1.984-0.087-2.87-0.27c-0.27-0.056-0.412-0.218-0.412-0.452v-1.479
				c0-0.183,0.089-0.27,0.27-0.27h3.013c1.247,0,2.077-0.29,2.474-0.888c0.417-0.595,0.615-1.784,0.597-3.536l-0.006-6.601
				c0-0.183,0.091-0.27,0.271-0.27H147.286z"/>
			<path fill="#1B3A6A" d="M158.423,33.606c0.163,0,0.252,0.091,0.252,0.27v9.312c0,0.218-0.054,0.254-0.252,0.31
				c-1.064,0.198-2.509,0.305-4.331,0.305c-1.823,0-2.743-0.143-3.467-0.793c-0.704-0.65-0.884-1.661-0.884-3.556v-5.578
				c0-0.178,0.089-0.27,0.29-0.27h2.128c0.163,0,0.254,0.091,0.254,0.27v4.892c0,0.884,0.054,1.514,0.163,1.895
				c0.216,0.722,0.559,0.833,1.786,0.833h1.625v-7.62c0-0.178,0.089-0.27,0.27-0.27H158.423z"/>
			<path fill="#1B3A6A" d="M168.859,34.308c0.722,0.65,0.902,1.661,0.902,3.54v5.578c0,0.198-0.089,0.289-0.29,0.289h-2.131
				c-0.18,0-0.27-0.091-0.27-0.289v-4.892c0-1.356-0.018-1.931-0.361-2.312c-0.307-0.376-0.632-0.396-1.57-0.396h-1.643v7.6
				c0,0.198-0.089,0.289-0.271,0.289h-2.149c-0.178,0-0.27-0.091-0.27-0.289v-9.333c0-0.218,0.091-0.234,0.27-0.27
				c0.922-0.202,2.347-0.309,4.315-0.309C167.216,33.515,168.154,33.657,168.859,34.308z"/>
			<path fill="#1B3A6A" d="M174.727,30.807c0.198-0.056,0.287,0.036,0.287,0.27v2.581h1.663c0.196,0,0.305,0.091,0.305,0.273v1.443
				c0,0.182-0.109,0.27-0.305,0.27h-1.663v4.928c0,0.741,0.254,0.924,1.066,0.924h0.739c0.198,0,0.308,0.087,0.308,0.27v1.534
				c0,0.198-0.091,0.305-0.288,0.345c-0.543,0.107-1.049,0.159-1.536,0.159c-0.775,0-1.1,0-1.697-0.159
				c-0.848-0.238-1.191-0.797-1.263-2.168v-5.832h-1.066c-0.198,0-0.29-0.087-0.29-0.27v-1.443c0-0.182,0.091-0.273,0.29-0.273
				h1.066v-2.002c0-0.163,0.089-0.253,0.252-0.289L174.727,30.807z"/>
			<path fill="#1B3A6A" d="M186.568,34.562c0.722,0.792,0.904,1.95,0.904,4.099c0,2.074-0.307,3.445-0.904,4.131
				c-0.597,0.67-1.841,1.011-3.701,1.011s-3.104-0.341-3.701-1.011c-0.595-0.686-0.902-2.057-0.902-4.131
				c0-2.077,0.307-3.449,0.902-4.119c0.597-0.682,1.841-1.027,3.701-1.027C184.818,33.515,185.847,33.749,186.568,34.562z
				 M181.298,36.385c-0.236,0.361-0.343,1.118-0.343,2.275c0,1.154,0.107,1.911,0.343,2.292c0.234,0.361,0.757,0.543,1.57,0.543
				c0.812,0,1.336-0.183,1.572-0.543c0.234-0.38,0.361-1.138,0.361-2.292c0-1.157-0.127-1.915-0.361-2.275
				c-0.236-0.38-0.759-0.559-1.572-0.559C182.055,35.826,181.532,36.004,181.298,36.385z"/>
			<path fill="#1B3A6A" d="M196.045,33.749c0.2,0.056,0.29,0.147,0.29,0.29v1.372c0,0.198-0.109,0.29-0.307,0.29h-3.249
				c-0.704,0-1.064,0.218-1.064,0.65v0.178c0,0.345,0.29,0.635,0.866,0.833l2.312,0.812c1.443,0.503,1.895,1.352,1.895,2.708v0.286
				c0,1.97-1.336,2.636-3.846,2.636c-1.336,0-2.581-0.052-3.736-0.179c-0.198,0-0.307-0.091-0.307-0.27v-1.462
				c0-0.183,0.109-0.27,0.307-0.27h3.701c0.958,0,1.245-0.126,1.245-0.618v-0.159c0-0.361-0.216-0.579-0.991-0.853l-2.222-0.792
				c-1.227-0.413-1.839-1.332-1.839-2.744v-0.345c0-1.855,1.37-2.597,4.097-2.597C194.188,33.515,195.143,33.586,196.045,33.749z"/>
			<path fill="#1B3A6A" d="M204.675,30.807c0.198-0.056,0.29,0.036,0.29,0.27v2.581h1.661c0.198,0,0.307,0.091,0.307,0.273v1.443
				c0,0.182-0.109,0.27-0.307,0.27h-1.661v4.928c0,0.741,0.252,0.924,1.064,0.924h0.741c0.198,0,0.305,0.087,0.305,0.27v1.534
				c0,0.198-0.089,0.305-0.287,0.345c-0.542,0.107-1.047,0.159-1.536,0.159c-0.775,0-1.1,0-1.697-0.159
				c-0.849-0.238-1.189-0.797-1.263-2.168v-5.832h-1.064c-0.198,0-0.29-0.087-0.29-0.27v-1.443c0-0.182,0.091-0.273,0.29-0.273
				h1.064v-2.002c0-0.163,0.089-0.253,0.251-0.289L204.675,30.807z"/>
			<path fill="#1B3A6A" d="M214.152,33.713c0.2,0.056,0.289,0.163,0.289,0.361v1.482c0,0.179-0.107,0.27-0.305,0.27h-1.697
				c-0.995,0-1.265,0.179-1.265,0.92v6.68c0,0.198-0.089,0.289-0.271,0.289h-2.146c-0.183,0-0.271-0.091-0.271-0.289V36.06
				c0-0.868,0.289-1.518,0.668-1.879c0.668-0.559,1.589-0.666,2.599-0.666C212.783,33.515,213.575,33.586,214.152,33.713z"/>
			<path fill="#1B3A6A" d="M222.584,34.272c0.614,0.507,0.919,1.284,0.919,2.347v6.248c0,0.285-0.127,0.468-0.396,0.559
				c-1.102,0.253-2.474,0.376-4.099,0.376c-1.514,0-2.273-0.071-3.066-0.488c-0.777-0.432-1.084-1.245-1.102-2.632
				c0.018-1.158,0.308-1.931,0.884-2.347c0.597-0.417,1.534-0.615,2.816-0.615h2.292v-0.65c0-0.833-0.559-1.245-1.697-1.245h-3.267
				c-0.198,0-0.251-0.055-0.251-0.27v-1.482c0-0.198,0.053-0.234,0.251-0.29c0.92-0.178,2.004-0.27,3.267-0.27
				C220.814,33.515,221.97,33.769,222.584,34.272z M220.832,39.453h-2.073c-0.939,0-1.265,0.29-1.265,1.083
				c0,0.848,0.378,1.102,1.534,1.102c0.775,0,1.372-0.056,1.804-0.183V39.453z"/>
			<path fill="#1B3A6A" d="M233.631,34.308c0.724,0.65,0.904,1.661,0.904,3.54v5.578c0,0.198-0.091,0.289-0.289,0.289h-2.131
				c-0.181,0-0.27-0.091-0.27-0.289v-4.892c0-1.356-0.018-1.931-0.361-2.312c-0.307-0.376-0.632-0.396-1.572-0.396h-1.642v7.6
				c0,0.198-0.089,0.289-0.271,0.289h-2.148c-0.179,0-0.27-0.091-0.27-0.289v-9.333c0-0.218,0.091-0.234,0.27-0.27
				c0.921-0.202,2.349-0.309,4.315-0.309C231.99,33.515,232.927,33.657,233.631,34.308z"/>
			<path fill="#1B3A6A" d="M243.346,33.749c0.198,0.056,0.287,0.147,0.287,0.29v1.372c0,0.198-0.107,0.29-0.307,0.29h-3.249
				c-0.704,0-1.064,0.218-1.064,0.65v0.178c0,0.345,0.289,0.635,0.866,0.833l2.309,0.812c1.445,0.503,1.897,1.352,1.897,2.708v0.286
				c0,1.97-1.336,2.636-3.843,2.636c-1.338,0-2.583-0.052-3.739-0.179c-0.198,0-0.307-0.091-0.307-0.27v-1.462
				c0-0.183,0.109-0.27,0.307-0.27h3.699c0.959,0,1.247-0.126,1.247-0.618v-0.159c0-0.361-0.216-0.579-0.993-0.853l-2.22-0.792
				c-1.227-0.413-1.839-1.332-1.839-2.744v-0.345c0-1.855,1.37-2.597,4.095-2.597C241.486,33.515,242.442,33.586,243.346,33.749z"/>
			<path fill="#1B3A6A" d="M251.631,29.832c0.198,0.036,0.29,0.146,0.29,0.345v1.499c0,0.198-0.109,0.29-0.307,0.29h-1.425
				c-0.741,0-1.011,0.123-1.011,0.702v0.955h2.2c0.182,0,0.253,0.111,0.218,0.309l-0.271,1.515
				c-0.036,0.163-0.145,0.254-0.307,0.254h-1.839v7.727c0,0.198-0.091,0.289-0.271,0.289h-2.131c-0.181,0-0.27-0.091-0.27-0.289
				v-7.727h-1.174c-0.2,0-0.307-0.091-0.307-0.27v-1.534c0-0.183,0.107-0.274,0.307-0.274h1.174v-1.427
				c0-1.082,0.343-1.784,0.991-2.128c0.65-0.341,1.247-0.413,2.185-0.413C250.349,29.653,250.999,29.705,251.631,29.832z"/>
			<path fill="#1B3A6A" d="M260.422,34.562c0.724,0.792,0.904,1.95,0.904,4.099c0,2.074-0.308,3.445-0.904,4.131
				c-0.597,0.67-1.842,1.011-3.7,1.011c-1.859,0-3.104-0.341-3.701-1.011c-0.595-0.686-0.902-2.057-0.902-4.131
				c0-2.077,0.307-3.449,0.902-4.119c0.597-0.682,1.842-1.027,3.701-1.027C258.672,33.515,259.7,33.749,260.422,34.562z
				 M255.151,36.385c-0.233,0.361-0.343,1.118-0.343,2.275c0,1.154,0.109,1.911,0.343,2.292c0.233,0.361,0.757,0.543,1.57,0.543
				c0.812,0,1.336-0.183,1.569-0.543c0.236-0.38,0.363-1.138,0.363-2.292c0-1.157-0.127-1.915-0.363-2.275
				c-0.233-0.38-0.757-0.559-1.569-0.559C255.908,35.826,255.385,36.004,255.151,36.385z"/>
			<path fill="#1B3A6A" d="M268.816,33.713c0.198,0.056,0.289,0.163,0.289,0.361v1.482c0,0.179-0.106,0.27-0.307,0.27h-1.697
				c-0.993,0-1.263,0.179-1.263,0.92v6.68c0,0.198-0.091,0.289-0.271,0.289h-2.146c-0.183,0-0.271-0.091-0.271-0.289V36.06
				c0-0.868,0.287-1.518,0.668-1.879c0.668-0.559,1.588-0.666,2.599-0.666C267.445,33.515,268.239,33.586,268.816,33.713z"/>
			<path fill="#1B3A6A" d="M283.492,34.308c0.562,0.523,0.849,1.538,0.849,3.033l-0.018,6.085c0,0.198-0.09,0.289-0.27,0.289h-2.131
				c-0.181,0-0.27-0.091-0.27-0.289v-4.892c-0.092-2.652-0.163-2.636-1.717-2.708c-0.523,0-1.011,0.036-1.461,0.107
				c0.16,0.468,0.233,1.102,0.233,1.915l-0.018,5.578c0,0.198-0.091,0.289-0.254,0.289h-2.146c-0.162,0-0.252-0.091-0.252-0.289
				v-5.507c0-1.031-0.055-1.518-0.362-1.788c-0.308-0.286-0.577-0.306-1.372-0.306h-1.227v7.6c0,0.198-0.091,0.289-0.271,0.289
				h-2.131c-0.179,0-0.27-0.091-0.27-0.289v-9.333c0-0.146,0.071-0.234,0.233-0.27c0.94-0.202,2.094-0.309,3.467-0.309
				c1.354,0,2.437,0.198,3.231,0.579c1.028-0.396,2.075-0.598,3.14-0.598C281.923,33.495,282.934,33.769,283.492,34.308z"/>
			<path fill="#1B3A6A" d="M294.2,34.525c0.595,0.666,0.884,2.002,0.901,4.008v0.559c0,0.36-0.126,0.487-0.578,0.487h-5.667
				c0.018,0.793,0.145,1.316,0.416,1.55c0.27,0.238,0.811,0.365,1.623,0.365h3.193c0.183,0,0.271,0.087,0.271,0.27v1.499
				c0,0.163-0.089,0.27-0.251,0.289c-0.813,0.163-1.951,0.25-3.449,0.25c-1.824,0-3.033-0.341-3.628-1.027
				c-0.595-0.686-0.901-2.058-0.901-4.115c0-2.077,0.307-3.449,0.901-4.119c0.595-0.682,1.804-1.027,3.628-1.027
				C292.448,33.515,293.621,33.859,294.2,34.525z M288.836,37.828h3.576c-0.018-1.57-0.434-2.002-1.752-2.002
				C289.288,35.826,288.856,36.258,288.836,37.828z"/>
			<path fill="#1B3A6A" d="M309.869,34.308c0.559,0.523,0.847,1.538,0.847,3.033l-0.019,6.085c0,0.198-0.089,0.289-0.27,0.289
				h-2.131c-0.18,0-0.27-0.091-0.27-0.289v-4.892c-0.091-2.652-0.162-2.636-1.714-2.708c-0.525,0-1.011,0.036-1.463,0.107
				c0.162,0.468,0.233,1.102,0.233,1.915l-0.018,5.578c0,0.198-0.091,0.289-0.254,0.289h-2.146c-0.162,0-0.252-0.091-0.252-0.289
				v-5.507c0-1.031-0.056-1.518-0.36-1.788c-0.308-0.286-0.579-0.306-1.374-0.306h-1.227v7.6c0,0.198-0.092,0.289-0.27,0.289h-2.131
				c-0.181,0-0.271-0.091-0.271-0.289v-9.333c0-0.146,0.073-0.234,0.235-0.27c0.938-0.202,2.094-0.309,3.465-0.309
				c1.354,0,2.437,0.198,3.231,0.579c1.028-0.396,2.075-0.598,3.142-0.598C308.297,33.495,309.309,33.769,309.869,34.308z"/>
			<path fill="#1B3A6A" d="M320.809,34.562c0.722,0.792,0.902,1.95,0.902,4.099c0,2.074-0.306,3.445-0.902,4.131
				c-0.595,0.67-1.841,1.011-3.7,1.011c-1.857,0-3.104-0.341-3.701-1.011c-0.595-0.686-0.901-2.057-0.901-4.131
				c0-2.077,0.307-3.449,0.901-4.119c0.597-0.682,1.844-1.027,3.701-1.027C319.057,33.515,320.087,33.749,320.809,34.562z
				 M315.538,36.385c-0.235,0.361-0.343,1.118-0.343,2.275c0,1.154,0.107,1.911,0.343,2.292c0.234,0.361,0.759,0.543,1.57,0.543
				c0.812,0,1.336-0.183,1.571-0.543c0.234-0.38,0.361-1.138,0.361-2.292c0-1.157-0.127-1.915-0.361-2.275
				c-0.235-0.38-0.759-0.559-1.571-0.559C316.297,35.826,315.772,36.004,315.538,36.385z"/>
			<path fill="#1B3A6A" d="M330.287,33.749c0.198,0.056,0.288,0.147,0.288,0.29v1.372c0,0.198-0.107,0.29-0.306,0.29h-3.251
				c-0.703,0-1.064,0.218-1.064,0.65v0.178c0,0.345,0.29,0.635,0.866,0.833l2.312,0.812c1.443,0.503,1.896,1.352,1.896,2.708v0.286
				c0,1.97-1.337,2.636-3.844,2.636c-1.336,0-2.583-0.052-3.738-0.179c-0.198,0-0.306-0.091-0.306-0.27v-1.462
				c0-0.183,0.107-0.27,0.306-0.27h3.7c0.958,0,1.245-0.126,1.245-0.618v-0.159c0-0.361-0.216-0.579-0.991-0.853l-2.222-0.792
				c-1.228-0.413-1.84-1.332-1.84-2.744v-0.345c0-1.855,1.372-2.597,4.098-2.597C328.428,33.515,329.384,33.586,330.287,33.749z"/>
		</g>
		<g>
			<path fill="#006BB6" d="M146.703,104.865c-0.418,0.178-0.841,0.266-1.267,0.266c-0.674,0-1.279-0.119-1.816-0.354
				c-0.537-0.233-0.991-0.555-1.36-0.963c-0.371-0.412-0.652-0.893-0.85-1.447c-0.196-0.555-0.295-1.149-0.295-1.792
				c0-0.654,0.099-1.265,0.295-1.827c0.198-0.563,0.479-1.051,0.85-1.471c0.369-0.416,0.823-0.745,1.36-0.983
				s1.142-0.356,1.816-0.356c0.45,0,0.888,0.067,1.31,0.202s0.805,0.333,1.146,0.599c0.339,0.262,0.621,0.586,0.843,0.971
				c0.22,0.385,0.356,0.829,0.406,1.328h-1.848c-0.115-0.491-0.337-0.86-0.664-1.105c-0.327-0.246-0.725-0.373-1.193-0.373
				c-0.437,0-0.805,0.087-1.108,0.254c-0.303,0.17-0.549,0.393-0.737,0.678c-0.19,0.281-0.327,0.606-0.414,0.967
				c-0.085,0.361-0.129,0.734-0.129,1.118c0,0.369,0.043,0.729,0.129,1.078c0.087,0.35,0.224,0.662,0.414,0.94
				c0.188,0.281,0.434,0.503,0.737,0.67c0.303,0.17,0.672,0.253,1.108,0.253c0.64,0,1.134-0.162,1.482-0.487
				c0.349-0.321,0.551-0.793,0.608-1.407h-1.944v-1.439h3.693v4.75h-1.231l-0.196-0.995
				C147.504,104.377,147.121,104.69,146.703,104.865z"/>
			<path fill="#006BB6" d="M150.752,98.748c0.196-0.563,0.48-1.051,0.849-1.471c0.371-0.416,0.822-0.745,1.362-0.983
				c0.535-0.238,1.142-0.356,1.813-0.356c0.682,0,1.288,0.118,1.821,0.356s0.985,0.567,1.356,0.983
				c0.369,0.42,0.65,0.907,0.849,1.471c0.196,0.562,0.295,1.173,0.295,1.827c0,0.643-0.099,1.237-0.295,1.792
				c-0.198,0.555-0.48,1.035-0.849,1.447c-0.371,0.408-0.823,0.729-1.356,0.963c-0.533,0.234-1.14,0.354-1.821,0.354
				c-0.672,0-1.278-0.119-1.813-0.354c-0.54-0.233-0.991-0.555-1.362-0.963c-0.369-0.412-0.652-0.893-0.849-1.447
				s-0.295-1.149-0.295-1.792C150.457,99.921,150.556,99.311,150.752,98.748z M152.519,101.653c0.087,0.35,0.224,0.662,0.412,0.94
				c0.188,0.281,0.437,0.503,0.738,0.67c0.305,0.17,0.674,0.253,1.108,0.253c0.436,0,0.805-0.083,1.108-0.253
				c0.303-0.167,0.549-0.389,0.739-0.67c0.188-0.278,0.325-0.591,0.413-0.94c0.085-0.349,0.129-0.709,0.129-1.078
				c0-0.384-0.044-0.757-0.129-1.118c-0.087-0.36-0.224-0.686-0.413-0.967c-0.19-0.285-0.436-0.508-0.739-0.678
				c-0.303-0.167-0.672-0.254-1.108-0.254c-0.434,0-0.803,0.087-1.108,0.254c-0.301,0.17-0.549,0.393-0.738,0.678
				c-0.188,0.281-0.325,0.606-0.412,0.967c-0.087,0.361-0.129,0.734-0.129,1.118C152.39,100.944,152.432,101.305,152.519,101.653z"
				/>
			<path fill="#006BB6" d="M164.548,96.147c0.418,0,0.801,0.035,1.146,0.106c0.345,0.076,0.64,0.198,0.886,0.365
				c0.246,0.17,0.436,0.393,0.571,0.67c0.137,0.281,0.204,0.626,0.204,1.034c0,0.444-0.101,0.813-0.301,1.106
				c-0.202,0.297-0.5,0.539-0.892,0.729c0.541,0.154,0.945,0.428,1.211,0.816s0.4,0.86,0.4,1.407c0,0.444-0.087,0.829-0.258,1.154
				c-0.172,0.325-0.404,0.586-0.696,0.793c-0.292,0.206-0.625,0.356-0.997,0.455c-0.373,0.1-0.757,0.147-1.149,0.147h-4.26v-8.785
				H164.548z M164.303,99.703c0.345,0,0.628-0.083,0.85-0.246c0.22-0.166,0.331-0.432,0.331-0.801c0-0.206-0.036-0.372-0.111-0.503
				c-0.073-0.131-0.172-0.234-0.295-0.31s-0.266-0.127-0.424-0.154c-0.158-0.027-0.325-0.044-0.5-0.044h-1.808v2.058H164.303z
				 M164.414,103.43c0.188,0,0.369-0.016,0.541-0.056c0.172-0.035,0.325-0.095,0.456-0.183c0.131-0.087,0.234-0.201,0.313-0.353
				c0.08-0.146,0.117-0.333,0.117-0.562c0-0.452-0.127-0.773-0.381-0.968c-0.255-0.194-0.59-0.289-1.009-0.289h-2.105v2.41H164.414z
				"/>
			<path fill="#006BB6" d="M171.01,96.147v8.785h-1.933v-8.785H171.01z"/>
			<path fill="#006BB6" d="M179.282,96.147v1.621h-4.642v1.883h4.26v1.503h-4.26v2.152h4.739v1.626h-6.67v-8.785H179.282z"/>
			<path fill="#006BB6" d="M185.421,96.147c0.394,0,0.749,0.063,1.064,0.19c0.317,0.127,0.587,0.301,0.813,0.523
				c0.226,0.222,0.398,0.476,0.517,0.769c0.119,0.289,0.179,0.603,0.179,0.939c0,0.52-0.109,0.964-0.327,1.344
				c-0.216,0.377-0.571,0.662-1.062,0.86v0.024c0.238,0.067,0.434,0.166,0.589,0.301c0.156,0.135,0.283,0.298,0.382,0.479
				c0.099,0.187,0.17,0.389,0.216,0.61c0.045,0.223,0.075,0.444,0.091,0.662c0.008,0.144,0.016,0.306,0.026,0.496
				c0.008,0.187,0.022,0.381,0.042,0.579c0.022,0.193,0.054,0.38,0.099,0.559c0.046,0.174,0.113,0.325,0.204,0.448h-1.933
				c-0.107-0.278-0.172-0.611-0.198-0.995c-0.023-0.389-0.061-0.758-0.109-1.11c-0.067-0.46-0.206-0.793-0.42-1.007
				c-0.212-0.214-0.563-0.321-1.047-0.321h-1.931v3.434h-1.933v-8.785H185.421z M184.733,100.119c0.442,0,0.775-0.099,0.997-0.293
				c0.22-0.198,0.331-0.52,0.331-0.959c0-0.429-0.111-0.737-0.331-0.932c-0.222-0.19-0.555-0.29-0.997-0.29h-2.117v2.474H184.733z"
				/>
			<path fill="#006BB6" d="M191.488,96.147l3.667,5.895h0.023v-5.895h1.812v8.785h-1.933l-3.655-5.884h-0.026v5.884h-1.808v-8.785
				H191.488z"/>
			<path fill="#006BB6" d="M198.602,98.748c0.196-0.563,0.48-1.051,0.851-1.471c0.369-0.416,0.82-0.745,1.359-0.983
				c0.538-0.238,1.142-0.356,1.816-0.356c0.68,0,1.288,0.118,1.819,0.356c0.533,0.238,0.985,0.567,1.356,0.983
				c0.369,0.42,0.652,0.907,0.849,1.471c0.196,0.562,0.295,1.173,0.295,1.827c0,0.643-0.1,1.237-0.295,1.792
				c-0.196,0.555-0.48,1.035-0.849,1.447c-0.371,0.408-0.823,0.729-1.356,0.963c-0.531,0.234-1.14,0.354-1.819,0.354
				c-0.674,0-1.278-0.119-1.816-0.354c-0.539-0.233-0.991-0.555-1.359-0.963c-0.371-0.412-0.654-0.893-0.851-1.447
				s-0.295-1.149-0.295-1.792C198.307,99.921,198.406,99.311,198.602,98.748z M200.368,101.653c0.087,0.35,0.224,0.662,0.412,0.94
				c0.19,0.281,0.437,0.503,0.74,0.67c0.303,0.17,0.672,0.253,1.108,0.253c0.434,0,0.803-0.083,1.106-0.253
				c0.303-0.167,0.551-0.389,0.739-0.67c0.188-0.278,0.327-0.591,0.413-0.94c0.085-0.349,0.129-0.709,0.129-1.078
				c0-0.384-0.044-0.757-0.129-1.118c-0.085-0.36-0.224-0.686-0.413-0.967c-0.188-0.285-0.436-0.508-0.739-0.678
				c-0.303-0.167-0.672-0.254-1.106-0.254c-0.436,0-0.805,0.087-1.108,0.254c-0.303,0.17-0.549,0.393-0.74,0.678
				c-0.188,0.281-0.325,0.606-0.412,0.967c-0.087,0.361-0.129,0.734-0.129,1.118C200.239,100.944,200.281,101.305,200.368,101.653z"
				/>
			<path fill="#006BB6" d="M218.257,96.147v1.621h-4.64v1.883h4.257v1.503h-4.257v2.152h4.739v1.626h-6.672v-8.785H218.257z"/>
			<path fill="#006BB6" d="M221.137,102.768c0.107,0.206,0.248,0.369,0.424,0.496c0.176,0.131,0.383,0.222,0.623,0.285
				c0.236,0.06,0.481,0.091,0.737,0.091c0.172,0,0.357-0.012,0.553-0.043c0.198-0.028,0.382-0.084,0.555-0.167
				c0.172-0.079,0.315-0.194,0.43-0.337s0.172-0.325,0.172-0.547c0-0.238-0.077-0.433-0.228-0.579
				c-0.15-0.146-0.351-0.27-0.597-0.368c-0.246-0.1-0.525-0.187-0.836-0.258c-0.313-0.075-0.628-0.159-0.949-0.246
				c-0.327-0.083-0.646-0.187-0.959-0.306c-0.313-0.118-0.591-0.27-0.836-0.459c-0.246-0.187-0.444-0.425-0.597-0.706
				c-0.152-0.285-0.228-0.626-0.228-1.03c0-0.448,0.097-0.841,0.29-1.174s0.444-0.61,0.757-0.833
				c0.313-0.222,0.664-0.384,1.058-0.491c0.393-0.107,0.787-0.158,1.182-0.158c0.46,0,0.9,0.051,1.324,0.154
				c0.42,0.099,0.797,0.266,1.124,0.495c0.329,0.23,0.589,0.523,0.783,0.881c0.192,0.356,0.29,0.788,0.29,1.3h-1.872
				c-0.016-0.262-0.071-0.479-0.167-0.654c-0.095-0.17-0.22-0.305-0.376-0.404c-0.155-0.099-0.333-0.17-0.535-0.21
				c-0.2-0.04-0.42-0.06-0.658-0.06c-0.154,0-0.311,0.016-0.468,0.048c-0.155,0.031-0.297,0.091-0.424,0.171
				c-0.126,0.083-0.231,0.186-0.313,0.309c-0.083,0.123-0.123,0.277-0.123,0.468c0,0.171,0.032,0.313,0.099,0.42
				c0.065,0.104,0.194,0.202,0.387,0.294c0.192,0.091,0.46,0.183,0.801,0.27c0.339,0.091,0.785,0.206,1.334,0.345
				c0.165,0.032,0.393,0.095,0.684,0.179c0.292,0.087,0.581,0.226,0.869,0.412c0.287,0.19,0.535,0.444,0.743,0.757
				c0.21,0.317,0.313,0.722,0.313,1.214c0,0.4-0.075,0.776-0.232,1.117c-0.156,0.345-0.388,0.643-0.696,0.896
				c-0.307,0.249-0.689,0.443-1.146,0.582c-0.454,0.139-0.983,0.211-1.582,0.211c-0.484,0-0.954-0.06-1.408-0.179
				c-0.456-0.119-0.858-0.306-1.205-0.563c-0.351-0.253-0.626-0.574-0.833-0.971c-0.206-0.393-0.303-0.86-0.295-1.403h1.871
				C220.977,102.312,221.03,102.562,221.137,102.768z"/>
			<path fill="#006BB6" d="M226.957,97.769v-1.621h7.201v1.621h-2.634v7.164h-1.933v-7.164H226.957z"/>
			<path fill="#006BB6" d="M238.416,96.147l3.286,8.785h-2.006l-0.666-1.959h-3.284l-0.69,1.959h-1.944l3.322-8.785H238.416z
				 M238.527,101.535l-1.108-3.224h-0.024l-1.146,3.224H238.527z"/>
			<path fill="#006BB6" d="M240.644,97.769v-1.621h7.199v1.621h-2.634v7.164h-1.931v-7.164H240.644z"/>
			<path fill="#006BB6" d="M252.101,96.147l3.287,8.785h-2.006l-0.664-1.959h-3.287l-0.689,1.959h-1.945l3.324-8.785H252.101z
				 M252.212,101.535l-1.108-3.224h-0.024l-1.146,3.224H252.212z"/>
			<path fill="#006BB6" d="M258.083,96.147v7.159h4.281v1.626h-6.214v-8.785H258.083z"/>
			<path fill="#006BB6" d="M266.648,98.256c0.131-0.424,0.328-0.792,0.59-1.109c0.262-0.313,0.593-0.56,0.991-0.737
				c0.398-0.175,0.854-0.262,1.372-0.262c0.395,0,0.769,0.06,1.126,0.183c0.358,0.122,0.672,0.301,0.943,0.531
				c0.27,0.229,0.483,0.511,0.645,0.848c0.16,0.337,0.239,0.714,0.239,1.13c0,0.437-0.069,0.809-0.208,1.122
				c-0.141,0.313-0.325,0.587-0.553,0.828c-0.232,0.242-0.492,0.464-0.783,0.662c-0.291,0.194-0.585,0.389-0.878,0.583
				c-0.298,0.194-0.583,0.4-0.862,0.622c-0.279,0.223-0.525,0.48-0.739,0.773h4.073v1.503h-6.325c0-0.5,0.071-0.936,0.216-1.305
				c0.143-0.368,0.339-0.697,0.583-0.991c0.248-0.289,0.537-0.559,0.87-0.805c0.331-0.246,0.682-0.495,1.051-0.753
				c0.188-0.131,0.389-0.262,0.603-0.396c0.214-0.139,0.408-0.285,0.585-0.452c0.176-0.162,0.325-0.349,0.443-0.551
				c0.119-0.206,0.179-0.44,0.179-0.706c0-0.416-0.121-0.741-0.365-0.975c-0.241-0.234-0.551-0.354-0.927-0.354
				c-0.256,0-0.47,0.06-0.646,0.179s-0.317,0.277-0.427,0.468c-0.104,0.194-0.182,0.408-0.226,0.643
				c-0.046,0.233-0.067,0.464-0.067,0.693h-1.675C266.458,99.137,266.518,98.677,266.648,98.256z"/>
			<path fill="#006BB6" d="M273.373,98.479c0.169-0.571,0.396-1.027,0.685-1.372c0.285-0.345,0.622-0.591,1.003-0.741
				c0.38-0.146,0.785-0.218,1.213-0.218c0.434,0,0.841,0.071,1.223,0.218c0.383,0.15,0.718,0.396,1.009,0.741
				c0.292,0.345,0.521,0.801,0.69,1.372c0.168,0.57,0.252,1.272,0.252,2.108c0,0.864-0.084,1.582-0.252,2.161
				c-0.169,0.578-0.398,1.038-0.69,1.384c-0.291,0.345-0.626,0.59-1.009,0.741c-0.382,0.146-0.789,0.222-1.223,0.222
				c-0.428,0-0.833-0.075-1.213-0.222c-0.381-0.151-0.718-0.396-1.003-0.741c-0.288-0.346-0.516-0.806-0.685-1.384
				c-0.168-0.579-0.251-1.297-0.251-2.161C273.122,99.751,273.205,99.049,273.373,98.479z M274.894,101.479
				c0.017,0.349,0.067,0.686,0.155,1.011c0.085,0.325,0.222,0.599,0.412,0.832c0.187,0.227,0.458,0.342,0.812,0.342
				c0.358,0,0.639-0.115,0.828-0.342c0.194-0.233,0.333-0.507,0.421-0.832c0.085-0.325,0.137-0.662,0.152-1.011
				c0.018-0.349,0.025-0.646,0.025-0.893c0-0.146-0.004-0.324-0.006-0.535c-0.006-0.21-0.021-0.424-0.05-0.646
				c-0.029-0.223-0.071-0.44-0.122-0.658c-0.056-0.218-0.135-0.412-0.242-0.583c-0.104-0.175-0.242-0.313-0.404-0.42
				c-0.165-0.107-0.366-0.159-0.603-0.159c-0.24,0-0.438,0.052-0.599,0.159c-0.16,0.106-0.291,0.245-0.395,0.42
				c-0.101,0.171-0.181,0.365-0.24,0.583c-0.055,0.218-0.097,0.436-0.122,0.658c-0.024,0.222-0.04,0.436-0.044,0.646
				c-0.004,0.211-0.004,0.389-0.004,0.535C274.87,100.833,274.878,101.131,274.894,101.479z"/>
			<path fill="#006BB6" d="M282.783,104.933v-5.586h-2.167V98.03c0.304,0.008,0.597-0.016,0.88-0.071
				c0.284-0.052,0.537-0.146,0.764-0.281c0.226-0.135,0.416-0.313,0.57-0.535c0.157-0.223,0.26-0.496,0.31-0.825h1.392v8.615
				H282.783z"/>
			<path fill="#006BB6" d="M287.336,97.476c0.172-0.298,0.395-0.543,0.672-0.737c0.273-0.198,0.583-0.346,0.928-0.444
				s0.693-0.146,1.047-0.146c0.533,0,0.984,0.079,1.354,0.245c0.371,0.163,0.668,0.361,0.892,0.595
				c0.227,0.234,0.389,0.484,0.486,0.75c0.099,0.27,0.148,0.507,0.148,0.722c0,0.428-0.105,0.801-0.313,1.121
				c-0.21,0.317-0.523,0.547-0.941,0.69v0.023c0.516,0.115,0.914,0.356,1.193,0.729c0.277,0.377,0.418,0.832,0.418,1.376
				c0,0.455-0.091,0.855-0.277,1.192c-0.185,0.338-0.428,0.615-0.731,0.837s-0.648,0.389-1.034,0.5
				c-0.385,0.106-0.779,0.166-1.182,0.166c-0.418,0-0.822-0.052-1.213-0.154c-0.389-0.104-0.737-0.266-1.045-0.488
				c-0.308-0.222-0.553-0.499-0.739-0.836c-0.185-0.337-0.277-0.737-0.277-1.205c0-0.552,0.143-1.011,0.426-1.38
				c0.283-0.368,0.684-0.614,1.199-0.737v-0.023c-0.418-0.115-0.733-0.333-0.947-0.654s-0.319-0.694-0.319-1.118
				C287.078,98.109,287.163,97.769,287.336,97.476z M288.591,102.926c0.083,0.183,0.19,0.334,0.327,0.46
				c0.137,0.131,0.297,0.227,0.485,0.298s0.387,0.103,0.591,0.103c0.214,0,0.408-0.031,0.587-0.103
				c0.174-0.071,0.329-0.167,0.466-0.298c0.135-0.126,0.239-0.277,0.314-0.46c0.073-0.178,0.109-0.376,0.109-0.59
				c0-0.206-0.038-0.393-0.117-0.56c-0.077-0.17-0.185-0.312-0.319-0.436s-0.291-0.219-0.468-0.286
				c-0.176-0.062-0.366-0.099-0.572-0.099c-0.427,0-0.787,0.119-1.082,0.353c-0.296,0.234-0.444,0.571-0.444,1.016
				C288.468,102.546,288.51,102.748,288.591,102.926z M289.059,99.501c0.264,0.19,0.57,0.285,0.924,0.285
				c0.368,0,0.678-0.095,0.924-0.285c0.245-0.194,0.368-0.476,0.368-0.845c0-0.114-0.016-0.241-0.048-0.376
				c-0.035-0.135-0.099-0.266-0.192-0.389c-0.093-0.123-0.226-0.226-0.394-0.306c-0.169-0.083-0.387-0.122-0.658-0.122
				c-0.173,0-0.339,0.023-0.5,0.079c-0.158,0.051-0.299,0.131-0.424,0.226c-0.123,0.1-0.219,0.222-0.29,0.373
				c-0.069,0.146-0.103,0.317-0.103,0.515C288.666,99.025,288.797,99.307,289.059,99.501z"/>
			<path fill="#006BB6" d="M297.804,100.654c0.208-0.198,0.452-0.301,0.733-0.301c0.139,0,0.27,0.027,0.393,0.079
				c0.123,0.056,0.231,0.131,0.325,0.222c0.095,0.096,0.17,0.207,0.229,0.333c0.056,0.127,0.086,0.266,0.086,0.413
				c0,0.131-0.03,0.258-0.086,0.38c-0.06,0.123-0.133,0.234-0.222,0.333c-0.091,0.1-0.198,0.179-0.321,0.234
				c-0.123,0.06-0.254,0.087-0.395,0.087c-0.146,0-0.283-0.027-0.41-0.079c-0.129-0.056-0.24-0.127-0.333-0.222
				c-0.095-0.096-0.171-0.206-0.228-0.333c-0.058-0.127-0.086-0.262-0.086-0.4C297.49,101.106,297.594,100.857,297.804,100.654z"/>
			<path fill="#006BB6" d="M304.283,98.256c0.129-0.424,0.327-0.792,0.591-1.109c0.262-0.313,0.593-0.56,0.989-0.737
				c0.398-0.175,0.856-0.262,1.374-0.262c0.394,0,0.769,0.06,1.125,0.183c0.357,0.122,0.671,0.301,0.942,0.531
				c0.271,0.229,0.485,0.511,0.646,0.848c0.161,0.337,0.24,0.714,0.24,1.13c0,0.437-0.069,0.809-0.208,1.122
				c-0.141,0.313-0.325,0.587-0.556,0.828c-0.229,0.242-0.491,0.464-0.78,0.662c-0.292,0.194-0.585,0.389-0.881,0.583
				c-0.295,0.194-0.582,0.4-0.861,0.622c-0.28,0.223-0.525,0.48-0.74,0.773h4.076v1.503h-6.327c0-0.5,0.073-0.936,0.216-1.305
				c0.143-0.368,0.339-0.697,0.585-0.991c0.245-0.289,0.535-0.559,0.868-0.805s0.682-0.495,1.05-0.753
				c0.19-0.131,0.391-0.262,0.605-0.396c0.212-0.139,0.406-0.285,0.584-0.452c0.177-0.162,0.325-0.349,0.442-0.551
				c0.119-0.206,0.181-0.44,0.181-0.706c0-0.416-0.123-0.741-0.365-0.975c-0.241-0.234-0.551-0.354-0.93-0.354
				c-0.254,0-0.47,0.06-0.646,0.179c-0.177,0.119-0.317,0.277-0.425,0.468c-0.104,0.194-0.183,0.408-0.228,0.643
				c-0.044,0.233-0.067,0.464-0.067,0.693h-1.673C304.093,99.137,304.152,98.677,304.283,98.256z"/>
			<path fill="#006BB6" d="M311.009,98.479c0.169-0.571,0.396-1.027,0.684-1.372c0.286-0.345,0.621-0.591,1.003-0.741
				c0.381-0.146,0.785-0.218,1.212-0.218c0.436,0,0.844,0.071,1.225,0.218c0.381,0.15,0.718,0.396,1.009,0.741
				s0.521,0.801,0.689,1.372c0.169,0.57,0.252,1.272,0.252,2.108c0,0.864-0.083,1.582-0.252,2.161
				c-0.168,0.578-0.398,1.038-0.689,1.384c-0.291,0.345-0.628,0.59-1.009,0.741c-0.381,0.146-0.789,0.222-1.225,0.222
				c-0.427,0-0.831-0.075-1.212-0.222c-0.382-0.151-0.717-0.396-1.003-0.741c-0.287-0.346-0.515-0.806-0.684-1.384
				c-0.168-0.579-0.252-1.297-0.252-2.161C310.757,99.751,310.841,99.049,311.009,98.479z M312.527,101.479
				c0.018,0.349,0.069,0.686,0.154,1.011c0.088,0.325,0.227,0.599,0.412,0.832c0.19,0.227,0.46,0.342,0.813,0.342
				c0.36,0,0.638-0.115,0.832-0.342c0.19-0.233,0.329-0.507,0.416-0.832c0.088-0.325,0.139-0.662,0.155-1.011
				c0.016-0.349,0.023-0.646,0.023-0.893c0-0.146-0.002-0.324-0.004-0.535c-0.006-0.21-0.021-0.424-0.052-0.646
				c-0.027-0.223-0.067-0.44-0.123-0.658c-0.051-0.218-0.133-0.412-0.237-0.583c-0.107-0.175-0.244-0.313-0.408-0.42
				c-0.163-0.107-0.365-0.159-0.603-0.159c-0.238,0-0.437,0.052-0.595,0.159c-0.163,0.106-0.294,0.245-0.396,0.42
				c-0.102,0.171-0.183,0.365-0.24,0.583s-0.097,0.436-0.123,0.658c-0.025,0.222-0.037,0.436-0.041,0.646
				c-0.004,0.211-0.008,0.389-0.008,0.535C312.504,100.833,312.512,101.131,312.527,101.479z"/>
			<path fill="#006BB6" d="M317.969,98.256c0.131-0.424,0.328-0.792,0.592-1.109c0.262-0.313,0.591-0.56,0.989-0.737
				c0.398-0.175,0.854-0.262,1.374-0.262c0.393,0,0.769,0.06,1.126,0.183c0.356,0.122,0.67,0.301,0.941,0.531
				c0.271,0.229,0.485,0.511,0.646,0.848c0.16,0.337,0.239,0.714,0.239,1.13c0,0.437-0.071,0.809-0.21,1.122
				s-0.323,0.587-0.553,0.828c-0.232,0.242-0.492,0.464-0.783,0.662c-0.289,0.194-0.583,0.389-0.88,0.583
				c-0.296,0.194-0.581,0.4-0.86,0.622c-0.279,0.223-0.525,0.48-0.739,0.773h4.073v1.503H317.6c0-0.5,0.071-0.936,0.216-1.305
				c0.143-0.368,0.339-0.697,0.585-0.991c0.246-0.289,0.535-0.559,0.866-0.805c0.333-0.246,0.684-0.495,1.053-0.753
				c0.188-0.131,0.391-0.262,0.604-0.396c0.212-0.139,0.408-0.285,0.583-0.452c0.176-0.162,0.325-0.349,0.443-0.551
				c0.119-0.206,0.179-0.44,0.179-0.706c0-0.416-0.121-0.741-0.365-0.975c-0.241-0.234-0.551-0.354-0.927-0.354
				c-0.254,0-0.47,0.06-0.646,0.179s-0.317,0.277-0.424,0.468c-0.107,0.194-0.183,0.408-0.229,0.643
				c-0.046,0.233-0.067,0.464-0.067,0.693h-1.675C317.78,99.137,317.838,98.677,317.969,98.256z"/>
			<path fill="#006BB6" d="M324.381,102.938v-1.598l3.742-5.023h1.562v5.182h1.144v1.439h-1.144v1.994h-1.661v-1.994H324.381z
				 M327.986,98.51l-2.227,2.989h2.264V98.51H327.986z"/>
		</g>
	</g>
	<g>
		<g>
			<g>
				<g>
					<g>
						<path fill="#1B3A6A" d="M376.031,38.018c0.316,0,0.475,0.19,0.475,0.539v23.979c0,0.349-0.158,0.539-0.475,0.539h-5.702
							c-0.317,0-0.476-0.19-0.476-0.539V38.556c0-0.349,0.158-0.539,0.476-0.539H376.031z"/>
						<path fill="#1B3A6A" d="M402.354,38.018c0.475,0,0.602,0.222,0.349,0.697l-8.87,15.934v7.888c0,0.349-0.158,0.539-0.476,0.539
							h-5.701c-0.317,0-0.476-0.19-0.476-0.539v-7.982l-8.838-15.839c-0.253-0.475-0.127-0.697,0.349-0.697h6.398
							c0.317,0,0.603,0.158,0.855,0.507l4.562,9.693l4.594-9.693c0.158-0.349,0.443-0.507,0.854-0.507H402.354z"/>
						<path fill="#1B3A6A" d="M421.898,38.018c0.349,0,0.507,0.158,0.507,0.475v4.847c0,0.317-0.158,0.475-0.507,0.475h-10.707
							v3.991h9.852c0.349,0,0.507,0.159,0.507,0.475v4.53c0,0.317-0.158,0.476-0.507,0.476h-9.852v3.991h10.707
							c0.349,0,0.507,0.158,0.507,0.475v4.847c0,0.317-0.158,0.475-0.507,0.475h-16.884c-0.317,0-0.476-0.158-0.476-0.507V38.524
							c0-0.349,0.158-0.507,0.476-0.507H421.898z"/>
						<path fill="#1B3A6A" d="M452.117,37.986c0.223,0,0.349,0.19,0.381,0.539L455,62.536c0.032,0.349-0.127,0.539-0.475,0.539
							h-5.702c-0.285,0-0.443-0.19-0.476-0.539l-1.33-12.576l-4.593,11.815c-0.159,0.349-0.381,0.539-0.729,0.539h-3.737
							c-0.349,0-0.57-0.19-0.729-0.539l-4.562-11.815l-1.362,12.576c-0.031,0.349-0.19,0.539-0.476,0.539h-5.701
							c-0.349,0-0.507-0.19-0.476-0.539l2.503-23.979c0.031-0.349,0.158-0.539,0.38-0.539h5.132c1.299,0,1.869,0.253,2.249,1.299
							l4.91,12.987l4.909-13.019c0.381-1.045,0.951-1.299,2.25-1.299H452.117z"/>
					</g>
					<g>
						<path fill="#006BB6" d="M369.621,73.08c0.104,0,0.156,0.052,0.156,0.165v7.522c0,0.104-0.053,0.155-0.156,0.155h-0.735
							c-0.104,0-0.155-0.052-0.155-0.155v-7.522c0-0.113,0.052-0.165,0.155-0.165H369.621z"/>
						<path fill="#006BB6" d="M377.61,73.08c0.104,0,0.155,0.052,0.155,0.165v7.522c0,0.104-0.052,0.155-0.155,0.155h-0.632
							c-0.156,0-0.28-0.062-0.363-0.187l-4.092-6.165v6.196c0,0.104-0.053,0.155-0.156,0.155h-0.735
							c-0.104,0-0.155-0.052-0.155-0.155v-7.522c0-0.113,0.052-0.165,0.155-0.165h0.705c0.362,0.01,0.425,0.052,0.59,0.3
							l3.792,5.709v-5.844c0-0.113,0.052-0.165,0.155-0.165H377.61z"/>
						<path fill="#006BB6" d="M383.91,73.184c0.094,0.01,0.146,0.052,0.146,0.135v0.477c0,0.104-0.042,0.155-0.135,0.155h-2.331
							c-0.901,0-1.357,0.311-1.357,0.922v0.176c0,0.539,0.166,0.809,0.777,1.058l2.259,0.932c0.901,0.373,1.191,0.923,1.191,1.804
							v0.331c0,0.611-0.218,1.057-0.539,1.315c-0.155,0.135-0.353,0.238-0.601,0.312c-0.498,0.135-0.943,0.176-1.596,0.176
							c-0.87,0-1.71-0.052-2.528-0.145c-0.083-0.021-0.124-0.073-0.124-0.166v-0.467c0-0.093,0.052-0.145,0.145-0.145h2.839
							c0.923,0,1.348-0.259,1.348-0.912v-0.196c0-0.57-0.177-0.871-0.788-1.119l-2.455-0.995c-0.746-0.29-0.974-0.881-0.974-1.761
							V74.82c0-0.611,0.217-1.057,0.518-1.306c0.155-0.135,0.362-0.228,0.601-0.3c0.498-0.156,0.933-0.187,1.596-0.187
							C382.408,73.028,383.071,73.08,383.91,73.184z"/>
						<path fill="#006BB6" d="M390.584,73.08c0.104,0,0.155,0.052,0.155,0.155v0.611c0,0.104-0.052,0.155-0.155,0.155h-2.352v6.766
							c0,0.104-0.053,0.155-0.156,0.155h-0.735c-0.104,0-0.155-0.052-0.155-0.155v-6.766h-2.352c-0.104,0-0.155-0.052-0.155-0.155
							v-0.611c0-0.104,0.052-0.155,0.155-0.155H390.584z"/>
						<path fill="#006BB6" d="M392.626,73.08c0.104,0,0.156,0.052,0.156,0.165v7.522c0,0.104-0.053,0.155-0.156,0.155h-0.735
							c-0.104,0-0.155-0.052-0.155-0.155v-7.522c0-0.113,0.052-0.165,0.155-0.165H392.626z"/>
						<path fill="#006BB6" d="M399.683,73.08c0.104,0,0.155,0.052,0.155,0.155v0.611c0,0.104-0.052,0.155-0.155,0.155h-2.352v6.766
							c0,0.104-0.052,0.155-0.156,0.155h-0.735c-0.104,0-0.155-0.052-0.155-0.155v-6.766h-2.352c-0.104,0-0.155-0.052-0.155-0.155
							v-0.611c0-0.104,0.052-0.155,0.155-0.155H399.683z"/>
						<path fill="#006BB6" d="M406.78,73.08c0.104,0,0.155,0.052,0.155,0.155v3.781c0,1.627-0.135,2.539-0.622,3.16
							c-0.486,0.622-1.191,0.798-2.466,0.798c-1.025,0-1.647-0.145-2.145-0.477c-0.248-0.166-0.435-0.404-0.569-0.726
							c-0.249-0.632-0.363-1.439-0.363-2.756v-3.781c0-0.104,0.052-0.155,0.155-0.155h0.736c0.104,0,0.155,0.052,0.155,0.155v3.781
							c0,0.84,0.062,1.461,0.176,1.886c0.238,0.84,0.746,1.15,1.854,1.15c0.818,0,1.357-0.197,1.627-0.602
							c0.279-0.403,0.414-1.222,0.414-2.435v-3.781c0-0.104,0.052-0.155,0.155-0.155H406.78z"/>
						<path fill="#006BB6" d="M413.775,73.08c0.104,0,0.155,0.052,0.155,0.155v0.611c0,0.104-0.052,0.155-0.155,0.155h-2.352v6.766
							c0,0.104-0.053,0.155-0.156,0.155h-0.735c-0.104,0-0.155-0.052-0.155-0.155v-6.766h-2.352c-0.104,0-0.155-0.052-0.155-0.155
							v-0.611c0-0.104,0.052-0.155,0.155-0.155H413.775z"/>
						<path fill="#006BB6" d="M419.92,80.136c-0.487,0.632-1.223,0.839-2.518,0.839c-1.296,0-2.031-0.207-2.528-0.839
							c-0.487-0.632-0.632-1.534-0.632-3.119c0-1.554,0.218-2.61,0.643-3.16c0.424-0.549,1.264-0.828,2.518-0.828
							c1.253,0,2.093,0.279,2.518,0.828c0.425,0.55,0.642,1.606,0.642,3.16C420.562,78.602,420.417,79.504,419.92,80.136z
							 M415.692,79.451c0.259,0.404,0.829,0.602,1.71,0.602c0.88,0,1.45-0.197,1.709-0.602c0.259-0.403,0.394-1.222,0.394-2.435
							c0-1.253-0.062-1.906-0.383-2.414c-0.301-0.508-0.809-0.652-1.72-0.652c-0.912,0-1.409,0.145-1.73,0.652
							c-0.301,0.508-0.373,1.161-0.373,2.414C415.299,78.229,415.434,79.048,415.692,79.451z"/>
						<path fill="#006BB6" d="M429.506,73.08c0.155,0,0.196,0.072,0.113,0.228l-2.808,5.232v2.228c0,0.104-0.052,0.155-0.155,0.155
							h-0.746c-0.104,0-0.155-0.052-0.155-0.155V78.54l-2.808-5.232c-0.083-0.155-0.042-0.228,0.114-0.228h0.808
							c0.114,0,0.207,0.052,0.28,0.165l2.134,4.155l2.145-4.155c0.052-0.113,0.146-0.165,0.28-0.165H429.506z"/>
						<path fill="#006BB6" d="M436.5,73.08c0.104,0,0.155,0.052,0.155,0.155v3.781c0,1.627-0.135,2.539-0.622,3.16
							c-0.486,0.622-1.191,0.798-2.466,0.798c-1.025,0-1.647-0.145-2.145-0.477c-0.248-0.166-0.435-0.404-0.569-0.726
							c-0.249-0.632-0.363-1.439-0.363-2.756v-3.781c0-0.104,0.052-0.155,0.155-0.155h0.736c0.104,0,0.155,0.052,0.155,0.155v3.781
							c0,0.84,0.062,1.461,0.176,1.886c0.238,0.84,0.746,1.15,1.854,1.15c0.818,0,1.357-0.197,1.627-0.602
							c0.279-0.403,0.414-1.222,0.414-2.435v-3.781c0-0.104,0.052-0.155,0.155-0.155H436.5z"/>
						<path fill="#006BB6" d="M443.11,73.132c0.114,0.01,0.166,0.072,0.166,0.176v0.487c0,0.104-0.052,0.155-0.155,0.155h-1.938
							c-0.881,0-1.45,0.207-1.71,0.611c-0.259,0.404-0.394,1.223-0.394,2.445c0,1.212,0.135,2.03,0.394,2.435
							c0.26,0.404,0.829,0.611,1.71,0.611h1.938c0.104,0,0.155,0.052,0.155,0.155v0.487c0,0.104-0.052,0.165-0.166,0.187
							c-0.445,0.062-1.088,0.093-1.927,0.093c-1.295,0-2.03-0.207-2.518-0.839s-0.632-1.544-0.632-3.129
							c0-1.586,0.145-2.497,0.632-3.129c0.487-0.653,1.232-0.85,2.518-0.85C441.981,73.028,442.624,73.059,443.11,73.132z"/>
						<path fill="#006BB6" d="M448.179,73.235c0.166,0.135,0.321,0.466,0.467,1.005l1.771,6.517c0.031,0.135,0,0.166-0.124,0.166
							h-0.809c-0.083,0-0.104-0.031-0.135-0.166l-0.643-2.289h-3.118l-0.652,2.289c-0.031,0.135-0.052,0.166-0.135,0.166h-0.809
							c-0.124,0-0.155-0.031-0.124-0.166l1.834-6.517c0.155-0.528,0.311-0.87,0.466-1.005c0.166-0.135,0.487-0.207,0.974-0.207
							C447.671,73.028,448.023,73.101,448.179,73.235z M446.697,74.489l-0.85,3.066h2.621l-0.808-3.066
							c-0.072-0.249-0.135-0.404-0.187-0.456c-0.052-0.062-0.155-0.094-0.332-0.094C446.853,73.939,446.821,73.991,446.697,74.489z"
							/>
						<path fill="#006BB6" d="M455.204,73.08c0.104,0,0.155,0.052,0.155,0.155v0.611c0,0.104-0.052,0.155-0.155,0.155h-2.352v6.766
							c0,0.104-0.052,0.155-0.156,0.155h-0.735c-0.104,0-0.155-0.052-0.155-0.155v-6.766h-2.352c-0.104,0-0.155-0.052-0.155-0.155
							v-0.611c0-0.104,0.052-0.155,0.155-0.155H455.204z"/>
						<path fill="#006BB6" d="M461.359,73.08c0.104,0,0.155,0.052,0.155,0.155v0.611c0,0.104-0.052,0.155-0.155,0.155h-3.957v2.663
							h3.605c0.104,0,0.155,0.052,0.155,0.155v0.601c0,0.104-0.052,0.155-0.155,0.155h-3.605v2.425h3.957
							c0.104,0,0.155,0.052,0.155,0.155v0.611c0,0.104-0.052,0.155-0.155,0.155h-4.849c-0.104,0-0.155-0.052-0.155-0.155v-7.532
							c0-0.104,0.052-0.155,0.155-0.155H461.359z"/>
						<path fill="#006BB6" d="M467.69,73.132c0.114,0.01,0.166,0.072,0.166,0.176v0.487c0,0.104-0.052,0.155-0.155,0.155h-1.938
							c-0.881,0-1.45,0.207-1.71,0.611c-0.259,0.404-0.394,1.223-0.394,2.445c0,1.212,0.135,2.03,0.394,2.435
							c0.26,0.404,0.829,0.611,1.71,0.611h1.938c0.104,0,0.155,0.052,0.155,0.155v0.487c0,0.104-0.052,0.165-0.166,0.187
							c-0.445,0.062-1.088,0.093-1.927,0.093c-1.295,0-2.03-0.207-2.518-0.839s-0.632-1.544-0.632-3.129
							c0-1.586,0.145-2.497,0.632-3.129c0.487-0.653,1.232-0.85,2.518-0.85C466.562,73.028,467.204,73.059,467.69,73.132z"/>
						<path fill="#006BB6" d="M474.292,80.136c-0.487,0.632-1.223,0.839-2.518,0.839c-1.296,0-2.031-0.207-2.528-0.839
							c-0.487-0.632-0.632-1.534-0.632-3.119c0-1.554,0.218-2.61,0.643-3.16c0.425-0.549,1.264-0.828,2.518-0.828
							c1.253,0,2.093,0.279,2.518,0.828c0.425,0.55,0.642,1.606,0.642,3.16C474.934,78.602,474.789,79.504,474.292,80.136z
							 M470.064,79.451c0.259,0.404,0.829,0.602,1.71,0.602c0.88,0,1.45-0.197,1.709-0.602c0.259-0.403,0.394-1.222,0.394-2.435
							c0-1.253-0.062-1.906-0.383-2.414c-0.301-0.508-0.809-0.652-1.72-0.652c-0.912,0-1.409,0.145-1.73,0.652
							c-0.301,0.508-0.373,1.161-0.373,2.414C469.671,78.229,469.806,79.048,470.064,79.451z"/>
						<path fill="#006BB6" d="M374.211,87.154c0.498,0.61,0.746,1.626,0.746,3.035c0,1.42-0.248,2.435-0.746,3.057
							c-0.486,0.611-1.315,0.922-2.476,0.922c-1.213,0-2.166-0.021-2.85-0.072c-0.124-0.011-0.155-0.031-0.155-0.146v-7.501
							c0-0.124,0.031-0.145,0.155-0.155c0.684-0.052,1.637-0.072,2.85-0.072C372.896,86.222,373.725,86.532,374.211,87.154z
							 M369.777,87.144v6.103h1.958c0.787,0,1.347-0.238,1.668-0.705c0.331-0.477,0.497-1.264,0.497-2.352
							c0-1.077-0.176-1.854-0.528-2.331s-0.942-0.715-1.782-0.715H369.777z"/>
						<path fill="#006BB6" d="M381.371,86.273c0.104,0,0.155,0.052,0.155,0.155v0.611c0,0.104-0.052,0.155-0.155,0.155h-3.957v2.663
							h3.605c0.104,0,0.155,0.052,0.155,0.155v0.601c0,0.104-0.052,0.155-0.155,0.155h-3.605v2.425h3.957
							c0.104,0,0.155,0.052,0.155,0.155v0.611c0,0.104-0.052,0.155-0.155,0.155h-4.849c-0.104,0-0.155-0.052-0.155-0.155v-7.532
							c0-0.104,0.052-0.155,0.155-0.155H381.371z"/>
						<path fill="#006BB6" d="M390.231,86.273c0.104,0,0.155,0.052,0.155,0.155v0.611c0,0.104-0.052,0.155-0.155,0.155h-3.957v2.663
							h3.605c0.104,0,0.155,0.052,0.155,0.155v0.601c0,0.104-0.052,0.155-0.155,0.155h-3.605v2.425h3.957
							c0.104,0,0.155,0.052,0.155,0.155v0.611c0,0.104-0.052,0.155-0.155,0.155h-4.849c-0.104,0-0.155-0.052-0.155-0.155v-7.532
							c0-0.104,0.052-0.155,0.155-0.155H390.231z"/>
						<path fill="#006BB6" d="M399.288,86.273c0.093,0,0.145,0.052,0.155,0.155l0.673,7.532c0.011,0.104-0.041,0.155-0.155,0.155
							h-0.746c-0.093,0-0.145-0.052-0.155-0.155l-0.477-5.885l-2.237,5.656c-0.031,0.083-0.094,0.125-0.187,0.125h-0.736
							c-0.093,0-0.165-0.042-0.196-0.125l-2.238-5.656l-0.477,5.885c-0.011,0.104-0.062,0.155-0.155,0.155h-0.735
							c-0.114,0-0.166-0.052-0.155-0.155l0.663-7.522c0.01-0.113,0.062-0.165,0.155-0.165h0.808c0.238,0,0.301,0.083,0.425,0.403
							l2.27,5.886l2.269-5.886c0.124-0.32,0.187-0.403,0.425-0.403H399.288z"/>
						<path fill="#006BB6" d="M406.314,86.688c0.528,0.373,0.694,0.984,0.694,2.062c0,1.109-0.197,1.679-0.674,2.041
							c-0.145,0.104-0.342,0.187-0.601,0.249c-0.508,0.114-0.995,0.146-1.834,0.146h-1.315v2.776c0,0.124-0.031,0.155-0.156,0.155
							h-0.735c-0.124,0-0.155-0.031-0.155-0.155v-7.512c0-0.124,0.031-0.145,0.155-0.155c0.684-0.052,1.42-0.072,2.207-0.072
							C405.144,86.222,405.807,86.314,406.314,86.688z M402.585,87.144v3.149h1.222c0.28,0,0.508,0,0.663-0.01
							c0.321-0.011,0.726-0.042,0.901-0.125c0.436-0.187,0.591-0.549,0.581-1.388c0-0.694-0.135-1.14-0.415-1.337
							c-0.27-0.197-0.85-0.29-1.73-0.29H402.585z"/>
						<path fill="#006BB6" d="M413.029,86.688c0.528,0.373,0.694,0.984,0.694,2.062c0,0.818-0.125,1.399-0.384,1.741
							c-0.248,0.342-0.684,0.549-1.315,0.632l1.751,2.787c0.083,0.114,0.031,0.207-0.125,0.207h-0.663
							c-0.217,0-0.3-0.062-0.414-0.228l-1.709-2.704H409.3v2.776c0,0.124-0.031,0.155-0.156,0.155h-0.735
							c-0.124,0-0.155-0.031-0.155-0.155v-7.512c0-0.124,0.031-0.145,0.155-0.155c0.684-0.052,1.42-0.072,2.207-0.072
							C411.858,86.222,412.521,86.314,413.029,86.688z M409.3,87.144v3.149h1.222c0.28,0,0.508,0,0.663-0.01
							c0.321-0.011,0.726-0.042,0.901-0.125c0.436-0.187,0.591-0.549,0.581-1.388c0-0.694-0.135-1.14-0.415-1.337
							c-0.27-0.197-0.85-0.29-1.73-0.29H409.3z"/>
						<path fill="#006BB6" d="M420.106,86.273c0.104,0,0.155,0.052,0.155,0.155v0.611c0,0.104-0.052,0.155-0.155,0.155h-3.957v2.663
							h3.605c0.104,0,0.155,0.052,0.155,0.155v0.601c0,0.104-0.052,0.155-0.155,0.155h-3.605v2.425h3.957
							c0.104,0,0.155,0.052,0.155,0.155v0.611c0,0.104-0.052,0.155-0.155,0.155h-4.849c-0.104,0-0.155-0.052-0.155-0.155v-7.532
							c0-0.104,0.052-0.155,0.155-0.155H420.106z"/>
						<path fill="#006BB6" d="M427.754,86.273c0.104,0,0.155,0.052,0.155,0.165v7.522c0,0.104-0.052,0.155-0.155,0.155h-0.632
							c-0.156,0-0.28-0.062-0.363-0.187l-4.092-6.165v6.196c0,0.104-0.053,0.155-0.156,0.155h-0.735
							c-0.104,0-0.155-0.052-0.155-0.155v-7.522c0-0.113,0.052-0.165,0.155-0.165h0.705c0.362,0.01,0.425,0.052,0.59,0.3
							l3.792,5.709v-5.844c0-0.113,0.052-0.165,0.155-0.165H427.754z"/>
						<path fill="#006BB6" d="M435.09,87.154c0.498,0.61,0.746,1.626,0.746,3.035c0,1.42-0.248,2.435-0.746,3.057
							c-0.486,0.611-1.315,0.922-2.476,0.922c-1.213,0-2.166-0.021-2.85-0.072c-0.124-0.011-0.155-0.031-0.155-0.146v-7.501
							c0-0.124,0.031-0.145,0.155-0.155c0.684-0.052,1.637-0.072,2.85-0.072C433.774,86.222,434.604,86.532,435.09,87.154z
							 M430.656,87.144v6.103h1.958c0.787,0,1.347-0.238,1.668-0.705c0.331-0.477,0.497-1.264,0.497-2.352
							c0-1.077-0.176-1.854-0.528-2.331s-0.942-0.715-1.782-0.715H430.656z"/>
						<path fill="#006BB6" d="M442.251,86.273c0.104,0,0.155,0.052,0.155,0.155v0.611c0,0.104-0.052,0.155-0.155,0.155h-3.957v2.663
							h3.605c0.104,0,0.155,0.052,0.155,0.155v0.601c0,0.104-0.052,0.155-0.155,0.155h-3.605v2.425h3.957
							c0.104,0,0.155,0.052,0.155,0.155v0.611c0,0.104-0.052,0.155-0.155,0.155h-4.849c-0.104,0-0.155-0.052-0.155-0.155v-7.532
							c0-0.104,0.052-0.155,0.155-0.155H442.251z"/>
						<path fill="#006BB6" d="M449.245,87.154c0.498,0.61,0.746,1.626,0.746,3.035c0,1.42-0.248,2.435-0.746,3.057
							c-0.486,0.611-1.315,0.922-2.476,0.922c-1.213,0-2.166-0.021-2.85-0.072c-0.124-0.011-0.155-0.031-0.155-0.146v-7.501
							c0-0.124,0.031-0.145,0.155-0.155c0.684-0.052,1.637-0.072,2.85-0.072C447.93,86.222,448.759,86.532,449.245,87.154z
							 M444.812,87.144v6.103h1.958c0.787,0,1.347-0.238,1.668-0.705c0.331-0.477,0.497-1.264,0.497-2.352
							c0-1.077-0.176-1.854-0.528-2.331s-0.942-0.715-1.782-0.715H444.812z"/>
						<path fill="#006BB6" d="M456.821,93.329c-0.487,0.632-1.223,0.839-2.518,0.839c-1.296,0-2.031-0.207-2.528-0.839
							c-0.487-0.632-0.632-1.534-0.632-3.119c0-1.554,0.218-2.61,0.643-3.16c0.425-0.549,1.264-0.828,2.518-0.828
							c1.253,0,2.093,0.279,2.518,0.828c0.425,0.55,0.642,1.606,0.642,3.16C457.463,91.795,457.318,92.697,456.821,93.329z
							 M452.594,92.645c0.259,0.404,0.829,0.602,1.71,0.602c0.88,0,1.45-0.197,1.709-0.602c0.259-0.403,0.394-1.222,0.394-2.435
							c0-1.253-0.062-1.906-0.383-2.414c-0.301-0.508-0.809-0.652-1.72-0.652c-0.912,0-1.409,0.145-1.73,0.652
							c-0.301,0.508-0.373,1.161-0.373,2.414C452.2,91.423,452.335,92.241,452.594,92.645z"/>
						<path fill="#006BB6" d="M463.681,86.688c0.528,0.373,0.694,0.984,0.694,2.062c0,0.818-0.125,1.399-0.384,1.741
							c-0.248,0.342-0.684,0.549-1.315,0.632l1.751,2.787c0.083,0.114,0.031,0.207-0.125,0.207h-0.663
							c-0.217,0-0.3-0.062-0.414-0.228l-1.709-2.704h-1.564v2.776c0,0.124-0.031,0.155-0.156,0.155h-0.735
							c-0.124,0-0.155-0.031-0.155-0.155v-7.512c0-0.124,0.031-0.145,0.155-0.155c0.684-0.052,1.42-0.072,2.207-0.072
							C462.51,86.222,463.173,86.314,463.681,86.688z M459.951,87.144v3.149h1.222c0.28,0,0.508,0,0.663-0.01
							c0.321-0.011,0.726-0.042,0.901-0.125c0.436-0.187,0.591-0.549,0.581-1.388c0-0.694-0.135-1.14-0.415-1.337
							c-0.27-0.197-0.85-0.29-1.73-0.29H459.951z"/>
						<path fill="#006BB6" d="M470.758,86.273c0.104,0,0.155,0.052,0.155,0.155v0.611c0,0.104-0.052,0.155-0.155,0.155h-3.957v2.663
							h3.605c0.104,0,0.155,0.052,0.155,0.155v0.601c0,0.104-0.052,0.155-0.155,0.155h-3.605v2.425h3.957
							c0.104,0,0.155,0.052,0.155,0.155v0.611c0,0.104-0.052,0.155-0.155,0.155h-4.849c-0.104,0-0.155-0.052-0.155-0.155v-7.532
							c0-0.104,0.052-0.155,0.155-0.155H470.758z"/>
						<path fill="#006BB6" d="M476.716,86.377c0.094,0.01,0.146,0.052,0.146,0.135v0.477c0,0.104-0.042,0.155-0.135,0.155h-2.331
							c-0.901,0-1.357,0.311-1.357,0.922v0.176c0,0.539,0.166,0.809,0.777,1.058l2.259,0.932c0.901,0.373,1.191,0.923,1.191,1.804
							v0.331c0,0.611-0.218,1.057-0.539,1.315c-0.155,0.135-0.353,0.238-0.601,0.312c-0.498,0.135-0.943,0.176-1.596,0.176
							c-0.87,0-1.71-0.052-2.528-0.145c-0.083-0.021-0.124-0.073-0.124-0.166v-0.467c0-0.093,0.052-0.145,0.145-0.145h2.839
							c0.923,0,1.348-0.259,1.348-0.912v-0.196c0-0.57-0.177-0.871-0.788-1.119l-2.455-0.995c-0.746-0.29-0.974-0.881-0.974-1.761
							v-0.249c0-0.611,0.217-1.057,0.518-1.306c0.155-0.135,0.362-0.228,0.601-0.3c0.498-0.156,0.933-0.187,1.596-0.187
							C475.214,86.222,475.877,86.273,476.716,86.377z"/>
					</g>
				</g>
			</g>
		</g>
	</g>
</g>
</svg>
