<?xml version="1.0" encoding="utf-8" standalone="no"?>
<!DOCTYPE svg PUBLIC "-//W3C//DTD SVG 1.1//EN"
  "http://www.w3.org/Graphics/SVG/1.1/DTD/svg11.dtd">
<!-- Created with matplotlib (http://matplotlib.org/) -->
<svg height="432pt" version="1.1" viewBox="0 0 432 432" width="432pt" xmlns="http://www.w3.org/2000/svg" xmlns:xlink="http://www.w3.org/1999/xlink">
 <defs>
  <style type="text/css">
*{stroke-linecap:butt;stroke-linejoin:round;}
  </style>
 </defs>
 <g id="figure_1">
  <g id="patch_1">
   <path d="M 0 432 
L 432 432 
L 432 0 
L 0 0 
z
" style="fill:#ffffff;"/>
  </g>
  <g id="axes_1">
   <g id="patch_2">
    <path d="M 384.48 214.92 
C 384.48 193.504531 380.261619 172.2973 372.066274 152.511986 
C 363.870929 132.726672 351.857997 114.74805 336.714974 99.605026 
C 321.57195 84.462003 303.593328 72.449071 283.808014 64.253726 
C 264.0227 56.058381 242.815469 51.84 221.4 51.84 
C 199.984531 51.84 178.7773 56.058381 158.991986 64.253726 
C 139.206672 72.449071 121.22805 84.462003 106.085026 99.605026 
C 90.942003 114.74805 78.929071 132.726672 70.733726 152.511986 
C 62.538381 172.2973 58.32 193.504531 58.32 214.92 
C 58.32 236.335469 62.538381 257.5427 70.733726 277.328014 
C 78.929071 297.113328 90.942003 315.09195 106.085026 330.234974 
C 121.22805 345.377997 139.206672 357.390929 158.991986 365.586274 
C 178.7773 373.781619 199.984531 378 221.4 378 
C 242.815469 378 264.0227 373.781619 283.808014 365.586274 
C 303.593328 357.390929 321.57195 345.377997 336.714974 330.234974 
C 351.857997 315.09195 363.870929 297.113328 372.066274 277.328014 
C 380.261619 257.5427 384.48 236.335469 384.48 214.92 
M 221.4 214.92 
C 221.4 214.92 221.4 214.92 221.4 214.92 
C 221.4 214.92 221.4 214.92 221.4 214.92 
C 221.4 214.92 221.4 214.92 221.4 214.92 
C 221.4 214.92 221.4 214.92 221.4 214.92 
C 221.4 214.92 221.4 214.92 221.4 214.92 
C 221.4 214.92 221.4 214.92 221.4 214.92 
C 221.4 214.92 221.4 214.92 221.4 214.92 
C 221.4 214.92 221.4 214.92 221.4 214.92 
C 221.4 214.92 221.4 214.92 221.4 214.92 
C 221.4 214.92 221.4 214.92 221.4 214.92 
C 221.4 214.92 221.4 214.92 221.4 214.92 
C 221.4 214.92 221.4 214.92 221.4 214.92 
C 221.4 214.92 221.4 214.92 221.4 214.92 
C 221.4 214.92 221.4 214.92 221.4 214.92 
C 221.4 214.92 221.4 214.92 221.4 214.92 
C 221.4 214.92 221.4 214.92 221.4 214.92 
M 384.48 214.92 
z
" style="fill:#ffffff;"/>
   </g>
   <g id="patch_3">
    <path clip-path="url(#pa4b9822306)" d="M 221.4 141.534 
L 242.018952 161.69635 
L 281.826457 148.635334 
L 294.391615 178.574494 
L 270.115299 210.405863 
L 244.928179 221.614344 
L 240.921097 229.661648 
L 294.372974 332.775399 
L 240.877816 319.117115 
L 206.417064 295.071627 
L 178.474721 284.246705 
L 182.357805 244.403297 
L 166.500916 230.540136 
L 188.923134 211.910575 
L 192.203354 200.381798 
L 193.933429 184.790606 
L 188.99879 131.282836 
z
" style="fill:#add8e6;opacity:0.3;"/>
   </g>
   <g id="matplotlib.axis_1">
    <g id="xtick_1">
     <g id="line2d_1">
      <path clip-path="url(#pa4b9822306)" d="M 221.4 214.92 
L 221.4 51.84 
" style="fill:none;stroke:#b0b0b0;stroke-linecap:square;stroke-width:0.8;"/>
     </g>
     <g id="text_1">
      <!-- 1 -->
      <defs>
       <path d="M 12.40625 8.296875 
L 28.515625 8.296875 
L 28.515625 63.921875 
L 10.984375 60.40625 
L 10.984375 69.390625 
L 28.421875 72.90625 
L 38.28125 72.90625 
L 38.28125 8.296875 
L 54.390625 8.296875 
L 54.390625 0 
L 12.40625 0 
z
" id="DejaVuSans-31"/>
      </defs>
      <g style="fill:#808080;" transform="translate(217.5825 41.15125)scale(0.12 -0.12)">
       <use xlink:href="#DejaVuSans-31"/>
      </g>
     </g>
    </g>
    <g id="xtick_2">
     <g id="line2d_2">
      <path clip-path="url(#pa4b9822306)" d="M 221.4 214.92 
L 280.311291 62.852429 
" style="fill:none;stroke:#b0b0b0;stroke-linecap:square;stroke-width:0.8;"/>
     </g>
     <g id="text_2">
      <!-- 2 -->
      <defs>
       <path d="M 19.1875 8.296875 
L 53.609375 8.296875 
L 53.609375 0 
L 7.328125 0 
L 7.328125 8.296875 
Q 12.9375 14.109375 22.625 23.890625 
Q 32.328125 33.6875 34.8125 36.53125 
Q 39.546875 41.84375 41.421875 45.53125 
Q 43.3125 49.21875 43.3125 52.78125 
Q 43.3125 58.59375 39.234375 62.25 
Q 35.15625 65.921875 28.609375 65.921875 
Q 23.96875 65.921875 18.8125 64.3125 
Q 13.671875 62.703125 7.8125 59.421875 
L 7.8125 69.390625 
Q 13.765625 71.78125 18.9375 73 
Q 24.125 74.21875 28.421875 74.21875 
Q 39.75 74.21875 46.484375 68.546875 
Q 53.21875 62.890625 53.21875 53.421875 
Q 53.21875 48.921875 51.53125 44.890625 
Q 49.859375 40.875 45.40625 35.40625 
Q 44.1875 33.984375 37.640625 27.21875 
Q 31.109375 20.453125 19.1875 8.296875 
z
" id="DejaVuSans-32"/>
      </defs>
      <g style="fill:#808080;" transform="translate(281.551174 53.109068)scale(0.12 -0.12)">
       <use xlink:href="#DejaVuSans-32"/>
      </g>
     </g>
    </g>
    <g id="xtick_3">
     <g id="line2d_3">
      <path clip-path="url(#pa4b9822306)" d="M 221.4 214.92 
L 331.266286 94.402426 
" style="fill:none;stroke:#b0b0b0;stroke-linecap:square;stroke-width:0.8;"/>
     </g>
     <g id="text_3">
      <!-- 3 -->
      <defs>
       <path d="M 40.578125 39.3125 
Q 47.65625 37.796875 51.625 33 
Q 55.609375 28.21875 55.609375 21.1875 
Q 55.609375 10.40625 48.1875 4.484375 
Q 40.765625 -1.421875 27.09375 -1.421875 
Q 22.515625 -1.421875 17.65625 -0.515625 
Q 12.796875 0.390625 7.625 2.203125 
L 7.625 11.71875 
Q 11.71875 9.328125 16.59375 8.109375 
Q 21.484375 6.890625 26.8125 6.890625 
Q 36.078125 6.890625 40.9375 10.546875 
Q 45.796875 14.203125 45.796875 21.1875 
Q 45.796875 27.640625 41.28125 31.265625 
Q 36.765625 34.90625 28.71875 34.90625 
L 20.21875 34.90625 
L 20.21875 43.015625 
L 29.109375 43.015625 
Q 36.375 43.015625 40.234375 45.921875 
Q 44.09375 48.828125 44.09375 54.296875 
Q 44.09375 59.90625 40.109375 62.90625 
Q 36.140625 65.921875 28.71875 65.921875 
Q 24.65625 65.921875 20.015625 65.03125 
Q 15.375 64.15625 9.8125 62.3125 
L 9.8125 71.09375 
Q 15.4375 72.65625 20.34375 73.4375 
Q 25.25 74.21875 29.59375 74.21875 
Q 40.828125 74.21875 47.359375 69.109375 
Q 53.90625 64.015625 53.90625 55.328125 
Q 53.90625 49.265625 50.4375 45.09375 
Q 46.96875 40.921875 40.578125 39.3125 
z
" id="DejaVuSans-33"/>
      </defs>
      <g style="fill:#808080;" transform="translate(336.880525 87.367551)scale(0.12 -0.12)">
       <use xlink:href="#DejaVuSans-33"/>
      </g>
     </g>
    </g>
    <g id="xtick_4">
     <g id="line2d_4">
      <path clip-path="url(#pa4b9822306)" d="M 221.4 214.92 
L 367.38323 142.228989 
" style="fill:none;stroke:#b0b0b0;stroke-linecap:square;stroke-width:0.8;"/>
     </g>
     <g id="text_4">
      <!-- 4 -->
      <defs>
       <path d="M 37.796875 64.3125 
L 12.890625 25.390625 
L 37.796875 25.390625 
z
M 35.203125 72.90625 
L 47.609375 72.90625 
L 47.609375 25.390625 
L 58.015625 25.390625 
L 58.015625 17.1875 
L 47.609375 17.1875 
L 47.609375 0 
L 37.796875 0 
L 37.796875 17.1875 
L 4.890625 17.1875 
L 4.890625 26.703125 
z
" id="DejaVuSans-34"/>
      </defs>
      <g style="fill:#808080;" transform="translate(376.098016 139.299902)scale(0.12 -0.12)">
       <use xlink:href="#DejaVuSans-34"/>
      </g>
     </g>
    </g>
    <g id="xtick_5">
     <g id="line2d_5">
      <path clip-path="url(#pa4b9822306)" d="M 221.4 214.92 
L 383.784329 199.872876 
" style="fill:none;stroke:#b0b0b0;stroke-linecap:square;stroke-width:0.8;"/>
     </g>
     <g id="text_5">
      <!-- 5 -->
      <defs>
       <path d="M 10.796875 72.90625 
L 49.515625 72.90625 
L 49.515625 64.59375 
L 19.828125 64.59375 
L 19.828125 46.734375 
Q 21.96875 47.46875 24.109375 47.828125 
Q 26.265625 48.1875 28.421875 48.1875 
Q 40.625 48.1875 47.75 41.5 
Q 54.890625 34.8125 54.890625 23.390625 
Q 54.890625 11.625 47.5625 5.09375 
Q 40.234375 -1.421875 26.90625 -1.421875 
Q 22.3125 -1.421875 17.546875 -0.640625 
Q 12.796875 0.140625 7.71875 1.703125 
L 7.71875 11.625 
Q 12.109375 9.234375 16.796875 8.0625 
Q 21.484375 6.890625 26.703125 6.890625 
Q 35.15625 6.890625 40.078125 11.328125 
Q 45.015625 15.765625 45.015625 23.390625 
Q 45.015625 31 40.078125 35.4375 
Q 35.15625 39.890625 26.703125 39.890625 
Q 22.75 39.890625 18.8125 39.015625 
Q 14.890625 38.140625 10.796875 36.28125 
z
" id="DejaVuSans-35"/>
      </defs>
      <g style="fill:#808080;" transform="translate(393.907108 201.892369)scale(0.12 -0.12)">
       <use xlink:href="#DejaVuSans-35"/>
      </g>
     </g>
    </g>
    <g id="xtick_6">
     <g id="line2d_6">
      <path clip-path="url(#pa4b9822306)" d="M 221.4 214.92 
L 378.254526 259.54896 
" style="fill:none;stroke:#b0b0b0;stroke-linecap:square;stroke-width:0.8;"/>
     </g>
     <g id="text_6">
      <!-- 6 -->
      <defs>
       <path d="M 33.015625 40.375 
Q 26.375 40.375 22.484375 35.828125 
Q 18.609375 31.296875 18.609375 23.390625 
Q 18.609375 15.53125 22.484375 10.953125 
Q 26.375 6.390625 33.015625 6.390625 
Q 39.65625 6.390625 43.53125 10.953125 
Q 47.40625 15.53125 47.40625 23.390625 
Q 47.40625 31.296875 43.53125 35.828125 
Q 39.65625 40.375 33.015625 40.375 
z
M 52.59375 71.296875 
L 52.59375 62.3125 
Q 48.875 64.0625 45.09375 64.984375 
Q 41.3125 65.921875 37.59375 65.921875 
Q 27.828125 65.921875 22.671875 59.328125 
Q 17.53125 52.734375 16.796875 39.40625 
Q 19.671875 43.65625 24.015625 45.921875 
Q 28.375 48.1875 33.59375 48.1875 
Q 44.578125 48.1875 50.953125 41.515625 
Q 57.328125 34.859375 57.328125 23.390625 
Q 57.328125 12.15625 50.6875 5.359375 
Q 44.046875 -1.421875 33.015625 -1.421875 
Q 20.359375 -1.421875 13.671875 8.265625 
Q 6.984375 17.96875 6.984375 36.375 
Q 6.984375 53.65625 15.1875 63.9375 
Q 23.390625 74.21875 37.203125 74.21875 
Q 40.921875 74.21875 44.703125 73.484375 
Q 48.484375 72.75 52.59375 71.296875 
z
" id="DejaVuSans-36"/>
      </defs>
      <g style="fill:#808080;" transform="translate(387.902585 266.691492)scale(0.12 -0.12)">
       <use xlink:href="#DejaVuSans-36"/>
      </g>
     </g>
    </g>
    <g id="xtick_7">
     <g id="line2d_7">
      <path clip-path="url(#pa4b9822306)" d="M 221.4 214.92 
L 351.540649 313.197657 
" style="fill:none;stroke:#b0b0b0;stroke-linecap:square;stroke-width:0.8;"/>
     </g>
     <g id="text_7">
      <!-- 7 -->
      <defs>
       <path d="M 8.203125 72.90625 
L 55.078125 72.90625 
L 55.078125 68.703125 
L 28.609375 0 
L 18.3125 0 
L 43.21875 64.59375 
L 8.203125 64.59375 
z
" id="DejaVuSans-37"/>
      </defs>
      <g style="fill:#808080;" transform="translate(358.895391 324.945791)scale(0.12 -0.12)">
       <use xlink:href="#DejaVuSans-37"/>
      </g>
     </g>
    </g>
    <g id="xtick_8">
     <g id="line2d_8">
      <path clip-path="url(#pa4b9822306)" d="M 221.4 214.92 
L 307.250557 353.57341 
" style="fill:none;stroke:#b0b0b0;stroke-linecap:square;stroke-width:0.8;"/>
     </g>
     <g id="text_8">
      <!-- 8 -->
      <defs>
       <path d="M 31.78125 34.625 
Q 24.75 34.625 20.71875 30.859375 
Q 16.703125 27.09375 16.703125 20.515625 
Q 16.703125 13.921875 20.71875 10.15625 
Q 24.75 6.390625 31.78125 6.390625 
Q 38.8125 6.390625 42.859375 10.171875 
Q 46.921875 13.96875 46.921875 20.515625 
Q 46.921875 27.09375 42.890625 30.859375 
Q 38.875 34.625 31.78125 34.625 
z
M 21.921875 38.8125 
Q 15.578125 40.375 12.03125 44.71875 
Q 8.5 49.078125 8.5 55.328125 
Q 8.5 64.0625 14.71875 69.140625 
Q 20.953125 74.21875 31.78125 74.21875 
Q 42.671875 74.21875 48.875 69.140625 
Q 55.078125 64.0625 55.078125 55.328125 
Q 55.078125 49.078125 51.53125 44.71875 
Q 48 40.375 41.703125 38.8125 
Q 48.828125 37.15625 52.796875 32.3125 
Q 56.78125 27.484375 56.78125 20.515625 
Q 56.78125 9.90625 50.3125 4.234375 
Q 43.84375 -1.421875 31.78125 -1.421875 
Q 19.734375 -1.421875 13.25 4.234375 
Q 6.78125 9.90625 6.78125 20.515625 
Q 6.78125 27.484375 10.78125 32.3125 
Q 14.796875 37.15625 21.921875 38.8125 
z
M 18.3125 54.390625 
Q 18.3125 48.734375 21.84375 45.5625 
Q 25.390625 42.390625 31.78125 42.390625 
Q 38.140625 42.390625 41.71875 45.5625 
Q 45.3125 48.734375 45.3125 54.390625 
Q 45.3125 60.0625 41.71875 63.234375 
Q 38.140625 66.40625 31.78125 66.40625 
Q 25.390625 66.40625 21.84375 63.234375 
Q 18.3125 60.0625 18.3125 54.390625 
z
" id="DejaVuSans-38"/>
      </defs>
      <g style="fill:#808080;" transform="translate(310.803107 368.7877)scale(0.12 -0.12)">
       <use xlink:href="#DejaVuSans-38"/>
      </g>
     </g>
    </g>
    <g id="xtick_9">
     <g id="line2d_9">
      <path clip-path="url(#pa4b9822306)" d="M 221.4 214.92 
L 251.365871 375.223253 
" style="fill:none;stroke:#b0b0b0;stroke-linecap:square;stroke-width:0.8;"/>
     </g>
     <g id="text_9">
      <!-- 9 -->
      <defs>
       <path d="M 10.984375 1.515625 
L 10.984375 10.5 
Q 14.703125 8.734375 18.5 7.8125 
Q 22.3125 6.890625 25.984375 6.890625 
Q 35.75 6.890625 40.890625 13.453125 
Q 46.046875 20.015625 46.78125 33.40625 
Q 43.953125 29.203125 39.59375 26.953125 
Q 35.25 24.703125 29.984375 24.703125 
Q 19.046875 24.703125 12.671875 31.3125 
Q 6.296875 37.9375 6.296875 49.421875 
Q 6.296875 60.640625 12.9375 67.421875 
Q 19.578125 74.21875 30.609375 74.21875 
Q 43.265625 74.21875 49.921875 64.515625 
Q 56.59375 54.828125 56.59375 36.375 
Q 56.59375 19.140625 48.40625 8.859375 
Q 40.234375 -1.421875 26.421875 -1.421875 
Q 22.703125 -1.421875 18.890625 -0.6875 
Q 15.09375 0.046875 10.984375 1.515625 
z
M 30.609375 32.421875 
Q 37.25 32.421875 41.125 36.953125 
Q 45.015625 41.5 45.015625 49.421875 
Q 45.015625 57.28125 41.125 61.84375 
Q 37.25 66.40625 30.609375 66.40625 
Q 23.96875 66.40625 20.09375 61.84375 
Q 16.21875 57.28125 16.21875 49.421875 
Q 16.21875 41.5 20.09375 36.953125 
Q 23.96875 32.421875 30.609375 32.421875 
z
" id="DejaVuSans-39"/>
      </defs>
      <g style="fill:#808080;" transform="translate(250.120865 392.296126)scale(0.12 -0.12)">
       <use xlink:href="#DejaVuSans-39"/>
      </g>
     </g>
    </g>
    <g id="xtick_10">
     <g id="line2d_10">
      <path clip-path="url(#pa4b9822306)" d="M 221.4 214.92 
L 191.434129 375.223253 
" style="fill:none;stroke:#b0b0b0;stroke-linecap:square;stroke-width:0.8;"/>
     </g>
     <g id="text_10">
      <!-- 10 -->
      <defs>
       <path d="M 31.78125 66.40625 
Q 24.171875 66.40625 20.328125 58.90625 
Q 16.5 51.421875 16.5 36.375 
Q 16.5 21.390625 20.328125 13.890625 
Q 24.171875 6.390625 31.78125 6.390625 
Q 39.453125 6.390625 43.28125 13.890625 
Q 47.125 21.390625 47.125 36.375 
Q 47.125 51.421875 43.28125 58.90625 
Q 39.453125 66.40625 31.78125 66.40625 
z
M 31.78125 74.21875 
Q 44.046875 74.21875 50.515625 64.515625 
Q 56.984375 54.828125 56.984375 36.375 
Q 56.984375 17.96875 50.515625 8.265625 
Q 44.046875 -1.421875 31.78125 -1.421875 
Q 19.53125 -1.421875 13.0625 8.265625 
Q 6.59375 17.96875 6.59375 36.375 
Q 6.59375 54.828125 13.0625 64.515625 
Q 19.53125 74.21875 31.78125 74.21875 
z
" id="DejaVuSans-30"/>
      </defs>
      <g style="fill:#808080;" transform="translate(181.226635 392.296126)scale(0.12 -0.12)">
       <use xlink:href="#DejaVuSans-31"/>
       <use x="63.623047" xlink:href="#DejaVuSans-30"/>
      </g>
     </g>
    </g>
    <g id="xtick_11">
     <g id="line2d_11">
      <path clip-path="url(#pa4b9822306)" d="M 221.4 214.92 
L 135.549443 353.57341 
" style="fill:none;stroke:#b0b0b0;stroke-linecap:square;stroke-width:0.8;"/>
     </g>
     <g id="text_11">
      <!-- 11 -->
      <g style="fill:#808080;" transform="translate(120.544393 368.7877)scale(0.12 -0.12)">
       <use xlink:href="#DejaVuSans-31"/>
       <use x="63.623047" xlink:href="#DejaVuSans-31"/>
      </g>
     </g>
    </g>
    <g id="xtick_12">
     <g id="line2d_12">
      <path clip-path="url(#pa4b9822306)" d="M 221.4 214.92 
L 91.259351 313.197657 
" style="fill:none;stroke:#b0b0b0;stroke-linecap:square;stroke-width:0.8;"/>
     </g>
     <g id="text_12">
      <!-- 12 -->
      <g style="fill:#808080;" transform="translate(72.452109 324.945791)scale(0.12 -0.12)">
       <use xlink:href="#DejaVuSans-31"/>
       <use x="63.623047" xlink:href="#DejaVuSans-32"/>
      </g>
     </g>
    </g>
    <g id="xtick_13">
     <g id="line2d_13">
      <path clip-path="url(#pa4b9822306)" d="M 221.4 214.92 
L 64.545474 259.54896 
" style="fill:none;stroke:#b0b0b0;stroke-linecap:square;stroke-width:0.8;"/>
     </g>
     <g id="text_13">
      <!-- 13 -->
      <g style="fill:#808080;" transform="translate(43.444915 266.691492)scale(0.12 -0.12)">
       <use xlink:href="#DejaVuSans-31"/>
       <use x="63.623047" xlink:href="#DejaVuSans-33"/>
      </g>
     </g>
    </g>
    <g id="xtick_14">
     <g id="line2d_14">
      <path clip-path="url(#pa4b9822306)" d="M 221.4 214.92 
L 59.015671 199.872876 
" style="fill:none;stroke:#b0b0b0;stroke-linecap:square;stroke-width:0.8;"/>
     </g>
     <g id="text_14">
      <!-- 14 -->
      <g style="fill:#808080;" transform="translate(37.440392 201.892369)scale(0.12 -0.12)">
       <use xlink:href="#DejaVuSans-31"/>
       <use x="63.623047" xlink:href="#DejaVuSans-34"/>
      </g>
     </g>
    </g>
    <g id="xtick_15">
     <g id="line2d_15">
      <path clip-path="url(#pa4b9822306)" d="M 221.4 214.92 
L 75.41677 142.228989 
" style="fill:none;stroke:#b0b0b0;stroke-linecap:square;stroke-width:0.8;"/>
     </g>
     <g id="text_15">
      <!-- 15 -->
      <g style="fill:#808080;" transform="translate(55.249484 139.299902)scale(0.12 -0.12)">
       <use xlink:href="#DejaVuSans-31"/>
       <use x="63.623047" xlink:href="#DejaVuSans-35"/>
      </g>
     </g>
    </g>
    <g id="xtick_16">
     <g id="line2d_16">
      <path clip-path="url(#pa4b9822306)" d="M 221.4 214.92 
L 111.533714 94.402426 
" style="fill:none;stroke:#b0b0b0;stroke-linecap:square;stroke-width:0.8;"/>
     </g>
     <g id="text_16">
      <!-- 16 -->
      <g style="fill:#808080;" transform="translate(94.466975 87.367551)scale(0.12 -0.12)">
       <use xlink:href="#DejaVuSans-31"/>
       <use x="63.623047" xlink:href="#DejaVuSans-36"/>
      </g>
     </g>
    </g>
    <g id="xtick_17">
     <g id="line2d_17">
      <path clip-path="url(#pa4b9822306)" d="M 221.4 214.92 
L 162.488709 62.852429 
" style="fill:none;stroke:#b0b0b0;stroke-linecap:square;stroke-width:0.8;"/>
     </g>
     <g id="text_17">
      <!-- 17 -->
      <g style="fill:#808080;" transform="translate(149.796326 53.109068)scale(0.12 -0.12)">
       <use xlink:href="#DejaVuSans-31"/>
       <use x="63.623047" xlink:href="#DejaVuSans-37"/>
      </g>
     </g>
    </g>
   </g>
   <g id="matplotlib.axis_2">
    <g id="ytick_1">
     <g id="line2d_18">
      <path clip-path="url(#pa4b9822306)" d="M 221.4 174.15 
L 224.243971 174.249314 
L 227.074087 174.546771 
L 229.87656 175.040922 
L 232.637735 175.729361 
L 235.344161 176.608732 
L 237.982653 177.674752 
L 240.540356 178.922227 
L 243.004808 180.345079 
L 245.364005 181.936377 
L 247.606451 183.688368 
L 249.721222 185.592516 
L 251.698015 187.639545 
L 253.527198 189.819482 
L 255.199862 192.121705 
L 256.707856 194.535 
L 258.043833 197.047608 
L 259.201286 199.647289 
L 260.174574 202.321377 
L 260.958957 205.056844 
L 261.550612 207.840364 
L 261.946658 210.658375 
L 262.145164 213.497148 
L 262.145164 216.342852 
L 261.946658 219.181625 
L 261.550612 221.999636 
L 260.958957 224.783156 
L 260.174574 227.518623 
L 259.201286 230.192711 
L 258.043833 232.792392 
L 256.707856 235.305 
L 255.199862 237.718295 
L 253.527198 240.020518 
L 251.698015 242.200455 
L 249.721222 244.247484 
L 247.606451 246.151632 
L 245.364005 247.903623 
L 243.004808 249.494921 
L 240.540356 250.917773 
L 237.982653 252.165248 
L 235.344161 253.231268 
L 232.637735 254.110639 
L 229.87656 254.799078 
L 227.074087 255.293229 
L 224.243971 255.590686 
L 221.4 255.69 
L 218.556029 255.590686 
L 215.725913 255.293229 
L 212.92344 254.799078 
L 210.162265 254.110639 
L 207.455839 253.231268 
L 204.817347 252.165248 
L 202.259644 250.917773 
L 199.795192 249.494921 
L 197.435995 247.903623 
L 195.193549 246.151632 
L 193.078778 244.247484 
L 191.101985 242.200455 
L 189.272802 240.020518 
L 187.600138 237.718295 
L 186.092144 235.305 
L 184.756167 232.792392 
L 183.598714 230.192711 
L 182.625426 227.518623 
L 181.841043 224.783156 
L 181.249388 221.999636 
L 180.853342 219.181625 
L 180.654836 216.342852 
L 180.654836 213.497148 
L 180.853342 210.658375 
L 181.249388 207.840364 
L 181.841043 205.056844 
L 182.625426 202.321377 
L 183.598714 199.647289 
L 184.756167 197.047608 
L 186.092144 194.535 
L 187.600138 192.121705 
L 189.272802 189.819482 
L 191.101985 187.639545 
L 193.078778 185.592516 
L 195.193549 183.688368 
L 197.435995 181.936377 
L 199.795192 180.345079 
L 202.259644 178.922227 
L 204.817347 177.674752 
L 207.455839 176.608732 
L 210.162265 175.729361 
L 212.92344 175.040922 
L 215.725913 174.546771 
L 218.556029 174.249314 
L 221.4 174.15 
L 221.4 174.15 
" style="fill:none;stroke:#b0b0b0;stroke-linecap:square;stroke-width:0.8;"/>
     </g>
     <g id="text_18">
      <!-- 5 -->
      <g style="fill:#808080;" transform="translate(221.4 172.070312)scale(0.1 -0.1)">
       <use xlink:href="#DejaVuSans-35"/>
      </g>
     </g>
    </g>
    <g id="ytick_2">
     <g id="line2d_19">
      <path clip-path="url(#pa4b9822306)" d="M 221.4 133.38 
L 227.087943 133.578627 
L 232.748175 134.173542 
L 238.353119 135.161845 
L 243.87547 136.538721 
L 249.288322 138.297464 
L 254.565306 140.429503 
L 259.680711 142.924453 
L 264.609617 145.770158 
L 269.328009 148.952754 
L 273.812902 152.456736 
L 278.042444 156.265033 
L 281.996029 160.35909 
L 285.654397 164.718963 
L 288.999724 169.323411 
L 292.015711 174.15 
L 294.687667 179.175217 
L 297.002572 184.374578 
L 298.949148 189.722754 
L 300.517914 195.193689 
L 301.701224 200.760728 
L 302.493315 206.396749 
L 302.890328 212.074295 
L 302.890328 217.765705 
L 302.493315 223.443251 
L 301.701224 229.079272 
L 300.517914 234.646311 
L 298.949148 240.117246 
L 297.002572 245.465422 
L 294.687667 250.664783 
L 292.015711 255.69 
L 288.999724 260.516589 
L 285.654397 265.121037 
L 281.996029 269.48091 
L 278.042444 273.574967 
L 273.812902 277.383264 
L 269.328009 280.887246 
L 264.609617 284.069842 
L 259.680711 286.915547 
L 254.565306 289.410497 
L 249.288322 291.542536 
L 243.87547 293.301279 
L 238.353119 294.678155 
L 232.748175 295.666458 
L 227.087943 296.261373 
L 221.4 296.46 
L 215.712057 296.261373 
L 210.051825 295.666458 
L 204.446881 294.678155 
L 198.92453 293.301279 
L 193.511678 291.542536 
L 188.234694 289.410497 
L 183.119289 286.915547 
L 178.190383 284.069842 
L 173.471991 280.887246 
L 168.987098 277.383264 
L 164.757556 273.574967 
L 160.803971 269.48091 
L 157.145603 265.121037 
L 153.800276 260.516589 
L 150.784289 255.69 
L 148.112333 250.664783 
L 145.797428 245.465422 
L 143.850852 240.117246 
L 142.282086 234.646311 
L 141.098776 229.079272 
L 140.306685 223.443251 
L 139.909672 217.765705 
L 139.909672 212.074295 
L 140.306685 206.396749 
L 141.098776 200.760728 
L 142.282086 195.193689 
L 143.850852 189.722754 
L 145.797428 184.374578 
L 148.112333 179.175217 
L 150.784289 174.15 
L 153.800276 169.323411 
L 157.145603 164.718963 
L 160.803971 160.35909 
L 164.757556 156.265033 
L 168.987098 152.456736 
L 173.471991 148.952754 
L 178.190383 145.770158 
L 183.119289 142.924453 
L 188.234694 140.429503 
L 193.511678 138.297464 
L 198.92453 136.538721 
L 204.446881 135.161845 
L 210.051825 134.173542 
L 215.712057 133.578627 
L 221.4 133.38 
L 221.4 133.38 
" style="fill:none;stroke:#b0b0b0;stroke-linecap:square;stroke-width:0.8;"/>
     </g>
     <g id="text_19">
      <!-- 10 -->
      <g style="fill:#808080;" transform="translate(221.4 131.300313)scale(0.1 -0.1)">
       <use xlink:href="#DejaVuSans-31"/>
       <use x="63.623047" xlink:href="#DejaVuSans-30"/>
      </g>
     </g>
    </g>
    <g id="ytick_3">
     <g id="line2d_20">
      <path clip-path="url(#pa4b9822306)" d="M 221.4 92.61 
L 225.668557 92.684508 
L 229.931914 92.907941 
L 234.184876 93.280027 
L 238.422262 93.800313 
L 242.638909 94.468164 
L 246.829679 95.282767 
L 250.989467 96.24313 
L 255.113205 97.348082 
L 259.195869 98.596277 
L 263.232484 99.986196 
L 267.218132 101.516143 
L 271.147959 103.184255 
L 275.017175 104.9885 
L 278.821067 106.92668 
L 282.555 108.996433 
L 286.214425 111.195237 
L 289.794884 113.520415 
L 293.292014 115.969131 
L 296.701555 118.538405 
L 300.019353 121.225104 
L 303.241364 124.025956 
L 306.363665 126.937549 
L 309.382451 129.956335 
L 312.294044 133.078636 
L 315.094896 136.300647 
L 317.781595 139.618445 
L 320.350869 143.027986 
L 322.799585 146.525116 
L 325.124763 150.105575 
L 327.323567 153.765 
L 329.39332 157.498933 
L 331.3315 161.302825 
L 333.135745 165.172041 
L 334.803857 169.101868 
L 336.333804 173.087516 
L 337.723723 177.124131 
L 338.971918 181.206795 
L 340.07687 185.330533 
L 341.037233 189.490321 
L 341.851836 193.681091 
L 342.519687 197.897738 
L 343.039973 202.135124 
L 343.412059 206.388086 
L 343.635492 210.651443 
L 343.71 214.92 
L 343.635492 219.188557 
L 343.412059 223.451914 
L 343.039973 227.704876 
L 342.519687 231.942262 
L 341.851836 236.158909 
L 341.037233 240.349679 
L 340.07687 244.509467 
L 338.971918 248.633205 
L 337.723723 252.715869 
L 336.333804 256.752484 
L 334.803857 260.738132 
L 333.135745 264.667959 
L 331.3315 268.537175 
L 329.39332 272.341067 
L 327.323567 276.075 
L 325.124763 279.734425 
L 322.799585 283.314884 
L 320.350869 286.812014 
L 317.781595 290.221555 
L 315.094896 293.539353 
L 312.294044 296.761364 
L 309.382451 299.883665 
L 306.363665 302.902451 
L 303.241364 305.814044 
L 300.019353 308.614896 
L 296.701555 311.301595 
L 293.292014 313.870869 
L 289.794884 316.319585 
L 286.214425 318.644763 
L 282.555 320.843567 
L 278.821067 322.91332 
L 275.017175 324.8515 
L 271.147959 326.655745 
L 267.218132 328.323857 
L 263.232484 329.853804 
L 259.195869 331.243723 
L 255.113205 332.491918 
L 250.989467 333.59687 
L 246.829679 334.557233 
L 242.638909 335.371836 
L 238.422262 336.039687 
L 234.184876 336.559973 
L 229.931914 336.932059 
L 225.668557 337.155492 
L 221.4 337.23 
L 217.131443 337.155492 
L 212.868086 336.932059 
L 208.615124 336.559973 
L 204.377738 336.039687 
L 200.161091 335.371836 
L 195.970321 334.557233 
L 191.810533 333.59687 
L 187.686795 332.491918 
L 183.604131 331.243723 
L 179.567516 329.853804 
L 175.581868 328.323857 
L 171.652041 326.655745 
L 167.782825 324.8515 
L 163.978933 322.91332 
L 160.245 320.843567 
L 156.585575 318.644763 
L 153.005116 316.319585 
L 149.507986 313.870869 
L 146.098445 311.301595 
L 142.780647 308.614896 
L 139.558636 305.814044 
L 136.436335 302.902451 
L 133.417549 299.883665 
L 130.505956 296.761364 
L 127.705104 293.539353 
L 125.018405 290.221555 
L 122.449131 286.812014 
L 120.000415 283.314884 
L 117.675237 279.734425 
L 115.476433 276.075 
L 113.40668 272.341067 
L 111.4685 268.537175 
L 109.664255 264.667959 
L 107.996143 260.738132 
L 106.466196 256.752484 
L 105.076277 252.715869 
L 103.828082 248.633205 
L 102.72313 244.509467 
L 101.762767 240.349679 
L 100.948164 236.158909 
L 100.280313 231.942262 
L 99.760027 227.704876 
L 99.387941 223.451914 
L 99.164508 219.188557 
L 99.09 214.92 
L 99.164508 210.651443 
L 99.387941 206.388086 
L 99.760027 202.135124 
L 100.280313 197.897738 
L 100.948164 193.681091 
L 101.762767 189.490321 
L 102.72313 185.330533 
L 103.828082 181.206795 
L 105.076277 177.124131 
L 106.466196 173.087516 
L 107.996143 169.101868 
L 109.664255 165.172041 
L 111.4685 161.302825 
L 113.40668 157.498933 
L 115.476433 153.765 
L 117.675237 150.105575 
L 120.000415 146.525116 
L 122.449131 143.027986 
L 125.018405 139.618445 
L 127.705104 136.300647 
L 130.505956 133.078636 
L 133.417549 129.956335 
L 136.436335 126.937549 
L 139.558636 124.025956 
L 142.780647 121.225104 
L 146.098445 118.538405 
L 149.507986 115.969131 
L 153.005116 113.520415 
L 156.585575 111.195237 
L 160.245 108.996433 
L 163.978933 106.92668 
L 167.782825 104.9885 
L 171.652041 103.184255 
L 175.581868 101.516143 
L 179.567516 99.986196 
L 183.604131 98.596277 
L 187.686795 97.348082 
L 191.810533 96.24313 
L 195.970321 95.282767 
L 200.161091 94.468164 
L 204.377738 93.800313 
L 208.615124 93.280027 
L 212.868086 92.907941 
L 217.131443 92.684508 
L 221.4 92.61 
L 221.4 92.61 
" style="fill:none;stroke:#b0b0b0;stroke-linecap:square;stroke-width:0.8;"/>
     </g>
     <g id="text_20">
      <!-- 15 -->
      <g style="fill:#808080;" transform="translate(221.4 90.530312)scale(0.1 -0.1)">
       <use xlink:href="#DejaVuSans-31"/>
       <use x="63.623047" xlink:href="#DejaVuSans-35"/>
      </g>
     </g>
    </g>
   </g>
   <g id="line2d_21">
    <path clip-path="url(#pa4b9822306)" d="M 221.4 141.534 
L 242.018952 161.69635 
L 281.826457 148.635334 
L 294.391615 178.574494 
L 270.115299 210.405863 
L 244.928179 221.614344 
L 240.921097 229.661648 
L 294.372974 332.775399 
L 240.877816 319.117115 
L 206.417064 295.071627 
L 178.474721 284.246705 
L 182.357805 244.403297 
L 166.500916 230.540136 
L 188.923134 211.910575 
L 192.203354 200.381798 
L 193.933429 184.790606 
L 188.99879 131.282836 
L 221.4 141.534 
" style="fill:none;stroke:#add8e6;stroke-linecap:square;stroke-width:1.5;"/>
   </g>
   <g id="patch_4">
    <path d="M 221.4 51.84 
C 199.984531 51.84 178.7773 56.058381 158.991986 64.253726 
C 139.206672 72.449071 121.22805 84.462003 106.085026 99.605026 
C 90.942003 114.74805 78.929071 132.726672 70.733726 152.511986 
C 62.538381 172.2973 58.32 193.504531 58.32 214.92 
C 58.32 236.335469 62.538381 257.5427 70.733726 277.328014 
C 78.929071 297.113328 90.942003 315.09195 106.085026 330.234974 
C 121.22805 345.377997 139.206672 357.390929 158.991986 365.586274 
C 178.7773 373.781619 199.984531 378 221.4 378 
C 242.815469 378 264.0227 373.781619 283.808014 365.586274 
C 303.593328 357.390929 321.57195 345.377997 336.714974 330.234974 
C 351.857997 315.09195 363.870929 297.113328 372.066274 277.328014 
C 380.261619 257.5427 384.48 236.335469 384.48 214.92 
C 384.48 193.504531 380.261619 172.2973 372.066274 152.511986 
C 363.870929 132.726672 351.857997 114.74805 336.714974 99.605026 
C 321.57195 84.462003 303.593328 72.449071 283.808014 64.253726 
C 264.0227 56.058381 242.815469 51.84 221.4 51.84 
" style="fill:none;stroke:#000000;stroke-linecap:square;stroke-linejoin:miter;stroke-width:0.8;"/>
   </g>
  </g>
 </g>
 <defs>
  <clipPath id="pa4b9822306">
   <path d="M 384.48 214.92 
C 384.48 193.504531 380.261619 172.2973 372.066274 152.511986 
C 363.870929 132.726672 351.857997 114.74805 336.714974 99.605026 
C 321.57195 84.462003 303.593328 72.449071 283.808014 64.253726 
C 264.0227 56.058381 242.815469 51.84 221.4 51.84 
C 199.984531 51.84 178.7773 56.058381 158.991986 64.253726 
C 139.206672 72.449071 121.22805 84.462003 106.085026 99.605026 
C 90.942003 114.74805 78.929071 132.726672 70.733726 152.511986 
C 62.538381 172.2973 58.32 193.504531 58.32 214.92 
C 58.32 236.335469 62.538381 257.5427 70.733726 277.328014 
C 78.929071 297.113328 90.942003 315.09195 106.085026 330.234974 
C 121.22805 345.377997 139.206672 357.390929 158.991986 365.586274 
C 178.7773 373.781619 199.984531 378 221.4 378 
C 242.815469 378 264.0227 373.781619 283.808014 365.586274 
C 303.593328 357.390929 321.57195 345.377997 336.714974 330.234974 
C 351.857997 315.09195 363.870929 297.113328 372.066274 277.328014 
C 380.261619 257.5427 384.48 236.335469 384.48 214.92 
M 221.4 214.92 
C 221.4 214.92 221.4 214.92 221.4 214.92 
C 221.4 214.92 221.4 214.92 221.4 214.92 
C 221.4 214.92 221.4 214.92 221.4 214.92 
C 221.4 214.92 221.4 214.92 221.4 214.92 
C 221.4 214.92 221.4 214.92 221.4 214.92 
C 221.4 214.92 221.4 214.92 221.4 214.92 
C 221.4 214.92 221.4 214.92 221.4 214.92 
C 221.4 214.92 221.4 214.92 221.4 214.92 
C 221.4 214.92 221.4 214.92 221.4 214.92 
C 221.4 214.92 221.4 214.92 221.4 214.92 
C 221.4 214.92 221.4 214.92 221.4 214.92 
C 221.4 214.92 221.4 214.92 221.4 214.92 
C 221.4 214.92 221.4 214.92 221.4 214.92 
C 221.4 214.92 221.4 214.92 221.4 214.92 
C 221.4 214.92 221.4 214.92 221.4 214.92 
C 221.4 214.92 221.4 214.92 221.4 214.92 
M 384.48 214.92 
z
"/>
  </clipPath>
 </defs>
</svg>
