<?xml version="1.0" encoding="utf-8"?>
<!-- Generator: Adobe Illustrator 19.0.0, SVG Export Plug-In . SVG Version: 6.00 Build 0)  -->
<svg version="1.1" id="Capa_1" xmlns="http://www.w3.org/2000/svg" xmlns:xlink="http://www.w3.org/1999/xlink" x="0px" y="0px"
	 viewBox="-375 347 648 108" style="enable-background:new -375 347 648 108;" xml:space="preserve">
<style type="text/css">
	.st0{fill:#262626;stroke:#262626;stroke-width:1.5;stroke-linejoin:round;}
	.st1{fill:#262626;}
	.st2{fill:none;stroke:#262626;stroke-width:1.25;}
</style>
<path id="m67b1c63353" class="st0" d="M-363.1,421.9v-6.5"/>
<path id="ArialMT-30" class="st1" d="M-366.1,430.4c0-1.1,0.1-2,0.3-2.6c0.2-0.7,0.6-1.2,1-1.5c0.4-0.4,1-0.5,1.7-0.5
	c0.5,0,0.9,0.1,1.3,0.3c0.4,0.2,0.7,0.5,0.9,0.9c0.2,0.4,0.4,0.8,0.6,1.4c0.1,0.5,0.2,1.3,0.2,2.2c0,1.1-0.1,2-0.3,2.6
	c-0.2,0.7-0.6,1.2-1,1.5c-0.4,0.4-1,0.5-1.7,0.5c-0.9,0-1.6-0.3-2.1-1C-365.8,433.4-366.1,432.1-366.1,430.4z M-365,430.4
	c0,1.5,0.2,2.5,0.5,3c0.4,0.5,0.8,0.8,1.3,0.8c0.5,0,1-0.3,1.3-0.8c0.4-0.5,0.5-1.5,0.5-3c0-1.5-0.2-2.5-0.5-3
	c-0.4-0.5-0.8-0.7-1.3-0.7c-0.5,0-0.9,0.2-1.2,0.7C-364.8,427.8-365,428.9-365,430.4z"/>
<path id="m67b1c63353_1_" class="st0" d="M-246.9,421.9v-6.5"/>
<path id="ArialMT-32" class="st1" d="M-244,433.8v1.1h-6.1c0-0.3,0-0.5,0.1-0.8c0.2-0.4,0.4-0.8,0.7-1.2c0.3-0.4,0.8-0.9,1.5-1.4
	c1-0.8,1.7-1.5,2-2c0.4-0.5,0.5-0.9,0.5-1.4c0-0.4-0.2-0.8-0.5-1.1c-0.3-0.3-0.7-0.5-1.3-0.5c-0.5,0-1,0.2-1.3,0.5
	c-0.3,0.3-0.5,0.8-0.5,1.4l-1.2-0.1c0.1-0.9,0.4-1.5,0.9-2c0.5-0.5,1.2-0.7,2.1-0.7c0.9,0,1.6,0.2,2.1,0.7c0.5,0.5,0.8,1.1,0.8,1.8
	c0,0.4-0.1,0.7-0.2,1.1c-0.2,0.4-0.4,0.7-0.8,1.1c-0.4,0.4-0.9,0.9-1.7,1.6c-0.7,0.6-1.1,1-1.3,1.2c-0.2,0.2-0.4,0.4-0.5,0.6H-244z"
	/>
<path id="m67b1c63353_2_" class="st0" d="M-130.8,421.9v-6.5"/>
<path id="ArialMT-34" class="st1" d="M-130.2,434.9v-2.2h-4v-1l4.2-6h0.9v6h1.2v1h-1.2v2.2H-130.2z M-130.2,431.7v-4.2l-2.9,4.2
	H-130.2z"/>
<path id="m67b1c63353_3_" class="st0" d="M-14.7,421.9v-6.5"/>
<path id="ArialMT-36" class="st1" d="M-11.9,428L-13,428c-0.1-0.4-0.2-0.8-0.4-1c-0.3-0.3-0.7-0.5-1.1-0.5c-0.4,0-0.7,0.1-1,0.3
	c-0.4,0.3-0.6,0.6-0.8,1.1c-0.2,0.5-0.3,1.2-0.3,2.1c0.3-0.4,0.6-0.7,1-0.9s0.8-0.3,1.2-0.3c0.8,0,1.4,0.3,1.9,0.8
	c0.5,0.6,0.8,1.3,0.8,2.2c0,0.6-0.1,1.1-0.4,1.6c-0.2,0.5-0.6,0.9-1,1.1c-0.4,0.3-0.9,0.4-1.5,0.4c-0.9,0-1.7-0.3-2.3-1
	c-0.6-0.7-0.9-1.8-0.9-3.4c0-1.8,0.3-3.1,1-3.9c0.6-0.7,1.4-1.1,2.3-1.1c0.7,0,1.3,0.2,1.8,0.6C-12.2,426.7-12,427.2-11.9,428z
	 M-16.5,431.9c0,0.4,0.1,0.8,0.2,1.1c0.2,0.4,0.4,0.6,0.7,0.8c0.3,0.2,0.6,0.3,0.9,0.3c0.5,0,0.9-0.2,1.2-0.6
	c0.3-0.4,0.5-0.9,0.5-1.6c0-0.6-0.2-1.1-0.5-1.5c-0.3-0.4-0.8-0.6-1.3-0.6c-0.5,0-0.9,0.2-1.3,0.6
	C-16.3,430.9-16.5,431.3-16.5,431.9z"/>
<path id="m67b1c63353_4_" class="st0" d="M101.4,421.9v-6.5"/>
<path id="ArialMT-38" class="st1" d="M100.1,429.9c-0.5-0.2-0.8-0.4-1-0.7c-0.2-0.3-0.3-0.7-0.3-1.1c0-0.7,0.2-1.2,0.7-1.7
	c0.5-0.5,1.1-0.7,1.9-0.7c0.8,0,1.5,0.2,1.9,0.7c0.5,0.5,0.7,1,0.7,1.7c0,0.4-0.1,0.8-0.3,1.1c-0.2,0.3-0.6,0.6-1,0.7
	c0.6,0.2,1,0.5,1.3,0.9c0.3,0.4,0.4,0.9,0.4,1.5c0,0.8-0.3,1.5-0.8,2c-0.6,0.5-1.3,0.8-2.2,0.8s-1.6-0.3-2.2-0.8
	c-0.6-0.5-0.8-1.2-0.8-2c0-0.6,0.2-1.1,0.5-1.5C99.1,430.3,99.6,430.1,100.1,429.9z M99.9,428c0,0.4,0.1,0.8,0.4,1.1
	c0.3,0.3,0.6,0.4,1.1,0.4c0.4,0,0.8-0.1,1.1-0.4c0.3-0.3,0.4-0.6,0.4-1c0-0.4-0.1-0.8-0.4-1.1c-0.3-0.3-0.6-0.4-1.1-0.4
	c-0.4,0-0.8,0.1-1.1,0.4C100,427.3,99.9,427.6,99.9,428z M99.5,432.3c0,0.3,0.1,0.6,0.2,0.9c0.2,0.3,0.4,0.5,0.7,0.7
	c0.3,0.2,0.6,0.2,1,0.2c0.5,0,1-0.2,1.3-0.5c0.4-0.3,0.5-0.8,0.5-1.3c0-0.5-0.2-1-0.5-1.4c-0.4-0.4-0.8-0.5-1.4-0.5
	c-0.5,0-1,0.2-1.3,0.5C99.7,431.3,99.5,431.7,99.5,432.3z"/>
<path id="m67b1c63353_5_" class="st0" d="M217.6,421.9v-6.5"/>
<path id="ArialMT-31" class="st1" d="M215.2,434.9H214v-7.2c-0.3,0.3-0.6,0.5-1.1,0.8c-0.4,0.3-0.8,0.5-1.2,0.6V428
	c0.6-0.3,1.2-0.7,1.7-1.1c0.5-0.4,0.8-0.8,1-1.2h0.7V434.9z"/>
<path id="ArialMT-30_1_" class="st1" d="M218.1,430.4c0-1.1,0.1-2,0.3-2.6c0.2-0.7,0.6-1.2,1-1.5c0.4-0.4,1-0.5,1.7-0.5
	c0.5,0,0.9,0.1,1.3,0.3c0.4,0.2,0.7,0.5,0.9,0.9c0.2,0.4,0.4,0.8,0.6,1.4c0.1,0.5,0.2,1.3,0.2,2.2c0,1.1-0.1,2-0.3,2.6
	c-0.2,0.7-0.6,1.2-1,1.5c-0.4,0.4-1,0.5-1.7,0.5c-0.9,0-1.6-0.3-2.1-1C218.4,433.4,218.1,432.1,218.1,430.4z M219.3,430.4
	c0,1.5,0.2,2.5,0.5,3c0.4,0.5,0.8,0.8,1.3,0.8c0.5,0,1-0.3,1.3-0.8c0.4-0.5,0.5-1.5,0.5-3c0-1.5-0.2-2.5-0.5-3
	c-0.4-0.5-0.8-0.7-1.3-0.7c-0.5,0-0.9,0.2-1.2,0.7C219.4,427.8,219.3,428.9,219.3,430.4z"/>
<image style="overflow:visible;enable-background:new    ;" width="6480" height="360" id="image8d3b080d28" xlink:href="91884162.png"  transform="matrix(9.677055e-002 0 0 -9.677055e-002 -363.0731 421.9276)">
</image>
<path class="st2" d="M-363.1,421.9h2.4h622.2h2.4v-34.8h-2.4h-622.2h-2.4V421.9z"/>
</svg>
